STARTFONT 2.3
FONT -FontForge-Pacifico-Book-R-Normal--28-280-72-72-P-165-ISO10646-1
SIZE 28 72 72  4
FONTBOUNDINGBOX 64 55 -17 -13
COMMENT "Generated by fontforge, http://fontforge.sourceforge.net"
COMMENT "Copyright 2018 The Pacifico Project Authors (https://github.com/googlefonts/Pacifico)"
STARTPROPERTIES 41
FOUNDRY "FontForge"
FAMILY_NAME "Pacifico"
WEIGHT_NAME "Book"
SLANT "R"
SETWIDTH_NAME "Normal"
ADD_STYLE_NAME ""
PIXEL_SIZE 28
POINT_SIZE 280
RESOLUTION_X 72
RESOLUTION_Y 72
SPACING "P"
AVERAGE_WIDTH 165
CHARSET_REGISTRY "ISO10646"
CHARSET_ENCODING "1"
FONTNAME_REGISTRY ""
CHARSET_COLLECTIONS "ISO8859-2 ISO8859-5 ISO8859-9 ISO8859-4 ISO10646-1"
BITS_PER_PIXEL 4
FONT_NAME "Pacifico-Regular"
FACE_NAME "Pacifico Regular"
COPYRIGHT "Copyright 2018 The Pacifico Project Authors (https://github.com/googlefonts/Pacifico)"
FONT_VERSION "3.001"
FONT_ASCENT 22
FONT_DESCENT 6
UNDERLINE_POSITION -3
UNDERLINE_THICKNESS 2
X_HEIGHT 12
CAP_HEIGHT 23
DEFAULT_CHAR 1
RAW_ASCENT 800
RAW_DESCENT 200
NORM_SPACE 7
RELATIVE_WEIGHT 40
RELATIVE_SETWIDTH 50
SUPERSCRIPT_X 0
SUPERSCRIPT_Y 9
SUPERSCRIPT_SIZE 16
SUBSCRIPT_X 0
SUBSCRIPT_Y 2
SUBSCRIPT_SIZE 16
AVG_LOWERCASE_WIDTH 132
AVG_UPPERCASE_WIDTH 229
ENDPROPERTIES
CHARS 1514
STARTCHAR NULL.dup1
ENCODING 0
SWIDTH 0 0
DWIDTH 0 0
BBX 1 1 0 0
BITMAP
00
ENDCHAR
STARTCHAR nonmarkingreturn
ENCODING 13
SWIDTH 265 0
DWIDTH 7 0
BBX 1 1 0 0
BITMAP
00
ENDCHAR
STARTCHAR space
ENCODING 32
SWIDTH 265 0
DWIDTH 7 0
BBX 1 1 0 0
BITMAP
00
ENDCHAR
STARTCHAR exclam
ENCODING 33
SWIDTH 340 0
DWIDTH 10 0
BBX 11 24 0 0
BITMAP
0000003CFC10
000000DFFF30
000002FFFE00
000006FFFB00
000009FFF700
00000CFFF300
00000FFFE000
00003FFFA000
00006FFF6000
00009FFF2000
0000CFFC0000
0000FFF80000
0003FFF40000
0005FFE00000
0008FF900000
000AFF400000
000CFE000000
000272000000
000000000000
02BED5000000
0CFFFE000000
1FFFFF100000
0EFFFD000000
04DEC3000000
ENDCHAR
STARTCHAR quotedbl
ENCODING 34
SWIDTH 510 0
DWIDTH 14 0
BBX 12 10 3 14
BITMAP
04DE7003CEA0
0EFFF00CFFF2
3FFFE01FFFF2
5FFFB03FFFE0
7FFF804FFFB0
8FFF506FFF80
AFFF207FFF50
BFFE009FFF10
CFFA00AFFD00
6EC3005ED400
ENDCHAR
STARTCHAR numbersign
ENCODING 35
SWIDTH 700 0
DWIDTH 20 0
BBX 18 17 1 0
BITMAP
000000273000047200
000002EFF1005FFC00
000008FFE000BFFB00
00000CFFA001FFF700
08FFFFFFFFFFFFFFFA
0DFFFFFFFFFFFFFFFF
08FFFFFFFFFFFFFFFA
0001FFF7004FFF4000
0005FFF2009FFE0000
000AFFC000DFF90000
AFFFFFFFFFFFFFFF90
FFFFFFFFFFFFFFFFE0
AFFFFFFFFFFFFFFF80
00DFF9002FFF600000
02FFF6005FFF200000
03FFF1007FFC000000
00BE50002DD3000000
ENDCHAR
STARTCHAR dollar
ENCODING 36
SWIDTH 524 0
DWIDTH 15 0
BBX 13 24 1 -4
BITMAP
00000004600000
0000000FF10000
0000002FE00000
0000004FB00000
0003ADFFFC6000
007FFFFFFFFB00
04FFFCDFDFFF50
0BFFA0CF4BFF80
0DFF60EF17FF50
0CFFB1FE006500
07FFFDFC000000
01CFFFFE810000
0019FFFFFE7000
00002BFFFFF700
18600BF9EFFE00
AFF20DF33FFF20
DFF70EF13FFF10
BFFE7FE5DFFB00
3EFFFFFFFFE200
02BFFFFFF91000
0001AFB4100000
0000AF70000000
0000CF50000000
0000AD20000000
ENDCHAR
STARTCHAR percent
ENCODING 37
SWIDTH 896 0
DWIDTH 25 0
BBX 24 21 1 0
BITMAP
0017DFD800000001BE300000
01CFFFFFA000000BFF900000
0AFFDBFFF40001AFFF600000
2FFE17FFF9138EFFFD000000
7FF904FFFFFFFFFFF5000000
8FF700CFFFFFFFFFB0000000
9FF8004FFFEAEFFF20000000
7FFC009FF204FFF800000000
2FFFBAFFA00DFFE100000000
07FFFFFD107FFF5000000000
005CEE9101EFFB003AEEC600
0000000009FFF304FFFFFF80
000000003FFF901EFFAAFFF3
00000000CFFE107FFA00BFF8
00000005FFF600CFF4007FFA
0000001DFFC000EFF2006FFA
0000008FFF3000EFF3008FF8
000002FFFA0000CFF601DFF3
000009FFE100007FFE9CFFB0
00000CFF7000000CFFFFFC10
000005EA000000018DFD8100
ENDCHAR
STARTCHAR ampersand
ENCODING 38
SWIDTH 851 0
DWIDTH 24 0
BBX 23 27 1 -2
BITMAP
00000003ADFEB50000000000
0000008FFFFFFF8000000000
000008FFFFFFFFF300000000
00003FFFD314EFF900000000
00008FFF30008FFC00000000
0000CFFC00007FFD00000000
0000DFFA00009FFB00000000
0000DFFB0001EFF800000000
0000BFFE000AFFF200000000
00007FFF51AFFF7000000000
00002FFFDEFFFA0000000000
00000AFFFFFF800000000000
00001BFFFFE5000000000000
0004EFFFFFC0000000002100
005FFFFFFFF80000002DFF20
04FFFF84FFFF500000CFFE10
0DFFF7008FFFE30009FFF700
5FFFB0000BFFFD207FFFB000
9FFF500001EFFFC7FFFD1000
BFFF4000004FFFFFFFE20000
9FFF80000006FFFFFD200000
4FFFF931137CFFFFF9000000
0AFFFFFFFFFFFFFFFF600000
009FFFFFFFFFF9DFFFF50000
00028CEFEDA6102EFFFE2000
0000000000000004FFFF4000
00000000000000004CEA0000
ENDCHAR
STARTCHAR quotesingle
ENCODING 39
SWIDTH 290 0
DWIDTH 8 0
BBX 5 10 3 14
BITMAP
04DE70
0EFFF0
3FFFE0
5FFFB0
7FFF80
8FFF50
AFFF20
BFFE00
CFFA00
6EC300
ENDCHAR
STARTCHAR parenleft
ENCODING 40
SWIDTH 613 0
DWIDTH 17 0
BBX 19 30 2 -4
BITMAP
00000000017BDFEB6100
000000007FFFFFFFFD30
0000001BFFFFFFFFFF90
000000BFFFD6214BFF70
000008FFFC1000004600
00003FFFD10000000000
0000CFFF500000000000
0005FFFA000000000000
000CFFF3000000000000
003FFFB0000000000000
008FFF50000000000000
00DFFF10000000000000
03FFFA00000000000000
06FFF600000000000000
0AFFF300000000000000
0DFFE000000000000000
0FFFC000000000000000
2FFFA000000000000000
4FFF8000000000000000
5FFF6000000000000000
6FFF6000000000000000
7FFF5000000000000000
6FFF5000000000000000
5FFF6000000000000000
3FFF90000004B4000000
0EFFD000006FFB000000
08FFFA214BFFF9000000
01EFFFFFFFFFC1000000
003EFFFFFFF800000000
00017CEEC82000000000
ENDCHAR
STARTCHAR parenright
ENCODING 41
SWIDTH 613 0
DWIDTH 17 0
BBX 19 30 -3 -4
BITMAP
0000000016BEFDA30000
00000004DFFFFFFF7000
0000006FFFFFFFFFF600
000003FFFD6216FFFE00
000006FFB100008FFF50
000001A80000003FFF80
000000000000001FFFB0
000000000000000FFFC0
000000000000000EFFC0
000000000000000FFFC0
000000000000001FFFB0
000000000000002FFFA0
000000000000004FFF80
000000000000006FFF60
000000000000009FFF40
00000000000000CFFF10
00000000000001FFFC00
00000000000004FFF800
00000000000009FFF400
0000000000000EFFE000
0000000000005FFF9000
000000000000CFFF3000
000000000004FFFA0000
00000000001DFFF30000
00000000009FFF900000
0361000007FFFD100000
1EFD6214BFFFE3000000
4FFFFFFFFFFE30000000
0AFFFFFFFFB200000000
004ADFEC930000000000
ENDCHAR
STARTCHAR asterisk
ENCODING 42
SWIDTH 520 0
DWIDTH 15 0
BBX 12 12 3 14
BITMAP
000004EB0000
00000AFF2000
09E80AFE0000
0EFF8AF83BE5
04DFFEFAFFFA
0018FFFFFFE4
5DFFFFFF7100
CFFFBFEFFC30
6EB39F9AFFD0
0001EF909E80
0003FF900000
0001CD300000
ENDCHAR
STARTCHAR plus
ENCODING 43
SWIDTH 700 0
DWIDTH 20 0
BBX 16 17 2 0
BITMAP
0000000165000000
00000009FF500000
0000000DFF500000
0000000FFF300000
0000001FFF100000
0000003FFE000000
0000005FFD000000
3DFFFFFFFFFFFFE5
9FFFFFFFFFFFFFF9
6FFFFFFFFFFFFFD3
000000DFF5000000
000000FFF3000000
000002FFF1000000
000003FFF0000000
000005FFD0000000
000006FFB0000000
000003DD30000000
ENDCHAR
STARTCHAR comma
ENCODING 44
SWIDTH 257 0
DWIDTH 7 0
BBX 6 10 0 -4
BITMAP
003740
05FFF4
0BFFF8
0DFFF6
0EFFF2
0FFFC0
2FFF60
5FFD00
7FF600
4EB000
ENDCHAR
STARTCHAR hyphen
ENCODING 45
SWIDTH 403 0
DWIDTH 11 0
BBX 10 5 1 6
BITMAP
0023568970
2EFFFFFFF3
6FFFFFFFF2
2EFFDCA950
0110000000
ENDCHAR
STARTCHAR period
ENCODING 46
SWIDTH 257 0
DWIDTH 7 0
BBX 6 5 0 0
BITMAP
04CEC4
0EFFFD
3FFFFE
1FFFFA
05DEB2
ENDCHAR
STARTCHAR slash
ENCODING 47
SWIDTH 509 0
DWIDTH 14 0
BBX 16 26 0 0
BITMAP
0000000000002DD2
000000000000BFF8
000000000005FFF7
00000000000CFFE1
00000000006FFF60
0000000000DFFD00
0000000007FFF500
000000001EFFC000
000000008FFF4000
00000002EFFB0000
00000009FFF30000
0000002FFFA00000
000000AFFF200000
000003FFF8000000
00000CFFE1000000
00005FFF70000000
0000DFFE10000000
0006FFF600000000
000DFFD000000000
007FFF5000000000
01EFFC0000000000
08FFF40000000000
2FFFB00000000000
8FFF300000000000
BFF9000000000000
4EC1000000000000
ENDCHAR
STARTCHAR zero
ENCODING 48
SWIDTH 543 0
DWIDTH 15 0
BBX 14 16 1 0
BITMAP
00004BEFEA4000
0009FFFFFFF700
008FFFFFFFFF30
03FFFB218FFFA0
0AFFD0000BFFE0
1FFF700007FFF2
4FFF300005FFF3
6FFF000005FFF2
8FFE000006FFF1
8FFE000008FFE0
8FFF10000CFF90
5FFF50004FFF50
1FFFE414EFFC00
09FFFFFFFFE300
01BFFFFFFE3000
0006CEFD810000
ENDCHAR
STARTCHAR one
ENCODING 49
SWIDTH 376 0
DWIDTH 11 0
BBX 9 17 1 0
BITMAP
0000157400
017CFFFF20
2EFFFFFF30
6FFFFFFF10
2EC8DFFE00
0000FFFB00
0002FFF900
0004FFF700
0007FFF500
0009FFF300
000AFFF100
000CFFE000
000EFFC000
001FFFA000
003FFF8000
004FFF6000
000AFB1000
ENDCHAR
STARTCHAR two
ENCODING 50
SWIDTH 560 0
DWIDTH 16 0
BBX 14 17 1 0
BITMAP
00005BDFEC7000
001BFFFFFFFC10
00BFFFFFFFFF90
04FFFA215FFFE0
09FFD0000BFFF1
0AFF90000AFFF1
07FF60000DFFE0
004400005FFF80
00000002EFFE10
0000001CFFF600
000002CFFF8000
00005EFFF80000
003BFFFE500000
1AFFFFA2000000
8FFFFFFFFFFFE4
AFFFFFFFFFFFF7
6FFFFFFFFFFFC1
ENDCHAR
STARTCHAR three
ENCODING 51
SWIDTH 520 0
DWIDTH 15 0
BBX 14 17 0 0
BITMAP
000049DEFEB500
000AFFFFFFFF90
009FFFFFFFFFF4
02FFFB302AFFF8
04FFE10004FFF9
01EF800007FFF5
001300003EFFC0
0000027BFFFB10
00000BFFFF8000
000009FFFFFB10
000000359FFFB0
09E600000AFFF2
2FFE100009FFF4
3FFFA2126FFFF2
0DFFFFFFFFFFA0
03EFFFFFFFFA10
0017CEFED94000
ENDCHAR
STARTCHAR four
ENCODING 52
SWIDTH 577 0
DWIDTH 16 0
BBX 15 17 1 0
BITMAP
0000037600000000
00004FFF30000000
0000DFFD00000000
0007FFF500000000
001EFFC001CFA000
008FFF4009FFD000
01EFFB000DFFA000
07FFF4002FFF7000
0DFFB0005FFF4000
4FFF50007FFF1000
8FFFFFFFFFFFFE30
9FFFFFFFFFFFFF60
3DFFFFFFFFFFFC10
00000000FFF80000
00000001FFF70000
00000001FFF40000
000000009EB00000
ENDCHAR
STARTCHAR five
ENCODING 53
SWIDTH 518 0
DWIDTH 15 0
BBX 13 16 1 0
BITMAP
03ADEFFFFFFE90
0DFFFFFFFFFFE0
0AFFFFFFFFFF90
00CFFA00000000
00FFF500000000
03FFF100000000
07FFFFEC930000
09FFFFFFFF9000
04DFFFFFFFF900
00000249FFFF20
188000007FFF40
9FF700006FFF40
AFFE6114DFFE10
7FFFFFFFFFF800
0BFFFFFFFF9000
005ADFED940000
ENDCHAR
STARTCHAR six
ENCODING 54
SWIDTH 541 0
DWIDTH 15 0
BBX 14 17 1 0
BITMAP
000017CEFD9200
0004EFFFFFFE40
004FFFFFFFFFE0
01EFFE611AFFF4
08FFF40001EFF6
0DFFB000006FD1
2FFF6000000000
6FFF48DFEB4000
7FFFCFFFFFF600
8FFFFFFFFFFF20
8FFFE511AFFF70
7FFF70001FFF80
5FFF60003FFF70
1EFFD313CFFF20
07FFFFFFFFFA00
00AFFFFFFFB100
0005BEFDA50000
ENDCHAR
STARTCHAR seven
ENCODING 55
SWIDTH 497 0
DWIDTH 14 0
BBX 14 17 1 0
BITMAP
01220000000120
5FFFFEDDDDEFF4
AFFFFFFFFFFFF7
7FFFFFFFFFFFE3
00000004EFFC30
0000006FFFA100
000005FFF90000
00002EFFB00000
0000BFFE100000
0004FFF8000000
000BFFF3000000
001FFFD0000000
005FFF90000000
007FFF70000000
008FFF40000000
007FFF10000000
001CE700000000
ENDCHAR
STARTCHAR eight
ENCODING 56
SWIDTH 512 0
DWIDTH 14 0
BBX 13 17 1 0
BITMAP
00028CEFEB5000
006FFFFFFFFA00
03FFFFFFFFFF50
09FFF6114EFF90
0CFFA0000BFF90
0CFFC0002EFF50
08FFF915EFFB00
01DFFFFFFFA100
002FFFFFFD2000
03DFFEFFFFE300
2EFF912AFFFD00
9FFB00008FFF30
CFF800003FFF40
CFFE5114CFFF20
8FFFFFFFFFF900
1BFFFFFFFFA000
006BEFED940000
ENDCHAR
STARTCHAR nine
ENCODING 57
SWIDTH 541 0
DWIDTH 15 0
BBX 14 17 1 0
BITMAP
00017CEFD92000
003DFFFFFFE400
01DFFFFFFFFE10
08FFF9219FFF80
0DFFD0000EFFD0
0FFF90000DFFF1
0FFFB0001FFFF2
0DFFF613BFFFF1
07FFFFFFFFFFF0
00BFFFFFFCFFE0
0007CEEB4BFFA0
032000001EFF60
AFF400009FFE10
CFFD4129FFF600
8FFFFFFFFFA000
1CFFFFFFFA0000
006BEFDA400000
ENDCHAR
STARTCHAR colon
ENCODING 58
SWIDTH 257 0
DWIDTH 7 0
BBX 7 13 0 0
BITMAP
004CEC40
01EFFFC0
03FFFFE0
01FFFFA0
006DEB20
00000000
00000000
00000000
04CEC400
0EFFFD00
3FFFFE00
1FFFFA00
05DEB200
ENDCHAR
STARTCHAR semicolon
ENCODING 59
SWIDTH 257 0
DWIDTH 7 0
BBX 7 17 0 -4
BITMAP
004CEC40
01EFFFC0
03FFFFE0
01FFFFA0
006DEB20
00000000
00000000
00374000
05FFF400
0BFFF800
0DFFF600
0EFFF200
0FFFC000
2FFF6000
5FFD0000
7FF60000
4EB00000
ENDCHAR
STARTCHAR less
ENCODING 60
SWIDTH 700 0
DWIDTH 20 0
BBX 17 13 2 2
BITMAP
000000000000026400
000000000027CFFF10
000000016CFFFFFE00
000016BFFFFFFEA300
016BFFFFFFEA500000
2EFFFFFEA500000000
9FFFFB510000000000
9FFFFFA40000000000
19EFFFFFE930000000
0016BFFFFFFD720000
0000028DFFFFFF8000
000000004AFFFFE000
000000000016CE7000
ENDCHAR
STARTCHAR equal
ENCODING 61
SWIDTH 700 0
DWIDTH 20 0
BBX 16 9 2 4
BITMAP
0AFFFFFFFFFFFFFB
3FFFFFFFFFFFFFFF
1DFFFFFFFFFFFFF7
0000000000000000
0000000000000000
0000000000000000
7EFFFFFFFFFFFFD1
FFFFFFFFFFFFFFF3
BFFFFFFFFFFFFFA0
ENDCHAR
STARTCHAR greater
ENCODING 62
SWIDTH 700 0
DWIDTH 20 0
BBX 17 13 1 2
BITMAP
001740000000000000
00CFFD820000000000
00DFFFFFC610000000
002AFFFFFFEA400000
000016CFFFFFFD8200
000000028DFFFFFF50
00000000004BFFFFA0
0000000016BFFFFF70
0000016BFFFFFFD700
0016BFFFFFFE930000
08FFFFFFE940000000
1FFFFE940000000000
0CEA50000000000000
ENDCHAR
STARTCHAR question
ENCODING 63
SWIDTH 476 0
DWIDTH 13 0
BBX 14 24 1 0
BITMAP
00005ADFEC9200
001BFFFFFFFF50
009FFFFFFFFFE1
02FFF9214EFFF6
06FFD00008FFF8
07FFB00008FFF7
03FFA0000CFFF4
003610005FFFD0
00000003EFFF40
0000002EFFF700
000001DFFF8000
00000CFFF70000
00008FFF600000
0001FFF6000000
0007FFA0000000
000AFF30000000
000BFC00000000
00037100000000
00000000000000
03CEC400000000
0EFFFD00000000
2FFFFE00000000
1FFFFB00000000
05DEB200000000
ENDCHAR
STARTCHAR at
ENCODING 64
SWIDTH 1015 0
DWIDTH 28 0
BBX 27 29 1 -8
BITMAP
000000000027ACEFFEC830000000
000000004BFFFFFFFFFFFC300000
0000001AFFFFFFFFFFFFFFF70000
000003DFFFFB6310136BFFFF6000
00004EFFFA20000000004EFFE200
0002EFFF60000000000003EFF900
000CFFF5000000000000007FFE10
007FFF70000000000000001FFF40
01EFFC0000006BEE1000000CFF60
07FFF500001CFFFFCC80000BFF70
0DFFD00002DFFFFFFFD0000BFF80
2FFF80000BFFFB3AFFA0000CFF70
6FFF40005FFFA00DFF80000EFF50
9FFF1000CFFE101FFF50003FFF20
BFFD0001FFF8004FFF20007FFE00
DFFC0004FFF4008FFE0000EFF800
DFFB0005FFF300CFFD0009FFF200
DFFC0004FFF607FFFE107FFF7000
CFFD0001EFFFEFFEFFEEFFFB0000
AFFF10007FFFFF86FFFFFFA00000
6FFF500006DFD7006CEEB4000000
2FFFC00000000000000000000000
0AFFF50000000000000000000000
02FFFE3000000000000003840000
007FFFF6000000000004BFFD0000
0008FFFFD842111369EFFFFC0000
00006EFFFFFFFFFFFFFFFFB20000
0000029FFFFFFFFFFFFEA3000000
000000016ACEFFEDB84000000000
ENDCHAR
STARTCHAR A
ENCODING 65
SWIDTH 786 0
DWIDTH 22 0
BBX 25 24 1 0
BITMAP
0000000000169CDEFEDB840000
000000003AFFFFFFFFFFFF6000
00000019FFFFFFFFFFFFFF5000
000002DFFFFC73111258A70000
00002EFFFD4000002530000000
0001DFFFB1000004FFF5000000
000AFFFB00000009FFF7000000
004FFFE10000000CFFF4000000
00CFFF600000000EFFF0000000
04FFFE000000003FFFC0000000
09FFF8000000006FFF90000000
0DFFF400000000AFFF60000000
1FFFF000000000EFFF30000000
4FFFD000000003FFFF00000000
5FFFB000000007FFFD00000000
6FFFB00000000CFFFB00000000
6FFFB00000003FFFF900000000
4FFFD0000000AFFFF800000210
2FFFF1000003FFFFF800003F80
0CFFF800001DFFFFFA0002EF80
06FFFF8115DFF7FFFF415EFF30
00BFFFFFFFFF71EFFFFFFFF500
001AFFFFFFF8005FFFFFFE4000
00005BDFEA300004BEED820000
ENDCHAR
STARTCHAR B
ENCODING 66
SWIDTH 827 0
DWIDTH 23 0
BBX 25 26 0 -2
BITMAP
0000000268BDDEFEDB95100000
000039DFFFFFFFFFFFFFE60000
004BFFFFFFFFFFFFFFFFFFA000
0AFFFFFEA742101248EFFFF800
5FFFF94000000000001BFFFE10
5FF92001100000000002FFFF30
0410009FFC0000000000DFFF40
000002FFFD0000000000FFFF20
000006FFF90000000007FFFC00
000009FFF5000000007FFFF400
00000DFFF10000148DFFFF6000
00002FFFC002DFFFFFFFC30000
00005FFF9006FFFFFF94000000
00008FFF6005FFFFFFD5000000
0000BFFF30000138FFFF600000
0000DFFF100000006FFFE00000
0001FFFD000000000EFFF30000
0003FFFB000000000EFFF30000
0005FFF9000000006FFFF00000
0007FFF800000005EFFF900000
0009FFF7101247CFFFFD100000
000AFFFFFFFFFFFFFFC2000000
000BFFFFFFFFFFFFD600000000
000DFFFEFFFECA730000000000
000BFFE1000000000000000000
00027620000000000000000000
ENDCHAR
STARTCHAR C
ENCODING 67
SWIDTH 686 0
DWIDTH 19 0
BBX 22 24 1 0
BITMAP
0000000039CEFEB6100000
0000003BFFFFFFFFC10000
000006FFFFFFFFFFFB0000
00007FFFFB5114DFFF4000
0004FFFF6000005FFF8000
001EFFF60000002FFF9000
008FFFA00000003FFF8000
01EFFF200000005FFF5000
05FFFB000000004FFE1000
0AFFF60000000005720000
0DFFF30000000000000000
0FFFF10000000000000000
2FFFE00000000000000000
3FFFE00000000000000000
3FFFE00000000000000000
2FFFF10000000000000000
0EFFF50000000000000000
0AFFFB0000000000000000
04FFFF5000000000000010
00BFFFE500000000005BF9
002EFFFFC6310136AEFFFA
0002DFFFFFFFFFFFFFFFE3
000018EFFFFFFFFFFFD820
00000016ADEFFECA730000
ENDCHAR
STARTCHAR D
ENCODING 68
SWIDTH 836 0
DWIDTH 23 0
BBX 22 24 1 0
BITMAP
0000037ADEFFEC84000000
0018DFFFFFFFFFFFD50000
08EFFFFFFFFFFFFFFFA000
7FFFFE96311137DFFFFA00
AFFC500000000009FFFF60
5B500022000000009FFFE1
00001DFFA00000001EFFF5
00006FFF9000000009FFF9
00009FFF5000000006FFFB
0000DFFF1000000004FFFD
0002FFFC0000000004FFFD
0005FFF90000000005FFFC
0008FFF60000000006FFFB
000BFFF30000000009FFF8
000EFFF0000000000DFFF5
002FFFD0000000004FFFF1
005FFFA000000000AFFF90
007FFF8000000005FFFF20
009FFF600000004EFFF800
00BFFF40000006EFFFB000
00DFFF311248DFFFFB1000
00EFFFFFFFFFFFFF800000
00DFFFFFFFFFFFA2000000
0039CDEFEEC95100000000
ENDCHAR
STARTCHAR E
ENCODING 69
SWIDTH 686 0
DWIDTH 19 0
BBX 23 24 0 0
BITMAP
0000000037BDEFEB71000000
0000003BFFFFFFFFFE300000
000005FFFFFFFFFFFFE20000
00005FFFFD62113BFFF90000
0000DFFFA0000001EFFD0000
0004FFFE10000000CFFE0000
0006FFFC00000000DFFD0000
0005FFFC00000000FFF90000
0001FFFF40000000BFD20000
00008FFFE731000002000000
000007EFFFFFE40000000000
000004AFFFFFF60000000000
0003CFFFFFFFD10000000000
005FFFFD7320000000000000
03FFFF700000000000000000
0AFFF9000000000000000000
0EFFF2000000000000000000
1FFFF1000000000000000000
1FFFF4000000000000000100
0CFFFD20000000000016BF90
05FFFFE9521012368CFFFFA0
007FFFFFFFFFFFFFFFFFFE30
0003CFFFFFFFFFFFFFFD8100
0000037ACEFFEEDB96200000
ENDCHAR
STARTCHAR F
ENCODING 70
SWIDTH 712 0
DWIDTH 20 0
BBX 27 24 0 0
BITMAP
00000000369BCEEFFFFEEDCA9500
0000029EFFFFFFFFFFFFFFFFFF20
00007FFFFFFFFFFFFFFFFFFFFE10
0007FFFE953CFFF2000012356200
002FFF90000DFFF1000000000000
006FFE00000EFFF0000000000000
008FFC00001FFFD0000000000000
007FFE00002FFFC0000000000000
004FFF50003FFFB0000000000000
000CFE40005FFF90000000000000
00003100006FFF80000000000000
00000005EFFFFFFFFFFFA0000000
0000000BFFFFFFFFFFFFE0000000
00000006EFFFFFFFFFFE60000000
0000000000EFFF10000000000000
0000000000FFFD00000000000000
0000000003FFFB00000000000000
0000000006FFF800000000000000
8B1000000BFFF300000000000000
FFC100005FFFD000000000000000
EFFC4117FFFF6000000000000000
5FFFFFFFFFFB0000000000000000
05EFFFFFFFB10000000000000000
0017CEFDA5000000000000000000
ENDCHAR
STARTCHAR G
ENCODING 71
SWIDTH 811 0
DWIDTH 23 0
BBX 25 37 1 -13
BITMAP
0000000028BEFEDA4000000000
0000002AFFFFFFFFF900000000
000005EFFFFFFFFFFF70000000
00006FFFFC62127FFFE0000000
0004FFFF70000009FFF4000000
001DFFF700000005FFF6000000
008FFFB000000006FFF5000000
01EFFF2000000008FFF3000000
05FFFB0000000008FFD0000000
0AFFF60000000002AB30000000
0DFFF300000000000000000000
0FFFF100000000000000000000
2FFFE000000000000000000000
3FFFE000000000000000000000
3FFFE00000009FFFFFFC000000
2FFFF1000000FFFFFFFF100000
0EFFF40000009FFFFFFE000000
0AFFFA00000000009FFC000000
04FFFF4000000000BFFA001960
00BFFFE400000000DFF805EFB0
002EFFFFB521125AFFF6AFFF70
0003DFFFFFFFFFFFFFFFFFE600
000019FFFFFFFFFFFFFFFB2000
00000027BDEFDC89FFFE600000
000000000000006FFFD2000000
00000000000008FFFF80000000
0000000000009FFFFF40000000
000000000009FF9FFF10000000
00000000008FF75FFC00000000
0000000004FF809FF800000000
000000000DFC00DFF300000000
000000005FF504FFC000000000
000000009FF10BFF6000000000
00000000BFF27FFE1000000000
00000000AFFFFFF50000000000
000000004FFFFF900000000000
0000000005CEC6000000000000
ENDCHAR
STARTCHAR H
ENCODING 72
SWIDTH 873 0
DWIDTH 24 0
BBX 29 25 -1 0
BITMAP
00000000000000000000005CFD4000
000017CEEB300000000008FFFFE100
0004EFFFFFE2000000006FFFFFF600
007FFFFFFFF900000001EFFA2DF900
06FFE615FFFC00000009FFE10BF900
2EFD2000EFFE0000001FFF700CF800
6FE30000DFFE0000006FFF200EF600
4F500000DFFE000000BFFC004FF200
00000000EFFD000001FFF700BFC000
00000001FFFB000005FFF407FF4000
00000003FFF9000008FFF29FF90000
00000005FFF700000BFFFEFFA00000
00000007FFF955667EFFFFF7000000
0001BFFFFFFFFFFFFFFFF920000000
0004FFFFFFFFFFFFFFFF8000000000
0002DFFFFFDA97646FFF8000000000
0000005FFF8000005FFF7000000000
0000009FFF5000005FFF8000000000
000000CFFF2000004FFF9000000020
000001FFFD0000002FFFC000000BE0
000004FFFA0000000DFFF20000AFF0
000008FFF600000008FFFC314BFF90
00000BFFF200000001EFFFFFFFFB00
00000DFFC0000000003EFFFFFF9000
000007ED3000000000029DFDA30000
ENDCHAR
STARTCHAR I
ENCODING 73
SWIDTH 495 0
DWIDTH 14 0
BBX 17 24 -1 0
BITMAP
00007DFFFFFFFFFD40
0001FFFFFFFFFFFF70
0001CFFFFFFFFFFB10
00000002FFFD000000
00000004FFFB000000
00000006FFF8000000
00000008FFF6000000
0000000BFFF3000000
0000000DFFF1000000
0000000FFFE0000000
0000002FFFB0000000
0000005FFF90000000
0000007FFF70000000
000000AFFF40000000
000000CFFF20000000
000000EFFF00000000
000001FFFD00000000
000004FFFB00000000
000006FFF900000000
000008FFF700000000
00000AFFF500000000
07DFFFFFFFFFC20000
5FFFFFFFFFFFF50000
3EFFFFFFFFFEA10000
ENDCHAR
STARTCHAR J
ENCODING 74
SWIDTH 743 0
DWIDTH 21 0
BBX 20 26 2 -2
BITMAP
0000158BDEEFEEDB9720
002AFFFFFFFFFFFFFFF4
05EFFFFFFFFFFFFFFFF6
3FFFFA63210123FFFF71
AFFD2000000002FFFD00
EFF70000000003FFFB00
FFF60000000005FFF900
DFFA0000000007FFF700
9FFF0000000009FFF400
2CE7000000000BFFF200
0000000000000DFFE000
000000000028EFFFC000
0000000029FFFFFF9000
00000007EFFFFFFF6000
000002CFFFD59FFF2000
00002EFFF700DFFD0000
0002DFFE3001FFF90000
000BFFE20006FFF40000
004FFF60000BFFD00000
009FFE00002FFF800000
00CFFB00009FFE100000
00DFFC0004FFF8000000
00CFFF416EFFD1000000
007FFFFFFFFE30000000
000BFFFFFFD300000000
00007DFFC71000000000
ENDCHAR
STARTCHAR K
ENCODING 75
SWIDTH 937 0
DWIDTH 26 0
BBX 30 24 0 0
BITMAP
00000059CEFEDB7300000004DE8000
00004DFFFFFFFFFF5000000EFFE000
0006FFFFFFFFFFFF8000005FFFB000
003FFFD6211BFFFC200000AFFF6000
00AFFC10000CFFF3000001FFFF1000
00FFF500000EFFF1000007FFF90000
02FFF300001FFFE000001EFFF20000
01FFF400002FFFB000008FFF900000
00EFF900004FFF900003FFFD100000
008FFC00006FFF70002EFFF3000000
002CD400008FFF5004EFFF40000000
0000000000AFFF55BFFFE400000000
000000009FFFFFFFFFFA2000000000
00000000EFFFFFFFFB300000000000
000000009FFFFFFFFFB10000000000
0000000004FFF93CFFFC1000000000
0000000006FFF701EFFF8000000000
0000000009FFF4006FFFF200000000
0BD200000DFFF1000DFFF9000000B9
3FFC10005FFFB00006FFFF30000BFC
2FFFB315EFFF500000DFFFE513CFF7
0AFFFFFFFFFB0000003FFFFFFFFF90
01BFFFFFFFC100000006FFFFFFF800
0005BDFEB600000000004BEFD93000
ENDCHAR
STARTCHAR L
ENCODING 76
SWIDTH 673 0
DWIDTH 19 0
BBX 25 24 -2 0
BITMAP
00000000000049DEFEB6000000
00000000003CFFFFFFFFC10000
0000000005FFFFFFFFFFFB0000
000000004FFFFA4115EFFF3000
00000001EFFF7000006FFF7000
00000007FFFB0000003FFF8000
0000000DFFF40000004FFF7000
0000002FFFE00000006FFF4000
0000004FFFB00000004FFC0000
0000006FFF9000000003400000
0000008FFF7000000000000000
0000009FFF6000000000000000
0000009FFF4000000000000000
000000AFFF3000000000000000
000000BFFF1000000000000000
000000CFFF0000000000000000
000000DFFD0000000000000000
000000EFFB0000000000001820
003ADFFFFD741000000001CF60
06FFFFFFFFFFFD9621137EFF50
0EFFFFFFFFFFFFFFFFFFFFFC00
1FFFFFFF78EFFFFFFFFFFFD200
0CFFFFFA0006CFFFFFFFFC2000
019DEC600000038CEFDB500000
ENDCHAR
STARTCHAR M
ENCODING 77
SWIDTH 1232 0
DWIDTH 35 0
BBX 39 24 0 0
BITMAP
00005BEEA1000029DFD80000018CEEA200000000
002CFFFFFB0006FFFFFFA0004EFFFFFE10000000
03EFFFFFFF106FFFFFFFF304FFFFFFFF80000000
2DFF827FFF32FFC416FFF71DFD419FFFC0000000
AFF5004FFF3BFC1000EFF88FD1002FFFE0000000
FF70004FFF5FE20000DFF9EF30002FFFE0000000
9800006FFEBF700000EFFDF900003FFFC0000000
0000007FFEFE100001FFFFF200006FFFA0000000
0000009FFFF8000003FFFFB000009FFF70000000
000000BFFFF2000005FFFF500000CFFF40000000
000000DFFFC0000008FFFE100001FFFF10000000
000000FFFF7000000AFFFB000004FFFD00000000
000003FFFF3000000DFFF6000007FFFA00000000
000005FFFE0000001FFFF300000AFFF700000000
000007FFFB0000003FFFE000000DFFF300000000
00000AFFF80000006FFFB000001FFFF100000000
00000CFFF50000008FFF8000003FFFC000000000
00000FFFF2000000BFFF6000005FFFA000000200
00002FFFE0000000EFFF3000005FFF900000BE00
00004FFFC0000001FFFF1000005FFFB00009FF10
00006FFFA0000002FFFE0000002FFFF613BFFA00
00006FFF80000003FFFC0000000BFFFFFFFFB100
00005FFF50000002FFF900000002DFFFFFF91000
00001CFB00000000AEC20000000019DFEA400000
ENDCHAR
STARTCHAR N
ENCODING 78
SWIDTH 884 0
DWIDTH 25 0
BBX 29 24 0 0
BITMAP
00005BDEC3000004ADFEA300000000
002CFFFFFD0001AFFFFFFE30000000
02EFFFFFFF400BFFFFFFFFB0000000
2DFF827FFF609FF8217FFFF1000000
AFF5004FFF64FF40000EFFF3000000
FF70005FFF5CF600000DFFF3000000
9800006FFF8FB000000EFFF1000000
0000008FFFCF3000002FFFE0000000
000000AFFFFB0000005FFFB0000000
000000CFFFF40000008FFF80000000
000000EFFFD0000000CFFF50000000
000001FFFF90000000EFFF20000000
000003FFFF40000003FFFD00000000
000005FFFF00000006FFFA00000000
000007FFFB00000009FFF700000000
00000AFFF80000000CFFF400000000
00000CFFF50000000EFFF100000000
00000EFFF20000001FFFE000000200
00002FFFE00000001FFFD000007F40
00004FFFC00000001FFFF00005FF40
00006FFFA00000000DFFF9128FFD10
00006FFF8000000007FFFFFFFFD200
00005FFF5000000000BFFFFFFC2000
00001CFB000000000007CEEB600000
ENDCHAR
STARTCHAR O
ENCODING 79
SWIDTH 816 0
DWIDTH 23 0
BBX 22 24 1 0
BITMAP
0000000038CEFEC8200000
0000003BFFFFFFFFF80000
000006FFFFFFFFFFFFB000
00006FFFFA4113AFFFF800
0004FFFF50000007FFFF30
001DFFF600000000BFFF90
007FFFA0000000005FFFE0
00EFFF20000000001FFFF2
05FFFC00000000000DFFF4
09FFF800000000000CFFF5
0DFFF400000000000CFFF5
0FFFF100000000000DFFF4
2FFFF000000000000EFFF2
3FFFE000000000002FFFE0
3FFFE000000000006FFFB0
2FFFF000000000009FFF70
0FFFF20000000001EFFF10
0CFFF70000000008FFF900
08FFFD000000003FFFE200
01EFFF90000004EFFF6000
007FFFFB41149FFFF80000
0009FFFFFFFFFFFF800000
00007EFFFFFFFFC4000000
0000017BEFEC9400000000
ENDCHAR
STARTCHAR P
ENCODING 80
SWIDTH 805 0
DWIDTH 23 0
BBX 22 26 1 -2
BITMAP
00000000038BEFEDA51000
00000005DFFFFFFFFFD400
000001AFFFFFFFFFFFFF50
00001CFFFC621137EFFFE2
0001CFFE600000003EFFF8
0009FFE30000000007FFFD
003FFF5003CFB00003FFFF
00CFFA000BFFF10002FFFF
03FFF2000EFFF00003FFFE
09FFA0002FFFC00007FFFA
0DFF50005FFF90000DFFF4
2FFF10008FFF7000AFFFB0
5FFD0000AFFF404CFFFE20
7FFA03CBEFFFCEFFFFD200
9FF808FFFFFFFFFFF81000
AFF703CFFFFFEDB7100000
AFF60006FFF80000000000
AFF60009FFF50000000000
9FF7000CFFF20000000000
8FF9000EFFE00000000000
4FFD002FFFC00000000000
1EFF305FFF900000000000
09FFC2BFFF600000000000
01EFFFFFFF100000000000
003EFFFFF8000000000000
00018DFD70000000000000
ENDCHAR
STARTCHAR Q
ENCODING 81
SWIDTH 816 0
DWIDTH 23 0
BBX 24 32 1 -8
BITMAP
0000000049CEFEC820000000
0000003CFFFFFFFFF9000000
000007FFFFFFFFFFFFB10000
00008FFFFA41139FFFF90000
0005FFFF50000006FFFF4000
001EFFF500000000AFFFA000
009FFF90000000004FFFE000
01EFFF20000000000FFFF300
06FFFB00000000000DFFF400
0AFFF600000000000CFFF500
0DFFF300000000000CFFF400
1FFFF100000000000EFFF300
2FFFF000000000000FFFF100
3FFFE000000000004FFFE000
2FFFF000000000008FFFA000
1FFFF10000000000DFFF5000
0EFFF50000000005FFFD0000
0AFFFB000000002EFFF50000
04FFFF60000002CFFFB00000
00BFFFF920027EFFFD100000
001DFFFFFEEFFFFFD2000000
0002BFFFFFFFFFFA10000000
000005BFFFFFFA4000000000
000000016EFFFC1000000000
0000000003FFFF8000000000
00000000009FFFF100000000
00000000002FFFF8000000C9
000000000009FFFE20000AF9
000000000002FFFFD413BFF3
0000000000008FFFFFFFFF70
0000000000000AFFFFFFF700
000000000000005BEFD93000
ENDCHAR
STARTCHAR R
ENCODING 82
SWIDTH 880 0
DWIDTH 25 0
BBX 28 24 1 0
BITMAP
0000000016ADEFEDA51000000000
00000018FFFFFFFFFFD400000000
000004EFFFFFFFFFFFFF50000000
00005FFFF9421139FFFFE1000000
0003FFFB200000005FFFF6000000
001DFFA0017830000BFFF9000000
008FFD000CFFC00008FFFA000000
01EFF4002FFFC00009FFF8000000
06FFB0005FFF90000CFFF4000000
0BFF60008FFF70005FFFD0000000
0EFF2000AFFF4003EFFF40000000
2FFE0000DFFF239FFFF500000000
4FFB009FFFFFFFFFFC3000000000
6FFA00FFFFFFFFFB400000000000
6FF900AFFFFFFFFE700000000000
6FF90007FFF66FFFF70000000000
5FFA000AFFF307FFFF2000000000
4FFC000DFFF100DFFF9000000030
1FFF100FFFD0005FFFF2000009F2
0BFF603FFFA0000DFFFA00007FF3
04FFE38FFF800005FFFF9229FFC0
00BFFFFFFF400000AFFFFFFFFD10
001CFFFFFC0000001CFFFFFFB100
00007CFEA1000000017CEEB50000
ENDCHAR
STARTCHAR S
ENCODING 83
SWIDTH 693 0
DWIDTH 19 0
BBX 19 24 1 0
BITMAP
00000038CDEEDA610000
00003BFFFFFFFFFE5000
0004FFFFFFFFFFFFF600
002EFFFA420149FFFE10
009FFF700000008FFF50
00EFFE000000004FFF60
01FFFD000000005FFF50
00FFFF100000006FFF20
00CFFFB10000001CE700
006FFFFD500000000000
000BFFFFFD7100000000
0001AFFFFFFE92000000
000005CFFFFFFF910000
00000004AFFFFFFC1000
00000000028EFFFF9000
2BC400000001BFFFF200
BFFB000000000DFFF400
FFFA0000000008FFF500
FFF90000000009FFF300
EFFD100000003EFFE000
9FFFD6210148EFFF7000
1EFFFFFFFFFFFFFA0000
02BFFFFFFFFFFE600000
00038CEFFECA51000000
ENDCHAR
STARTCHAR T
ENCODING 84
SWIDTH 697 0
DWIDTH 20 0
BBX 25 24 1 0
BITMAP
00000268ACDEEFFFFFFFEDB600
0017DFFFFFFFFFFFFFFFFFFF30
04EFFFFFFFFFFFFFFFFFFFFE10
2EFFE953119FFF600001233100
AFFD200000CFFF300000000000
EFF7000000FFFF100000000000
FFF5000003FFFD000000000000
EFF9000006FFFA000000000000
9FFE000008FFF7000000000000
1DE600000BFFF5000000000000
000000000EFFF2000000000000
000000001FFFE0000000000000
000000004FFFC0000000000000
000000006FFF90000000000000
000000008FFF70000000000000
00000000BFFF40000000000000
00000000DFFF20000000000000
00000000FFFF00000000000000
00000003FFFD00000000000000
00000005FFFB00000000000000
00000007FFFA00000000000000
00000008FFF800000000000000
00000008FFF600000000000000
00000002CEB100000000000000
ENDCHAR
STARTCHAR U
ENCODING 85
SWIDTH 890 0
DWIDTH 25 0
BBX 29 24 0 0
BITMAP
00004ADFD60000000001CEA0000000
002BFFFFFF6000000006FFF3000000
02EFFFFFFFD000000009FFF5000000
1DFFA33FFFF10000000BFFF4000000
9FF7000EFFF10000000EFFF3000000
EF90000FFFF00000001FFFF1000000
CB00002FFFE00000003FFFD0000000
0000004FFFC00000006FFFB0000000
0000007FFF900000009FFF80000000
000000BFFF60000000DFFF60000000
000000EFFF30000002FFFF40000000
000002FFFE00000006FFFF10000000
000005FFFB0000000AFFFE00000000
000008FFF80000001FFFFC00000000
00000CFFF50000006FFFFA00000000
00000EFFF1000000DFFFF800000000
00003FFFD0000005FDFFF600000000
00005FFFA000001DF9FFF400000000
00006FFF9000009F99FFF300003D50
00007FFFA00007FE2AFFF50003EF70
00005FFFF413AFF609FFFC216EFF30
00001EFFFFFFFF9005FFFFFFFFF500
000006FFFFFFF80000BFFFFFFD4000
0000004BEFD930000007CEEC710000
ENDCHAR
STARTCHAR V
ENCODING 86
SWIDTH 763 0
DWIDTH 21 0
BBX 23 24 3 0
BITMAP
02CEB000000029DFC5000000
09FFF4000003EFFFFF400000
0DFFF300000DFFFFFFC00000
0FFFF100005FFB2AFFF10000
2FFFE00000AFF304FFF30000
4FFFC00000CFF004FFF20000
5FFFA00000DFE005FFF10000
7FFF900000CFF007FFE00000
7FFF800000BFF40BFFB00000
8FFF7000007FFB1EFF800000
8FFF6000001FFFCFFF300000
8FFF60000007FFFFFE311000
8FFF600000008FFFFFFFFE30
8FFF700000000AFFFFFFFF50
7FFF800000002EFFDBDEFB10
5FFF90000000AFFF30000000
3FFFC0000005FFF900000000
1FFFF100002EFFE100000000
0CFFF60002DFFF5000000000
08FFFE315EFFF80000000000
02FFFFFFFFFFA00000000000
00AFFFFFFFF9000000000000
001DFFFFFE70000000000000
00019DED8200000000000000
ENDCHAR
STARTCHAR W
ENCODING 87
SWIDTH 1217 0
DWIDTH 34 0
BBX 36 24 3 0
BITMAP
02CEB0000000002BFC10000004BEEA200000
0AFFF3000000009FFF4000007FFFFFE10000
0DFFF300000000DFFF300003FFFFFFF80000
0FFFF100000001FFFF10000AFF72DFFC0000
2FFFE000000004FFFE00000EFE009FFE0000
3FFFC000000007FFFC00001FFB008FFD0000
5FFFA00000000AFFFA00002FFA009FFC0000
7FFF900000000EFFF900002FFB00BFFA0000
7FFF800000002FFFF900000FFE00EFF70000
8FFF700000006FFFF800000BFF74FFF40000
9FFF60000000BFFFF8000005FFFCFFE00000
9FFF50000001FFFFF7000000BFFFFFB21000
9FFF50000006FFFFF70000001BFFFFFFFFD1
8FFF6000000BFFFFF800000000EFFFFFFFF1
8FFF6000002FFFFFF800000005FFFCCEFE80
6FFF8000009FFCDFF90000000DFFD0000000
4FFFA00002FFF6BFFB0000009FFF60000000
2FFFD0000AFFE19FFE000005FFFB00000000
0EFFF3005FFF707FFF40003EFFE200000000
09FFFB15EFFD003FFFD316EFFF5000000000
04FFFFFFFFF4000DFFFFFFFFF60000000000
00CFFFFFFF700007FFFFFFFF700000000000
003EFFFFF7000000CFFFFFE5000000000000
0003BEEA3000000019EEC710000000000000
ENDCHAR
STARTCHAR X
ENCODING 88
SWIDTH 712 0
DWIDTH 20 0
BBX 25 24 -1 0
BITMAP
00003ADFE9200000001AEE5000
0009FFFFFFE3000001CFFF7000
00BFFFFFFFFC00000AFFFD1000
08FFB317FFFF50008FFFE20000
0DF900008FFFB005FFFF300000
057000001FFFF13FFFF5000000
000000000BFFF6EFFF70000000
0000000006FFFFFFF900000000
0000000002FFFFFFB000000000
0000000000DFFFFC1000000000
0000000000AFFFE20000000000
0000000002EFFFA00000000000
000000001DFFFFE00000000000
00000001CFFFFFF30000000000
0000000BFFFFFFF70000000000
0000009FFFD5FFFB0000000000
000007FFFE20EFFF0000000000
00005FFFF500BFFF4000000200
0003FFFF70006FFF9000004F60
002EFFFA00002FFFE10004EF70
01DFFFC100000AFFFA217FFE20
0BFFFE20000003FFFFFFFFF400
5FFFF4000000007FFFFFFD3000
2DFC500000000004BEED810000
ENDCHAR
STARTCHAR Y
ENCODING 89
SWIDTH 851 0
DWIDTH 24 0
BBX 27 32 0 -8
BITMAP
00005BDFD70000000001BEC10000
002CFFFFFF6000000006FFF60000
03EFFFFFFFD000000009FFF60000
2EFF923FFFF00000000CFFF40000
AFF6000EFFF10000000EFFF20000
FF60000FFFF00000002FFFF00000
8700002FFFD00000005FFFD00000
0000005FFFB00000008FFFA00000
0000008FFF80000000CFFF800000
000000CFFF50000002FFFF600000
000000FFFF10000007FFFF300000
000003FFFD0000000DFFFF100000
000006FFF90000006FFFFE000000
000008FFF7000001DFEFFC000000
000009FFF6000009FBEFF9000000
000009FFF800007FF5FFF7000000
000007FFFE413AFF84FFF5000000
000002FFFFFFFFFB06FFF458BEA0
0000006FFFFFFF9008FFFFFFFFC0
00000004BEFDA305AFFFFFFFFD50
00000000000017DFFFFFEB841000
000000000007EFFEAFFF90000000
0000000002CFFE714FFF60000000
000000003EFF91006FFF30000000
00000001EFF60000AFFE00000000
00000009FFA00001EFF900000000
0000001EFF400007FFF400000000
0000003FFF30002EFFB000000000
0000003FFFB215EFFF3000000000
0000000EFFFFFFFFF50000000000
00000005FFFFFFFE500000000000
000000004AEFEC71000000000000
ENDCHAR
STARTCHAR Z
ENCODING 90
SWIDTH 721 0
DWIDTH 20 0
BBX 24 24 0 0
BITMAP
00000159BDEFEDDCA8630000
00007EFFFFFFFFFFFFFFE500
001CFFFFFFFFFFFFFFFFFB00
009FFFC631101246FFFFF700
01FFF90000000008FFFD1000
04FFF1000000002FFFF40000
05FFF100000000BFFF900000
03FFF500000005FFFE100000
00CFF90000001EFFF5000000
002BB3000000AFFFB0000000
000000000005FFFE20000000
00000000001EFFF600000000
0000000000BFFFB000000000
0000000006FFFE2000000000
000000002EFFF60000000000
00000001DFFFA00000000000
0000000AFFFE100000000000
0000006FFFF4000000000065
017CEFFFFFC30000000008FB
1CFFFFFFFFFFEA731025CFFA
6FFFFFFFFFFFFFFFFFFFFFF3
8FFFFFFE7CFFFFFFFFFFFF50
3FFFFFE3003AFFFFFFFFE500
05CEE920000016BEFEC71000
ENDCHAR
STARTCHAR bracketleft
ENCODING 91
SWIDTH 405 0
DWIDTH 11 0
BBX 13 28 1 -2
BITMAP
00002BEFFFFE80
00009FFFFFFFD0
0000EFFFFFFF80
0001FFFA000000
0003FFF8000000
0005FFF6000000
0007FFF4000000
000AFFF2000000
000CFFF0000000
000EFFD0000000
001FFFB0000000
003FFF90000000
005FFF70000000
007FFF50000000
009FFF30000000
00BFFF10000000
00DFFE00000000
00FFFC00000000
02FFFA00000000
04FFF800000000
06FFF600000000
08FFF400000000
0AFFF200000000
0CFFF000000000
0EFFE000000000
1FFFFFFFE70000
1FFFFFFFFC0000
07EFFFFFE50000
ENDCHAR
STARTCHAR backslash
ENCODING 92
SWIDTH 509 0
DWIDTH 14 0
BBX 10 26 3 0
BITMAP
4EC1000000
DFF7000000
EFFB000000
BFFF100000
6FFF500000
2FFF900000
0DFFD00000
08FFF30000
04FFF70000
00EFFB0000
00AFFF1000
006FFF5000
002FFF9000
000CFFE000
0008FFF300
0004FFF700
0000EFFC00
0000AFFF10
00006FFF50
00001FFFA0
00000CFFE0
000008FFF3
000003FFF8
000000EFFC
0000009FFB
0000002DD3
ENDCHAR
STARTCHAR bracketright
ENCODING 93
SWIDTH 405 0
DWIDTH 11 0
BBX 13 28 -2 -2
BITMAP
0000AEFFFFFC20
0003FFFFFFFF90
0001CFFFFFFFA0
000000005FFF80
000000006FFF60
000000008FFF40
00000000AFFF20
00000000CFFF10
00000000EFFE00
00000001FFFC00
00000003FFF900
00000005FFF700
00000007FFF500
00000009FFF300
0000000BFFF100
0000000DFFE000
0000000FFFC000
0000002FFFA000
0000005FFF8000
0000007FFF6000
0000009FFF3000
000000BFFF1000
000000CFFE0000
000000EFFC0000
000001FFFA0000
1CFFFFFFF70000
5FFFFFFFF30000
1CFFFFFE700000
ENDCHAR
STARTCHAR asciicircum
ENCODING 94
SWIDTH 700 0
DWIDTH 20 0
BBX 15 15 2 1
BITMAP
0000000165000000
0000000BFF600000
0000005FFFB00000
000000DFFFF10000
000007FFFFF60000
00001EFF7FFA0000
00009FFA0EFE1000
0003FFF20AFF5000
000BFF8005FFA000
005FFE1001FFE000
00DFF70000BFF400
07FFD000006FF900
1EFF5000002FFE00
6FFC0000000CFF20
4EC200000004EA00
ENDCHAR
STARTCHAR underscore
ENCODING 95
SWIDTH 354 0
DWIDTH 10 0
BBX 11 3 -1 -3
BITMAP
5EFFFFFFFC00
AFFFFFFFFF20
4EFFFFFFFB00
ENDCHAR
STARTCHAR grave
ENCODING 96
SWIDTH 600 0
DWIDTH 17 0
BBX 7 9 3 15
BITMAP
05610000
5FFA0000
8FFF2000
3FFF9000
08FFE100
00BFF700
001DFD00
0003FF50
00006E40
ENDCHAR
STARTCHAR a
ENCODING 97
SWIDTH 470 0
DWIDTH 13 0
BBX 16 13 1 0
BITMAP
00003AEF50000000
0008FFFFDCB10000
00AFFFFFFFF20000
06FFFD55FFF00000
1EFFD108FFD00000
7FFF400BFFA00000
CFFC000EFF700000
EFF9003FFF4002D9
FFF8008FFF301DFB
EFFC15FFFF53DFF6
AFFFFFFDFFFFFF80
3FFFFFA2EFFFF700
04CFD8003CEB4000
ENDCHAR
STARTCHAR b
ENCODING 98
SWIDTH 473 0
DWIDTH 13 0
BBX 16 26 1 0
BITMAP
0000018DE9000000
00001CFFFF600000
0000AFFFFFC00000
0004FFD2EFE00000
000BFF50BFE00000
003FFE00BFD00000
009FFA00EFB00000
00DFF603FF600000
03FFF308FF200000
07FFF00EFA000000
0AFFC06FF2000000
0CFFA0DF80000000
0EFF86FC00000000
2FFF7EFC81000000
4FFFCFFFFE300000
5FFFFFDFFFC00000
6FFFE34FFFF50000
7FFF803FFFF91376
6FFF300EFFFFFFFE
6FFF1006FFFFFFFD
4FFF2000AFFFEC92
1FFF5000DFF40000
0CFFD32AFFD00000
05FFFFFFFF400000
00AFFFFFF6000000
0006CEEB40000000
ENDCHAR
STARTCHAR c
ENCODING 99
SWIDTH 368 0
DWIDTH 10 0
BBX 14 13 0 0
BITMAP
00004BEEB20000
0008FFFFFD0000
008FFFFFFF4000
03FFFB28FF5000
09FFE109FF2000
0DFFA008F80000
0FFF7000000012
1FFF80000002DC
0FFFB000004EFD
0CFFF8214AFFF7
05FFFFFFFFFF80
007FFFFFFFE500
0004AEFEB61000
ENDCHAR
STARTCHAR d
ENCODING 100
SWIDTH 515 0
DWIDTH 14 0
BBX 17 26 1 0
BITMAP
000000000005DE9000
00000000006FFFF700
0000000001EFFFFD00
0000000008FF7BFF00
000000000EFE17FF00
000000004FFB07FF00
000000009FF708FD00
00000000CFF40AFA00
00000001FFF20EF700
00000004FFF02FF300
00000006FFD07FD000
00000008FFC0CF8000
0000000AFFA2FF2000
00003AEFFF99FB0000
0009FFFFFF9EF40000
00AFFFFFFFDFC00000
07FFFB2EFFFF500000
2FFFB00FFFFC000000
7FFF200FFFF4000000
CFFB000EFFB0000120
EFF8000CFF70001CE0
FFF8001DFF9000BFE0
EFFD23CFFFE33CFF90
AFFFFFFDDFFFFFFB00
2EFFFFE25FFFFF9000
03BEEA2005DEB40000
ENDCHAR
STARTCHAR e
ENCODING 101
SWIDTH 393 0
DWIDTH 11 0
BBX 15 13 0 0
BITMAP
00004BDEC4000000
0009FFFFFF400000
008FFFFFFFA00000
03FFF916FFC00000
09FFD003FFB00000
0DFF701CFF500000
0FFF87EFF9000310
1FFFFFFE60006F80
0EFFE9500019FF80
0AFFF72137EFFE30
03FFFFFFFFFFE400
005FFFFFFFFB2000
00029DEFDA400000
ENDCHAR
STARTCHAR f
ENCODING 102
SWIDTH 371 0
DWIDTH 10 0
BBX 13 35 1 -9
BITMAP
00000006DE9000
0000009FFFF700
000007FFFFFD00
00002FFE3CFF00
0000AFF809FF10
0002FFF20AFF00
0008FFC00CFC00
000EFF701FF900
004FFF305FF400
009FFE00AFD000
00DFFA02FF6000
01FFF709FC0000
05FFF43FF30000
08FFF1DF800000
0BFFDAFB000000
0EFFFFD1000000
1FFFFE20000000
3FFFE300000000
4FFF4000000000
5FFF29FFFFFF30
7FFF5FFFFFFF30
7FFF6FFDFEC600
8FFE3FF1000000
8FFE1FF3000000
8FFE0DF5000000
8FFF0AF7000000
7FFF08F9000000
6FFF17FA000000
5FFF16FB000000
3FFF26FB000000
1FFF47FA000000
0DFF7BF7000000
08FFFFF3000000
02EFFFA0000000
004DEA10000000
ENDCHAR
STARTCHAR g
ENCODING 103
SWIDTH 479 0
DWIDTH 13 0
BBX 17 26 0 -13
BITMAP
000003AEF500000000
00008FFFFDCB000000
000AFFFFFFFF100000
006FFFD56FFE000000
01EFFD108FFC000000
07FFF400BFF9000000
0CFFC000EFF6000100
0EFF9003FFF4019F50
0FFF8008FFF16EFF60
0EFFC15FFFFBFFFC10
0AFFFFFFFFFFFF8000
03FFFFFDFFFFD40000
004CFD7BFFF9100000
000001CFFF60000000
00002DFFFF20000000
0003EFFFFD00000000
002EFE9FFA00000000
01DFE39FF600000000
09FF40DFF200000000
3FF803FFC000000000
9FE109FF7000000000
EFC02EFF1000000000
FFD1BFF90000000000
EFFFFFE10000000000
8FFFFF400000000000
08DEB3000000000000
ENDCHAR
STARTCHAR h
ENCODING 104
SWIDTH 502 0
DWIDTH 14 0
BBX 17 26 1 0
BITMAP
0000018DE900000000
00001BFFFF60000000
00009FFFFFD0000000
0003FFD2DFF0000000
000AFF60AFF0000000
001FFE10BFD0000000
007FFA00EFA0000000
00BFF603FF50000000
01FFF209FE10000000
04FFE02FF700000000
08FFB0BFD000000000
0AFF96FF4000000000
0CFF9EF70000000000
0EFFFFB07DE8000000
2FFFFD2CFFFF000000
4FFFE2BFFFFF000000
4FFF37FFFFFD000000
5FFF2FF8CFFB000000
6FFE9FA0CFF7000000
7FFFEF20FFF4000210
7FFFFA03FFF1004F90
7FFFF405FFE003EF90
8FFFE007FFF25EFF30
8FFF9006FFFFFFF500
7FFF3002FFFFFE4000
2EE600005DED810000
ENDCHAR
STARTCHAR i
ENCODING 105
SWIDTH 246 0
DWIDTH 7 0
BBX 10 19 1 0
BITMAP
006DEC2000
03FFFF9000
04FFFF7000
009EEA1000
0000000000
0000000000
01CFA00000
08FFD00000
0CFFA00000
1FFF800000
4FFF500000
6FFF100000
8FFE000030
AFFB0006F6
AFFB005FF6
9FFE26FFE1
6FFFFFFE30
0EFFFFE300
03CFD81000
ENDCHAR
STARTCHAR j
ENCODING 106
SWIDTH 254 0
DWIDTH 7 0
BBX 18 32 -7 -13
BITMAP
0000000003BED50000
000000000DFFFE0000
000000000EFFFC0000
0000000005DEC30000
000000000000000000
000000000000000000
0000000003DFA00000
000000000AFFC00000
000000000CFFB00000
000000000EFF900000
000000000FFF700000
000000002FFF500000
000000004FFF200010
000000006FFF002BF1
000000007FFD06EFF2
000000009FFBAFFF90
00000000BFFFFFE500
00000000DFFFFA1000
00000000EFFE600000
0000001AFFF2000000
000002DFFFD0000000
00003EFFFFA0000000
0003EFCCFF60000000
002EFC1EFF20000000
00CFD13FFD00000000
06FF407FF800000000
0DFB00DFF300000000
3FF705FFC000000000
5FF82EFF5000000000
4FFFFFFB0000000000
0DFFFFD10000000000
02AED9100000000000
ENDCHAR
STARTCHAR k
ENCODING 107
SWIDTH 525 0
DWIDTH 15 0
BBX 18 26 1 0
BITMAP
0000018DE900000000
00001BFFFF70000000
00009FFFFFD0000000
0003FFD2DFF0000000
000AFF60AFF0000000
001FFE10BFD0000000
007FFA00EFA0000000
00BFF603FF40000000
01FFF209FD00000000
04FFE02FF500000000
08FFB0BFB000000000
0AFF96FE2000000000
0CFF9FF40000000000
0EFFFF718DEB200000
2FFFF92CFFFFC00000
4FFFA1DFFFFFF40000
4FFF19FD35FFF50000
5FFF3FF304FFF20000
6FFEAF800BFFC00000
7FFFFE14CFFE300160
7FFFF85FFFD3000BF4
6FFFF29FFF10009FF3
6FFFC07FFFA12AFFB0
5FFF802FFFFFFFFD10
2FFF4007FFFFFFC100
09EA00005BEEC60000
ENDCHAR
STARTCHAR l
ENCODING 108
SWIDTH 326 0
DWIDTH 9 0
BBX 12 26 1 0
BITMAP
0000018DE800
00001CFFFF50
00009FFFFFB0
0003FFD2EFE0
000AFF60BFF0
002FFE10BFE0
007FFA00CFD0
00CFF600EFA0
02FFF202FF70
05FFE006FF30
09FFA00BFD00
0BFF802FF700
0EFF609FF200
1FFF41EF9000
3FFF27FF2000
4FFF2EF90000
5FFF9FE20000
6FFFFF700000
7FFFFC000000
6FFFF3000011
4FFF700003E9
1FFF50003EFA
0CFFC216EFF4
06FFFFFFFF60
00BFFFFFE500
0018DFD92000
ENDCHAR
STARTCHAR m
ENCODING 109
SWIDTH 744 0
DWIDTH 21 0
BBX 24 13 1 0
BITMAP
01BEB002AED30019EE500000
08FFB04EFFF803DFFFC00000
0CFF72EFFFF82EFFFFC00000
1FFF4CFFFFF5BFFFFFA00000
4FFF6FE6FFF7FF6FFF700000
6FFDCF62FFECF71FFF400000
8FFEFC04FFFFD03FFF100030
8FFFF606FFFF606FFD0007F5
9FFFF107FFFF109FFB005FF5
8FFFB009FFFB00AFFD17FFE1
7FFF6008FFF5009FFFFFFE30
4FFF2005FFF1005FFFFFD200
0BE80000BE700008DEC71000
ENDCHAR
STARTCHAR n
ENCODING 110
SWIDTH 496 0
DWIDTH 14 0
BBX 17 13 1 0
BITMAP
01BEB0018EE6000000
08FFB02DFFFD000000
0CFF71DFFFFD000000
1FFF4AFFFFFB000000
4FFF5FF7EFF8000000
6FFDBF80FFF5000000
8FFEFE12FFF2000300
8FFFF705FFE0006F60
9FFFF108FFC005FF60
8FFFA009FFD16FFE10
7FFF6009FFFFFFE300
4FFF2005FFFFFD3000
0BE800007DEC710000
ENDCHAR
STARTCHAR o
ENCODING 111
SWIDTH 451 0
DWIDTH 13 0
BBX 17 13 0 0
BITMAP
00005BEFC600000000
000AFFFFFF90000000
009FFFFFFFF5000000
04FFFA2DFFFB000000
09FFE10DFFFF125810
0DFF9009FFFFFFFF50
0FFF7002EFFFFFFF40
1FFF70004FFFEDA600
0EFFA0007FFB000000
0AFFF615EFF5000000
03FFFFFFFFB0000000
007FFFFFFC10000000
0004BEFC7000000000
ENDCHAR
STARTCHAR p
ENCODING 112
SWIDTH 481 0
DWIDTH 13 0
BBX 21 26 -4 -13
BITMAP
0000008EE12AEE80000000
000003FFF6EFFFF8000000
000003FFFEFFFFFF100000
000003FFFFA17FFF400000
000003FFFA001FFF600000
000003FFF4002FFF500000
000003FFF4005FFF200010
000005FFF400BFFD000BE0
00000DFFF304FFF700AFF0
00006FFFF34EFFD13BFFA0
0001EFFFFCFFFFFFFFFB10
0007FEFFFFFFFFFFFFA100
000DFAFFFFC73BFEB40000
005FE5FFF0000000000000
00BF96FFE0000000000000
02FF47FFD0000000000000
06FE08FFB0000000000000
0AFB09FF80000000000000
0EF70BFF60000000000000
2FF50DFF20000000000000
4FF31FFE00000000000000
5FF34FFA00000000000000
4FF6AFF500000000000000
2FFFFFD000000000000000
0CFFFF4000000000000000
02CFC40000000000000000
ENDCHAR
STARTCHAR q
ENCODING 113
SWIDTH 500 0
DWIDTH 14 0
BBX 17 25 1 -11
BITMAP
000000000AFE200000
000039DEBFFF400000
0008FFFFFFFF000000
009FFFFFFFFB000000
06FFFD54FFF6000000
1EFFD107FFF2000000
7FFF400BFFD0000000
CFFC000EFF90000000
EFF9004FFF50000000
FFF8009FFF1AFFFF90
EFFC16FFFD3FFFFF90
AFFFFFFFFA3FFFFD20
3FFFFFFFF72FF10000
04CFD6FFF41FF10000
000004FFF21FF20000
000006FFF01FF20000
000008FFE02FF10000
000009FFD03FF00000
00000AFFD04FD00000
000009FFD07FB00000
000008FFE0AF700000
000006FFF4EF300000
000001FFFFFC000000
000000AFFFF4000000
0000001BFD50000000
ENDCHAR
STARTCHAR r
ENCODING 114
SWIDTH 455 0
DWIDTH 13 0
BBX 16 13 1 0
BITMAP
01BEB0018EE60000
08FFB02DFFFD0000
0CFF81DFFFFD0000
1FFF4AFFFFFA0000
4FFF5FF8EFF80074
6FFDBF90DFF92AF9
8FFEFE10EFFFFFF7
8FFFF700AFFFFFA0
9FFFF2001AEEB500
8FFFB00000000000
7FFF600000000000
4FFF200000000000
0BE8000000000000
ENDCHAR
STARTCHAR s
ENCODING 115
SWIDTH 427 0
DWIDTH 12 0
BBX 17 14 -1 -1
BITMAP
0000004DF900000000
000001EFF700000000
000006FFF100000000
00000DFFD000000000
00005FFFF300000000
0000DFFFFD10000000
0007FFDFFFA0000000
003FFC1DFFF4002D50
01DFF304FFFB01DF80
0BFF6000DFFD3DFF40
4FF80AEEEFFFFFF900
1B705FFFFFFFFF9000
00003FFFFFFDA40000
000006DED700000000
ENDCHAR
STARTCHAR t
ENCODING 116
SWIDTH 393 0
DWIDTH 11 0
BBX 15 25 0 0
BITMAP
00000003BFC20000
0000003EFFFA0000
000001DFFFFF1000
000008FF5AFF2000
00001FFD07FF2000
00007FF708FF1000
0000CFF30BFD0000
0002FFE01FF80000
0006FFB07FF20000
000AFF81EF800000
000CFF7CFC100000
000FFFDFD2000000
9FFFFFFFFFFF6000
EFFFFFFFFFFF6000
AFFFFFFFFFE90000
007FFE0000000000
008FFE0000000000
008FFE0000000000
007FFF0000000100
006FFF2000003E70
003FFF600004EF80
000EFFE5128FFF30
0007FFFFFFFFF500
0000AFFFFFFE4000
000006CEEC810000
ENDCHAR
STARTCHAR u
ENCODING 117
SWIDTH 462 0
DWIDTH 13 0
BBX 16 13 1 0
BITMAP
00AED0005EE30000
06FFD000DFF30000
0BFFA003FFF10000
1FFF6008FFC00000
3FFF300DFF900000
6FFF004FFF600000
8FFD00BFFF300031
9FFB04FFFF0006F7
AFFC2DFFFD004FF7
9FFFFFCFFE26FFE2
7FFFFF5FFFFFFF40
1EFFF90DFFFFE300
04DE9004DEC81000
ENDCHAR
STARTCHAR v
ENCODING 118
SWIDTH 449 0
DWIDTH 13 0
BBX 16 13 1 0
BITMAP
3DE70003CE900000
8FFB001EFFF30000
9FFC008FFFF40000
9FFC00BFFFF20000
8FFD00AFFFC13681
8FFD007FFFFFFFF5
7FFE00CFFFFFFFF2
6FFF07FFEBDEDA40
5FFF3EFF50000000
3FFFDFFA00000000
1FFFFFD100000000
0BFFFE3000000000
02CEB30000000000
ENDCHAR
STARTCHAR w
ENCODING 119
SWIDTH 700 0
DWIDTH 20 0
BBX 23 13 1 0
BITMAP
3DE70000BF80003CE9000000
8FFB0006FFC001EFFF300000
9FFC000CFFC007FFFF400000
9FFC003FFFC00AFFFF200000
8FFD009FFFD00AFFFC136810
8FFD01EFFFE006FFFFFFFF50
7FFE06FFFFF00CFFFFFFFF20
6FFF0DFEFFF06FFEBDEDA400
5FFF6FF7FFF3EFF600000000
3FFFDFE1EFFDFFA000000000
1FFFFF80CFFFFE1000000000
0BFFFD108FFFE30000000000
02CEB2001BEC300000000000
ENDCHAR
STARTCHAR x
ENCODING 120
SWIDTH 529 0
DWIDTH 15 0
BBX 19 13 0 0
BITMAP
0005DED6003AEE700000
003FFFFF85FFFFF10000
008FFFFFFFFFFFF20000
009FF4AFFFF4BFE10000
004EA06FFFB05E700000
0000005FFF7000000000
0011006FFF4000000100
09FD009FFF4000006F40
4FFD00EFFF600006FF50
7FFD19FFFFE4029FFE10
6FFFFFFFFFFFFFFFE300
2EFFFFE4DFFFFFFC2000
03BEE92018DEEC600000
ENDCHAR
STARTCHAR y
ENCODING 121
SWIDTH 479 0
DWIDTH 13 0
BBX 18 26 -1 -13
BITMAP
0000AED0005EE30000
0006FFD000DFF30000
000BFFA003FFF10000
001FFF6008FFE00000
003FFF300DFFB00000
006FFF004FFF800000
008FFD00BFFF600030
009FFB04FFFF301AF5
00AFFC2DFFFF15EFF6
009FFFFFDFFE9FFFB1
007FFFFF9FFFFFF700
001EFFFA7FFFFC3000
0004DE91BFFF800000
0000001AFFF5000000
000002CFFFF1000000
00002DFFFFD0000000
0002DFEAFF90000000
001CFE3AFF50000000
00AFF30EFF10000000
04FF704FFB00000000
0AFE109FF600000000
0EFB02FFE100000000
1FFC1BFF8000000000
0FFFFFFD1000000000
09FFFFE30000000000
019EEA300000000000
ENDCHAR
STARTCHAR z
ENCODING 122
SWIDTH 445 0
DWIDTH 12 0
BBX 16 13 1 0
BITMAP
1DFFFFFFFFFD1000
5FFFFFFFFFFF3000
2EFFFFFFFFFE1000
000018EFFFB20000
0005EFFF93000000
009FFFC300000000
07FFF90000000250
1FFFC00000002DF1
3FFFA0000004EFE0
2FFFF72125BFFF70
0CFFFFFFFFFFF800
02CFFFFFFFFD4000
0006ADFEDA500000
ENDCHAR
STARTCHAR braceleft
ENCODING 123
SWIDTH 490 0
DWIDTH 14 0
BBX 16 28 1 -2
BITMAP
0000000018CEFE90
00000004EFFFFFF2
0000002EFFFFFFB0
0000009FFFB41000
000000DFFE100000
000000FFFC000000
000002FFFA000000
000003FFF8000000
000005FFF6000000
000008FFF4000000
00000CFFF1000000
00029FFFB0000000
2DFFFFFD20000000
7FFFFFC100000000
3EFFFFF800000000
0015EFFF10000000
0000AFFF30000000
00009FFF20000000
0000BFFF10000000
0000DFFD00000000
0000FFFB00000000
0002FFF900000000
0003FFF800000000
0003FFF900000000
0001FFFE51000000
0000BFFFFFFB1000
00002EFFFFFF3000
0000029DFFE90000
ENDCHAR
STARTCHAR bar
ENCODING 124
SWIDTH 326 0
DWIDTH 9 0
BBX 9 35 0 -9
BITMAP
000003DE80
00000AFFC0
00000CFFB0
00000EFF90
00000FFF70
00002FFF50
00004FFF30
00006FFF10
00009FFE00
0000BFFC00
0000DFFA00
0000FFF700
0002FFF500
0005FFF300
0007FFF000
000AFFD000
000CFFB000
000EFF8000
001FFF6000
004FFF4000
006FFF2000
008FFE0000
00AFFC0000
00DFFA0000
00FFF80000
02FFF50000
04FFF30000
06FFF10000
08FFE00000
0AFFC00000
0CFFA00000
0EFF800000
1FFF600000
1FFF300000
0473000000
ENDCHAR
STARTCHAR braceright
ENCODING 125
SWIDTH 490 0
DWIDTH 14 0
BBX 16 28 -2 -2
BITMAP
00009DFEC8100000
0003FFFFFFE20000
0001CFFFFFFB0000
00000015EFFF1000
000000009FFF3000
000000007FFF3000
000000009FFF2000
00000000BFFF0000
00000000EFFD0000
00000000FFFB0000
00000001FFFB0000
00000000EFFF5100
000000007FFFFFE4
000000000BFFFFF9
00000001CFFFFFE4
00000009FFFB3100
0000000EFFE00000
0000002FFFA00000
0000004FFF700000
0000006FFF500000
0000008FFF400000
000000AFFF200000
000000CFFF000000
000001EFFD000000
00014BFFF9000000
0BFFFFFFE2000000
2FFFFFFE50000000
09EFFC8200000000
ENDCHAR
STARTCHAR asciitilde
ENCODING 126
SWIDTH 700 0
DWIDTH 20 0
BBX 16 7 2 5
BITMAP
0004740000000000
00AFFFC3000009E8
08FFFFFFA2009FFC
3FFFCFFFFE75FFF6
AFFD12AFFFFFFFC0
CFE30003CFFFFE20
3720000005CEB300
ENDCHAR
STARTCHAR uni00A0
ENCODING 160
SWIDTH 265 0
DWIDTH 7 0
BBX 1 1 0 0
BITMAP
00
ENDCHAR
STARTCHAR exclamdown
ENCODING 161
SWIDTH 340 0
DWIDTH 10 0
BBX 10 24 -1 -11
BITMAP
000007DE90
00005FFFF6
00008FFFF8
00007FFFF5
00001AEE80
0000000000
0000066000
00007FF400
0000CFF200
0002FFF000
0007FFC000
000CFFA000
001FFF7000
006FFF4000
00AFFF1000
00EFFD0000
04FFFA0000
08FFF70000
0CFFF40000
1FFFF00000
5FFFC00000
9FFF800000
AFFE200000
2662000000
ENDCHAR
STARTCHAR cent
ENCODING 162
SWIDTH 466 0
DWIDTH 13 0
BBX 12 20 1 -4
BITMAP
000000AD0000
000000EF0000
000001FD0000
000004FC0000
0006DFFFE800
00AFFFFFFF80
08FFFEFBFFD0
2FFF6AF3DFE0
7FFD0BF1FFB0
AFF90DE0CD30
BFF80FC00000
BFF92FA006E1
8FFD5F805FF2
2FFFEFAAFFD0
07FFFFFFFE30
007EFFFFB300
0001DF520000
0000EF000000
0001FD000000
0001E8000000
ENDCHAR
STARTCHAR sterling
ENCODING 163
SWIDTH 525 0
DWIDTH 15 0
BBX 15 17 0 0
BITMAP
0000004AEFEB5000
000009FFFFFFF900
00008FFFFFFFFF40
0003FFFD405FFF90
0009FFF2000AFF90
000EFF900002CD30
001FFF6000000000
003FFF3000000000
1DFFFFFFFFE10000
2FFFFFFFFFE10000
028FFF2222100000
008FFE0000000000
009FFD0000000000
07EFFC0000000000
4FFFFFFFFFFFFD10
6FFFFFFFFFFFFF20
2EECBCDEFFFFF900
ENDCHAR
STARTCHAR currency
ENCODING 164
SWIDTH 700 0
DWIDTH 20 0
BBX 14 13 3 1
BITMAP
4EA14BFFB42AE4
7FFEFFFFFFEFF6
09FFFFFFFFFF80
01FFE5115EFE10
07FF300004FF70
0AFD000000DFA0
0AFD000000DFA0
07FF400004FF70
01EFE6116EFE10
05FFFFFFFFFF50
3EFFFFFFFFFFE3
8FF54BEEB45FF8
3E7000000007E3
ENDCHAR
STARTCHAR yen
ENCODING 165
SWIDTH 497 0
DWIDTH 14 0
BBX 14 17 1 0
BITMAP
27500000000474
EFF60000007FFE
DFFE100003FFF9
6FFF70001DFFC1
0DFFE1009FFE20
04FFF804FFF600
00BFFE2DFF9000
003FFFEFFC1000
0009FFFFE20000
5CDDFFFFEDD800
7FFFFFFFFFF900
0000EFFB000000
8DDDFFFEDDD500
BFFFFFFFFFF500
0004FFF6000000
0006FFF4000000
0002DFB0000000
ENDCHAR
STARTCHAR brokenbar
ENCODING 166
SWIDTH 326 0
DWIDTH 9 0
BBX 9 35 0 -9
BITMAP
000003DE80
00000AFFD0
00000CFFB0
00000EFF90
00001FFF70
00003FFF40
00006FFF20
00008FFF00
0000AFFD00
0000CFFB00
0000EFF900
0001FFF600
0003FFF400
0005FFF200
0002DF9000
0000000000
0000000000
0000000000
0000000000
0004740000
004FFF1000
008FFF0000
00AFFD0000
00CFFB0000
00EFF90000
01FFF70000
03FFF50000
05FFF20000
07FFF00000
0AFFD00000
0CFFB00000
0EFF900000
1FFF700000
1FFF300000
0473000000
ENDCHAR
STARTCHAR section
ENCODING 167
SWIDTH 607 0
DWIDTH 17 0
BBX 14 24 2 0
BITMAP
000006BEFEB600
0002CFFFFFFFA0
000CFFFFFFFFF5
005FFF8213DFF9
009FFC00008FFA
00AFFA00008FF8
008FFF40005FD2
003FFFF8200000
003EFFFFFA3000
01EFFEFFFFF800
08FF816DFFFF70
0BFF60006EFFD0
0CFFB00005FFF0
08FFFC5004FFD0
02EFFFFD7CFF70
002BFFFFFFFA00
00004AFFFFF400
5DC10018FFFB00
DFF300008FFE00
FFF300006FFE00
EFFB3114DFFB00
9FFFFFFFFFF400
1CFFFFFFFF6000
006BEFED920000
ENDCHAR
STARTCHAR dieresis
ENCODING 168
SWIDTH 600 0
DWIDTH 17 0
BBX 11 4 3 15
BITMAP
07EE5009ED30
1FFFD04FFFA0
2FFFB05FFF90
0AED301BFC20
ENDCHAR
STARTCHAR copyright
ENCODING 169
SWIDTH 647 0
DWIDTH 18 0
BBX 17 16 2 10
BITMAP
000017CEFEB7100000
0005EFFEDFFFE40000
007FF9300039FF6000
04FF402AEEA15FF300
0DF704EFEEF908FC00
4FE01DF701FB01EF30
8F906FA001E700AF70
AF709F500000008F90
AF70BF400000008F90
8F909F70000200AF70
4FE05FE412AC01EF30
0DF70BFFFFF608FC00
04FF407BCA405FF300
007FF9200039FF6000
0005EFFEDEFFE50000
000017CEFEB7100000
ENDCHAR
STARTCHAR ordfeminine
ENCODING 170
SWIDTH 393 0
DWIDTH 11 0
BBX 10 11 2 13
BITMAP
00018DF731
003EFFFFFC
02EFFA6FFD
0CFF906FFB
4FFE109FF8
9FF900CFF6
BFF601FFF4
CFF506FFF3
9FFA4EFFF2
3FFFFCFFF2
05DFB2BFB0
ENDCHAR
STARTCHAR guillemotleft
ENCODING 171
SWIDTH 615 0
DWIDTH 17 0
BBX 16 11 0 1
BITMAP
000005DD20001AE7
00019FFF8005EFFE
003DFFFE319FFFF8
07FFFFB22DFFFE50
1FFFF700AFFFB200
3FFFA000CFFE2000
0DFFFA006FFFE300
02DFFFB108FFFE40
001BFFFC106FFFF5
0000AFFF5004EFFB
000008EA00003DD3
ENDCHAR
STARTCHAR logicalnot
ENCODING 172
SWIDTH 700 0
DWIDTH 20 0
BBX 16 9 2 0
BITMAP
3DFFFFFFFFFFFFD3
9FFFFFFFFFFFFFF9
5EFFFFFFFFFFFFF8
000000000000FFF6
000000000002FFF4
000000000004FFF2
000000000007FFF0
000000000006FFB0
0000000000005610
ENDCHAR
STARTCHAR uni00AD
ENCODING 173
SWIDTH 403 0
DWIDTH 11 0
BBX 10 5 1 6
BITMAP
0023568970
2EFFFFFFF3
6FFFFFFFF2
2EFFDCA950
0110000000
ENDCHAR
STARTCHAR registered
ENCODING 174
SWIDTH 647 0
DWIDTH 18 0
BBX 17 16 2 10
BITMAP
000017CEFEB7100000
0005EFFEDFFFE40000
007FF9300039FF6000
04FF45CEEC605FF300
0DF705DF39F708FC00
4FE000ED01FC01EF30
8F9001FB03FB00AF70
AF7004F93CE3008F90
AF7006FFF920008F90
8F9009F6ED1000AF70
4FE00CF16FA001EF30
0DF70ED00DF408FC00
04FF465003825FF300
007FF9200039FF6000
0005EFFEDEFFE50000
000017CEFEB7100000
ENDCHAR
STARTCHAR macron
ENCODING 175
SWIDTH 600 0
DWIDTH 17 0
BBX 9 3 4 15
BITMAP
8FFFFFFFB0
EFFFFFFFF0
AFFFFFFF80
ENDCHAR
STARTCHAR degree
ENCODING 176
SWIDTH 385 0
DWIDTH 11 0
BBX 10 9 2 15
BITMAP
0000120000
005DFFE700
05FFFFFF80
0EFC22CFF1
3FF5006FF3
4FF5007FF2
1EFD45EFC0
07FFFFFE30
006CFEA200
ENDCHAR
STARTCHAR plusminus
ENCODING 177
SWIDTH 700 0
DWIDTH 20 0
BBX 15 16 2 0
BITMAP
00000005ED300000
0000000CFF600000
0000000EFF400000
0000001FFF200000
00AFFFFFFFFFFF70
03FFFFFFFFFFFFC0
01DFFFFFFFFFFE40
0000009FF9000000
000000AFF7000000
000000CFF6000000
000000DFF3000000
0000005B60000000
0000000000000000
0BFFFFFFFFFFF600
5FFFFFFFFFFFFA00
2DFFFFFFFFFFD300
ENDCHAR
STARTCHAR uni00B2
ENCODING 178
SWIDTH 450 0
DWIDTH 13 0
BBX 12 14 1 10
BITMAP
00029DEEC500
005FFFFFFF70
01FFE639FFF1
06FF6001FFF4
07FF3002FFF4
02A80006FFF1
0000001DFFA0
000000BFFE20
00000AFFE400
0002CFFE3000
019FFFA10000
2EFFFEDDDDD5
5FFFFFFFFFFA
3EFFFFFFFFE4
ENDCHAR
STARTCHAR uni00B3
ENCODING 179
SWIDTH 450 0
DWIDTH 13 0
BBX 11 14 2 10
BITMAP
0028DEFD9200
04EFFFFFFE20
1EFE635EFF80
4FF7000CFF90
1CD1001EFF70
000003CFFC00
0002DFFFA100
0004FFFE8100
00007AFFFC00
5910004FFF40
EF80001FFF50
EFF634BFFF20
7FFFFFFFF700
04ADFED93000
ENDCHAR
STARTCHAR acute
ENCODING 180
SWIDTH 600 0
DWIDTH 17 0
BBX 7 9 7 15
BITMAP
00016400
000AFF60
002FFF80
009FFF30
01EFF700
07FFA000
0EFD1000
5FF30000
4E500000
ENDCHAR
STARTCHAR uni00B5
ENCODING 181
SWIDTH 462 0
DWIDTH 13 0
BBX 17 20 0 -7
BITMAP
001AED0005EE300000
006FFD000DFF300000
00BFFA003FFF100000
00FFF6008FFC000000
03FFF300DFF9000000
06FFF004FFF6000000
08FFD00BFFF3000310
0AFFB04FFFF0006F70
0BFFC2DFFFD004FF70
0DFFFFFCFFE26FFE20
0EFFFFF5FFFFFFF400
0FFFFF90DFFFFE3000
1FFFE9104DEC810000
2FFF30000000000000
2FFF30000000000000
3FFF30000000000000
3FFF30000000000000
3FFF30000000000000
3FFF30000000000000
1CEA00000000000000
ENDCHAR
STARTCHAR paragraph
ENCODING 182
SWIDTH 739 0
DWIDTH 21 0
BBX 18 24 2 0
BITMAP
000016ACEFFEECA600
0008EFFFFFFFFFFFC1
00BFFFFFFFFFFFFFF7
08FFFFFFFFFFFFFFF9
0EFFFFFFFFF409FFF7
2FFFFFFFFFF108FFF5
2FFFFFFFFFE00AFFF3
0FFFFFFFFFB00CFFF0
09FFFFFFFF800EFFD0
01CFFFFFFF601FFFA0
0019FFFFFF304FFF80
000015DFFF106FFF50
000000EFFD009FFF30
000002FFFB00BFFF00
000004FFF800EFFD00
000006FFF601FFFA00
000009FFF304FFF800
00000BFFF106FFF600
00000EFFE009FFF400
00001FFFD00BFFF200
00003FFFB00DFFF100
00005FFF900FFFE000
00005FFF700FFFC000
00001CFC1008ED4000
ENDCHAR
STARTCHAR periodcentered
ENCODING 183
SWIDTH 257 0
DWIDTH 7 0
BBX 6 5 1 4
BITMAP
08EE90
6FFFF6
AFFFF7
8FFFF3
1AED60
ENDCHAR
STARTCHAR cedilla
ENCODING 184
SWIDTH 600 0
DWIDTH 17 0
BBX 9 8 1 -7
BITMAP
007FFD9200
00AFFFFE20
00024AFF80
000001FFA0
000029FF80
2EFFFFFF30
5FFFFFF700
1BEFEA4000
ENDCHAR
STARTCHAR uni00B9
ENCODING 185
SWIDTH 450 0
DWIDTH 13 0
BBX 8 14 3 10
BITMAP
0016ADE5
3BFFFFF9
EFFFFFF7
DD94FFF5
0002FFF3
0004FFF1
0007FFE0
0009FFC0
000AFFA0
000CFF80
000EFF60
001FFF40
002FFF20
000BE900
ENDCHAR
STARTCHAR ordmasculine
ENCODING 186
SWIDTH 408 0
DWIDTH 11 0
BBX 10 12 2 12
BITMAP
0017DED700
01CFFFFFB0
09FFFEFFF5
2FFF30AFFB
6FFA003FFE
9FF7002FFE
AFF6003FFD
9FF8006FFA
6FFE33DFF5
1EFFFFFFC0
05FFFFFD20
003ACB7100
ENDCHAR
STARTCHAR guillemotright
ENCODING 187
SWIDTH 615 0
DWIDTH 17 0
BBX 16 11 1 1
BITMAP
1BE500007EA10000
7FFF7001FFFC1000
3EFFF900AFFFD300
02DFFFB109FFFE40
001CFFFA007FFFE2
0001CFFF1006FFF7
0008FFFE004DFFF5
02CFFFE508FFFFA0
4EFFFC21CFFFE600
BFFF7004FFFC2000
5EC30000BE700000
ENDCHAR
STARTCHAR onequarter
ENCODING 188
SWIDTH 955 0
DWIDTH 27 0
BBX 23 24 3 0
BITMAP
0016ADE50000000000000000
3BFFFFF90000000000000000
EFFFFFF70000000000000000
DD94FFF50000004600000000
0002FFF3000005FF70000000
0004FFF100001DFF80000000
0007FFE000008FFE20000000
0009FFC00003FFF700000000
000AFFA0000BFFC000000000
000CFF80006FFF4000000000
000EFF6001EFFA00AEB00000
001FFF4009FFE107FFB00000
002FFF203FFF601EFF414100
000BE900CFFC008FFB1DFC00
00000006FFF301EFF35FFB00
0000001EFF9007FFA08FF800
0000009FFE100DFF40BFF600
000004FFF6004FFC00DFF300
00000CFFB0009FFEDDFFFD90
00001FFF2000AFFFFFFFFFE0
000009E700004EFFFFFFFE80
000000000000000005FFA000
000000000000000006FF9000
000000000000000003ED3000
ENDCHAR
STARTCHAR onehalf
ENCODING 189
SWIDTH 1024 0
DWIDTH 29 0
BBX 25 24 3 0
BITMAP
0016ADE5000000000000000000
3BFFFFF9000000000000000000
EFFFFFF7000000000000000000
DD94FFF5000000460000000000
0002FFF3000005FF7000000000
0004FFF100001DFF8000000000
0007FFE000008FFE2000000000
0009FFC00003FFF70000000000
000AFFA0000BFFC00000000000
000CFF80006FFF400000000000
000EFF6001EFFA004ADFEB4000
001FFF4009FFE107FFFFFFF500
002FFF203FFF603FFD53BFFE00
000BE900CFFC009FF4003FFF20
00000006FFF300AFF1004FFF20
0000001EFF90003A70009FFE00
0000009FFE1000000002FFF800
000004FFF6000000001CFFD100
00000CFFB000000001CFFE2000
00001FFF200000004DFFD20000
000009E70000002AFFF8100000
00000000000003EFFFEDDDDC30
00000000000008FFFFFFFFFF70
00000000000004FFFFFFFFFD20
ENDCHAR
STARTCHAR threequarters
ENCODING 190
SWIDTH 1035 0
DWIDTH 29 0
BBX 27 24 2 0
BITMAP
0028DEFD92000000000000000000
04EFFFFFFE200000000000000000
1EFE635EFF800000000000000000
4FF7000CFF900000037100000000
1CD1001EFF7000002EFB00000000
000003CFFC000000BFFC00000000
0002DFFFA1000005FFF500000000
0004FFFE8100001DFFA000000000
00007AFFFC00008FFE2000000000
5910004FFF4002FFF70000000000
EF80001FFF500BFFD007ED100000
EFF634BFFF205FFF404FFE100000
7FFFFFFFF701EFFA00BFF7042000
04ADFED93009FFE104FFE1AFF100
00000000003FFF600BFF71FFF000
0000000000CFFC003FFE14FFC000
0000000006FFF3009FF707FF9000
000000001EFF9001EFF10AFF7000
000000009FFE1005FFFDDEFFDB10
00000000CFF60006FFFFFFFFFF30
000000006EA00001DFFFFFFFFB00
000000000000000000002FFE0000
000000000000000000003FFC0000
000000000000000000001DE60000
ENDCHAR
STARTCHAR questiondown
ENCODING 191
SWIDTH 476 0
DWIDTH 13 0
BBX 14 24 -2 -11
BITMAP
0000000008EE90
000000006FFFF5
000000009FFFF7
000000008FFFF4
000000001BED70
00000000000000
00000000055000
000000007FF100
00000000DFE000
00000005FFB000
0000002EFF6000
000002DFFD0000
00003EFFE30000
0003EFFF500000
003EFFF6000000
01DFFF70000000
08FFFB00004400
0EFFF20005FF80
2FFFD00006FFC0
3FFFD00008FFB0
1FFFF7115EFF70
0BFFFFFFFFFE10
02DFFFFFFFD300
0017CEFEC71000
ENDCHAR
STARTCHAR Agrave
ENCODING 192
SWIDTH 786 0
DWIDTH 22 0
BBX 25 33 1 0
BITMAP
00000000065000000000000000
00000000AFFB10000000000000
00000000CFFFD2000000000000
000000005FFFFE400000000000
0000000002AFFFF60000000000
000000000002AFFF5000000000
00000000000003AE4000000000
00000000000000000000000000
00000000000000000000000000
0000000000169CDEFEDB840000
000000003AFFFFFFFFFFFF6000
00000019FFFFFFFFFFFFFF5000
000002DFFFFC73111258A70000
00002EFFFD4000002530000000
0001DFFFB1000004FFF5000000
000AFFFB00000009FFF7000000
004FFFE10000000CFFF4000000
00CFFF600000000EFFF0000000
04FFFE000000003FFFC0000000
09FFF8000000006FFF90000000
0DFFF400000000AFFF60000000
1FFFF000000000EFFF30000000
4FFFD000000003FFFF00000000
5FFFB000000007FFFD00000000
6FFFB00000000CFFFB00000000
6FFFB00000003FFFF900000000
4FFFD0000000AFFFF800000210
2FFFF1000003FFFFF800003F80
0CFFF800001DFFFFFA0002EF80
06FFFF8115DFF7FFFF415EFF30
00BFFFFFFFFF71EFFFFFFFF500
001AFFFFFFF8005FFFFFFE4000
00005BDFEA300004BEED820000
ENDCHAR
STARTCHAR Aacute
ENCODING 193
SWIDTH 786 0
DWIDTH 22 0
BBX 25 33 1 0
BITMAP
00000000000000000000471000
00000000000000000008FFD000
000000000000000001AFFFF100
00000000000000002CFFFF8000
0000000000000003EFFFB40000
000000000000002EFFC4000000
000000000000002EC400000000
00000000000000000000000000
00000000000000000000000000
0000000000169CDEFEDB840000
000000003AFFFFFFFFFFFF6000
00000019FFFFFFFFFFFFFF5000
000002DFFFFC73111258A70000
00002EFFFD4000002530000000
0001DFFFB1000004FFF5000000
000AFFFB00000009FFF7000000
004FFFE10000000CFFF4000000
00CFFF600000000EFFF0000000
04FFFE000000003FFFC0000000
09FFF8000000006FFF90000000
0DFFF400000000AFFF60000000
1FFFF000000000EFFF30000000
4FFFD000000003FFFF00000000
5FFFB000000007FFFD00000000
6FFFB00000000CFFFB00000000
6FFFB00000003FFFF900000000
4FFFD0000000AFFFF800000210
2FFFF1000003FFFFF800003F80
0CFFF800001DFFFFFA0002EF80
06FFFF8115DFF7FFFF415EFF30
00BFFFFFFFFF71EFFFFFFFF500
001AFFFFFFF8005FFFFFFE4000
00005BDFEA300004BEED820000
ENDCHAR
STARTCHAR Acircumflex
ENCODING 194
SWIDTH 786 0
DWIDTH 22 0
BBX 25 34 1 0
BITMAP
00000000000000047600000000
000000000000009FFFA0000000
00000000000006FFFFF3000000
0000000000002EFF8FF9000000
000000000000CFF91FFE100000
000000000007FFE10CFF500000
00000000000EFF7008FF900000
00000000000AEA0002DE400000
00000000000000000000000000
00000000000000000000000000
0000000000169CDEFEDB840000
000000003AFFFFFFFFFFFF6000
00000019FFFFFFFFFFFFFF5000
000002DFFFFC73111258A70000
00002EFFFD4000002530000000
0001DFFFB1000004FFF5000000
000AFFFB00000009FFF7000000
004FFFE10000000CFFF4000000
00CFFF600000000EFFF0000000
04FFFE000000003FFFC0000000
09FFF8000000006FFF90000000
0DFFF400000000AFFF60000000
1FFFF000000000EFFF30000000
4FFFD000000003FFFF00000000
5FFFB000000007FFFD00000000
6FFFB00000000CFFFB00000000
6FFFB00000003FFFF900000000
4FFFD0000000AFFFF800000210
2FFFF1000003FFFFF800003F80
0CFFF800001DFFFFFA0002EF80
06FFFF8115DFF7FFFF415EFF30
00BFFFFFFFFF71EFFFFFFFF500
001AFFFFFFF8005FFFFFFE4000
00005BDFEA300004BEED820000
ENDCHAR
STARTCHAR Atilde
ENCODING 195
SWIDTH 786 0
DWIDTH 22 0
BBX 25 32 1 0
BITMAP
00000000000027500000000000
000000000005FFFC3002CE3000
00000000003FFFFFF71DFF4000
0000000000BFF9BFFFEFFC0000
0000000000FFC006EFFFF30000
00000000004710002BEC400000
00000000000000000000000000
00000000000000000000000000
0000000000169CDEFEDB840000
000000003AFFFFFFFFFFFF6000
00000019FFFFFFFFFFFFFF5000
000002DFFFFC73111258A70000
00002EFFFD4000002530000000
0001DFFFB1000004FFF5000000
000AFFFB00000009FFF7000000
004FFFE10000000CFFF4000000
00CFFF600000000EFFF0000000
04FFFE000000003FFFC0000000
09FFF8000000006FFF90000000
0DFFF400000000AFFF60000000
1FFFF000000000EFFF30000000
4FFFD000000003FFFF00000000
5FFFB000000007FFFD00000000
6FFFB00000000CFFFB00000000
6FFFB00000003FFFF900000000
4FFFD0000000AFFFF800000210
2FFFF1000003FFFFF800003F80
0CFFF800001DFFFFFA0002EF80
06FFFF8115DFF7FFFF415EFF30
00BFFFFFFFFF71EFFFFFFFF500
001AFFFFFFF8005FFFFFFE4000
00005BDFEA300004BEED820000
ENDCHAR
STARTCHAR Adieresis
ENCODING 196
SWIDTH 786 0
DWIDTH 22 0
BBX 25 30 1 0
BITMAP
000000000003DEA005DE700000
00000000000CFFF40EFFF10000
00000000000DFFF31FFFE00000
000000000006EE7008ED500000
00000000000000000000000000
00000000000000000000000000
0000000000169CDEFEDB840000
000000003AFFFFFFFFFFFF6000
00000019FFFFFFFFFFFFFF5000
000002DFFFFC73111258A70000
00002EFFFD4000002530000000
0001DFFFB1000004FFF5000000
000AFFFB00000009FFF7000000
004FFFE10000000CFFF4000000
00CFFF600000000EFFF0000000
04FFFE000000003FFFC0000000
09FFF8000000006FFF90000000
0DFFF400000000AFFF60000000
1FFFF000000000EFFF30000000
4FFFD000000003FFFF00000000
5FFFB000000007FFFD00000000
6FFFB00000000CFFFB00000000
6FFFB00000003FFFF900000000
4FFFD0000000AFFFF800000210
2FFFF1000003FFFFF800003F80
0CFFF800001DFFFFFA0002EF80
06FFFF8115DFF7FFFF415EFF30
00BFFFFFFFFF71EFFFFFFFF500
001AFFFFFFF8005FFFFFFE4000
00005BDFEA300004BEED820000
ENDCHAR
STARTCHAR Aring
ENCODING 197
SWIDTH 786 0
DWIDTH 22 0
BBX 25 34 1 0
BITMAP
000000000000007DFD50000000
00000000000009FFFFF6000000
0000000000003FFFFFFD000000
0000000000006FF41AFF000000
0000000000007FF41BFE000000
0000000000005FFFFFFB000000
0000000000000CFFFFE3000000
000000000000019EEB30000000
00000000000000000000000000
00000000000000000000000000
0000000000169CDEFEDB840000
000000003AFFFFFFFFFFFF6000
00000019FFFFFFFFFFFFFF5000
000002DFFFFC73111258A70000
00002EFFFD4000002530000000
0001DFFFB1000004FFF5000000
000AFFFB00000009FFF7000000
004FFFE10000000CFFF4000000
00CFFF600000000EFFF0000000
04FFFE000000003FFFC0000000
09FFF8000000006FFF90000000
0DFFF400000000AFFF60000000
1FFFF000000000EFFF30000000
4FFFD000000003FFFF00000000
5FFFB000000007FFFD00000000
6FFFB00000000CFFFB00000000
6FFFB00000003FFFF900000000
4FFFD0000000AFFFF800000210
2FFFF1000003FFFFF800003F80
0CFFF800001DFFFFFA0002EF80
06FFFF8115DFF7FFFF415EFF30
00BFFFFFFFFF71EFFFFFFFF500
001AFFFFFFF8005FFFFFFE4000
00005BDFEA300004BEED820000
ENDCHAR
STARTCHAR AE
ENCODING 198
SWIDTH 1015 0
DWIDTH 28 0
BBX 31 24 1 0
BITMAP
000000000049CFD4007DFFFFFFFFC100
000000006DFFFFFA08FFFFFFFFFFF300
0000002CFFFFFFF81FFFFFFFFFFF9000
000004EFFFFFB7406FFF710000000000
00004FFFFF810000AFFF200000000000
0002EFFFD3000000EFFE000000000000
000BFFFD20000003FFFB000000000000
005FFFF300000007FFF8000000000000
00DFFF800000000BFFF5000000000000
04FFFE100000000EFFF2000000000000
09FFF9000000004FFFE0000000000000
0DFFF4000000008FFFFFFFFFFFD20000
2FFFF100000000CFFFFFFFFFFFF30000
4FFFD000000002FFFFFFFFFFFFA00000
6FFFB000000006FFFF20000000000000
6FFFB00000000CFFFF00000000000000
6FFFB00000003FFFFE00000000000000
4FFFC00000009FFFFF00000000000000
2FFFF1000003FFFFFF40000000000000
0CFFF800001CFFCFFFD1000000017EC0
05FFFF8115DFFB2EFFFD621125AEFFD0
00AFFFFFFFFFE206FFFFFFFFFFFFFF50
0009FFFFFFFD20005EFFFFFFFFFFB300
00004ADFEC700000016ADEFEDA620000
ENDCHAR
STARTCHAR Ccedilla
ENCODING 199
SWIDTH 686 0
DWIDTH 19 0
BBX 22 31 1 -7
BITMAP
0000000039CEFEB6100000
0000003BFFFFFFFFC10000
000006FFFFFFFFFFFB0000
00006FFFFB5114DFFF4000
0004FFFF6000005FFF8000
001EFFF60000002FFF9000
008FFFA00000003FFF8000
00EFFF200000005FFF5000
05FFFB000000004FFE1000
09FFF60000000005720000
0DFFF30000000000000000
0FFFF10000000000000000
2FFFE00000000000000000
3FFFE00000000000000000
3FFFE00000000000000000
2FFFF10000000000000000
0EFFF50000000000000000
0BFFFB0000000000000000
05FFFF5000000000000010
00CFFFE500000000005BF9
002EFFFFC6310136AEFFFA
0004EFFFFFFFFFFFFFFFE3
00002AFFFFFFFFFFFFE920
0000008FFFFFFEDB841000
0000008FFFFF5000000000
0000000027FFB000000000
0000000000FFD000000000
0000000018FFB000000000
00001EFFFFFF5000000000
00004FFFFFF90000000000
00001BEFEB500000000000
ENDCHAR
STARTCHAR Egrave
ENCODING 200
SWIDTH 686 0
DWIDTH 19 0
BBX 23 33 0 0
BITMAP
000000372000000000000000
000003FFE500000000000000
000005FFFF70000000000000
000001CFFFF9000000000000
00000006DFFFB10000000000
0000000006EFFC0000000000
000000000017DB0000000000
000000000000000000000000
000000000000000000000000
0000000037BDEFEB71000000
0000003BFFFFFFFFFE300000
000005FFFFFFFFFFFFE20000
00005FFFFD62113BFFF90000
0000DFFFA0000001EFFD0000
0004FFFE10000000CFFE0000
0006FFFC00000000DFFD0000
0005FFFC00000000FFF90000
0001FFFF40000000BFD20000
00008FFFE731000002000000
000007EFFFFFE40000000000
000004AFFFFFF60000000000
0003CFFFFFFFD10000000000
005FFFFD7320000000000000
03FFFF700000000000000000
0AFFF9000000000000000000
0EFFF2000000000000000000
1FFFF1000000000000000000
1FFFF4000000000000000100
0CFFFD20000000000016BF90
05FFFFE9521012368CFFFFA0
007FFFFFFFFFFFFFFFFFFE30
0003CFFFFFFFFFFFFFFD8100
0000037ACEFFEEDB96200000
ENDCHAR
STARTCHAR Eacute
ENCODING 201
SWIDTH 686 0
DWIDTH 19 0
BBX 23 33 0 0
BITMAP
000000000000000001740000
00000000000000003DFF5000
0000000000000005EFFF8000
000000000000007FFFFD2000
00000000000009FFFE710000
0000000000009FFE81000000
0000000000009E8100000000
000000000000000000000000
000000000000000000000000
0000000037BDEFEB71000000
0000003BFFFFFFFFFE300000
000005FFFFFFFFFFFFE20000
00005FFFFD62113BFFF90000
0000DFFFA0000001EFFD0000
0004FFFE10000000CFFE0000
0006FFFC00000000DFFD0000
0005FFFC00000000FFF90000
0001FFFF40000000BFD20000
00008FFFE731000002000000
000007EFFFFFE40000000000
000004AFFFFFF60000000000
0003CFFFFFFFD10000000000
005FFFFD7320000000000000
03FFFF700000000000000000
0AFFF9000000000000000000
0EFFF2000000000000000000
1FFFF1000000000000000000
1FFFF4000000000000000100
0CFFFD20000000000016BF90
05FFFFE9521012368CFFFFA0
007FFFFFFFFFFFFFFFFFFE30
0003CFFFFFFFFFFFFFFD8100
0000037ACEFFEEDB96200000
ENDCHAR
STARTCHAR Ecircumflex
ENCODING 202
SWIDTH 686 0
DWIDTH 19 0
BBX 23 34 0 0
BITMAP
000000000000167200000000
000000000003EFFE20000000
00000000001DFFFFA0000000
0000000000AFF9EFF1000000
0000000005FFE19FF7000000
000000001EFF705FFC000000
000000007FFD101FFF100000
000000004ED30008E9000000
000000000000000000000000
000000000000000000000000
0000000037BDEFEB71000000
0000003BFFFFFFFFFE300000
000005FFFFFFFFFFFFE20000
00005FFFFD62113BFFF90000
0000DFFFA0000001EFFD0000
0004FFFE10000000CFFE0000
0006FFFC00000000DFFD0000
0005FFFC00000000FFF90000
0001FFFF40000000BFD20000
00008FFFE731000002000000
000007EFFFFFE40000000000
000004AFFFFFF60000000000
0003CFFFFFFFD10000000000
005FFFFD7320000000000000
03FFFF700000000000000000
0AFFF9000000000000000000
0EFFF2000000000000000000
1FFFF1000000000000000000
1FFFF4000000000000000100
0CFFFD20000000000016BF90
05FFFFE9521012368CFFFFA0
007FFFFFFFFFFFFFFFFFFE30
0003CFFFFFFFFFFFFFFD8100
0000037ACEFFEEDB96200000
ENDCHAR
STARTCHAR Edieresis
ENCODING 203
SWIDTH 686 0
DWIDTH 19 0
BBX 23 30 0 0
BITMAP
0000000009ED401BEC200000
000000005FFFB08FFF800000
000000006FFFA09FFF700000
000000001BFC202DEA100000
000000000000000000000000
000000000000000000000000
0000000037BDEFEB71000000
0000003BFFFFFFFFFE300000
000005FFFFFFFFFFFFE20000
00005FFFFD62113BFFF90000
0000DFFFA0000001EFFD0000
0004FFFE10000000CFFE0000
0006FFFC00000000DFFD0000
0005FFFC00000000FFF90000
0001FFFF40000000BFD20000
00008FFFE731000002000000
000007EFFFFFE40000000000
000004AFFFFFF60000000000
0003CFFFFFFFD10000000000
005FFFFD7320000000000000
03FFFF700000000000000000
0AFFF9000000000000000000
0EFFF2000000000000000000
1FFFF1000000000000000000
1FFFF4000000000000000100
0CFFFD20000000000016BF90
05FFFFE9521012368CFFFFA0
007FFFFFFFFFFFFFFFFFFE30
0003CFFFFFFFFFFFFFFD8100
0000037ACEFFEEDB96200000
ENDCHAR
STARTCHAR Igrave
ENCODING 204
SWIDTH 495 0
DWIDTH 14 0
BBX 17 33 -1 0
BITMAP
000165000000000000
000BFFA00000000000
000EFFFC1000000000
0006FFFFD300000000
00003BFFFE40000000
0000003BFFF3000000
000000003BE3000000
000000000000000000
000000000000000000
00007DFFFFFFFFFD40
0001FFFFFFFFFFFF70
0001CFFFFFFFFFFB10
00000002FFFD000000
00000004FFFB000000
00000006FFF8000000
00000008FFF6000000
0000000BFFF3000000
0000000DFFF1000000
0000000FFFE0000000
0000002FFFB0000000
0000005FFF90000000
0000007FFF70000000
000000AFFF40000000
000000CFFF20000000
000000EFFF00000000
000001FFFD00000000
000004FFFB00000000
000006FFF900000000
000008FFF700000000
00000AFFF500000000
07DFFFFFFFFFC20000
5FFFFFFFFFFFF50000
3EFFFFFFFFFEA10000
ENDCHAR
STARTCHAR Iacute
ENCODING 205
SWIDTH 495 0
DWIDTH 14 0
BBX 18 33 -1 0
BITMAP
000000000000000561
00000000000000AFFC
0000000000001CFFFE
000000000003DFFFF6
00000000004EFFFB30
0000000003FFFB3000
0000000003EB400000
000000000000000000
000000000000000000
00007DFFFFFFFFFD40
0001FFFFFFFFFFFF70
0001CFFFFFFFFFFB10
00000002FFFD000000
00000004FFFB000000
00000006FFF8000000
00000008FFF6000000
0000000BFFF3000000
0000000DFFF1000000
0000000FFFE0000000
0000002FFFB0000000
0000005FFF90000000
0000007FFF70000000
000000AFFF40000000
000000CFFF20000000
000000EFFF00000000
000001FFFD00000000
000004FFFB00000000
000006FFF900000000
000008FFF700000000
00000AFFF500000000
07DFFFFFFFFFC20000
5FFFFFFFFFFFF50000
3EFFFFFFFFFEA10000
ENDCHAR
STARTCHAR Icircumflex
ENCODING 206
SWIDTH 495 0
DWIDTH 14 0
BBX 17 34 -1 0
BITMAP
000000000047500000
000000000BFFF80000
000000008FFFFF1000
00000003FFE9FF7000
0000001DFF73FFD000
0000009FFD00EFF400
000001FFF500AFF700
000000CE80003ED200
000000000000000000
000000000000000000
00007DFFFFFFFFFD40
0001FFFFFFFFFFFF70
0001CFFFFFFFFFFB10
00000002FFFD000000
00000004FFFB000000
00000006FFF8000000
00000008FFF6000000
0000000BFFF3000000
0000000DFFF1000000
0000000FFFE0000000
0000002FFFB0000000
0000005FFF90000000
0000007FFF70000000
000000AFFF40000000
000000CFFF20000000
000000EFFF00000000
000001FFFD00000000
000004FFFB00000000
000006FFF900000000
000008FFF700000000
00000AFFF500000000
07DFFFFFFFFFC20000
5FFFFFFFFFFFF50000
3EFFFFFFFFFEA10000
ENDCHAR
STARTCHAR Idieresis
ENCODING 207
SWIDTH 495 0
DWIDTH 14 0
BBX 17 30 -1 0
BITMAP
0000005DE9006EE600
000000EFFF21FFFE00
000000FFFF12FFFD00
0000007EE6009ED400
000000000000000000
000000000000000000
00007DFFFFFFFFFD40
0001FFFFFFFFFFFF70
0001CFFFFFFFFFFB10
00000002FFFD000000
00000004FFFB000000
00000006FFF8000000
00000008FFF6000000
0000000BFFF3000000
0000000DFFF1000000
0000000FFFE0000000
0000002FFFB0000000
0000005FFF90000000
0000007FFF70000000
000000AFFF40000000
000000CFFF20000000
000000EFFF00000000
000001FFFD00000000
000004FFFB00000000
000006FFF900000000
000008FFF700000000
00000AFFF500000000
07DFFFFFFFFFC20000
5FFFFFFFFFFFF50000
3EFFFFFFFFFEA10000
ENDCHAR
STARTCHAR Eth
ENCODING 208
SWIDTH 821 0
DWIDTH 23 0
BBX 23 24 0 0
BITMAP
00000004BDEFFEB830000000
0000001EFFFFFFFFFB300000
0000006FFFFFFFFFFFF60000
000000BFFF20149FFFFF5000
000001FFFD000002CFFFE100
000005FFF80000001DFFF800
000009FFF400000006FFFE00
00000DFFF100000001FFFF30
00002FFFB000000000CFFF60
00005FFF8000000000AFFF70
19DFFFFFFFFFD70000AFFF70
7FFFFFFFFFFFFE0000AFFF60
5FFFFFFFFFFFF90000CFFF50
0005FFF90000000000EFFF20
0008FFF70000000004FFFD00
000AFFF40000000009FFF800
000DFFF2000000002FFFF200
000FFFE000000000BFFFA000
002FFFC00000000AFFFE1000
004FFFB0000002CFFFF40000
006FFF910136AFFFFE400000
007FFFFFFFFFFFFFC3000000
006FFFFFFFFFFFD600000000
0007BDEFFEDB830000000000
ENDCHAR
STARTCHAR Ntilde
ENCODING 209
SWIDTH 884 0
DWIDTH 25 0
BBX 29 32 0 0
BITMAP
000000000000374000000000000000
000000000007FFFB2004DD10000000
00000000004FFFFFE51EFF20000000
0000000000DFF8CFFFEFFA00000000
0000000002FFB008FFFFE100000000
00000000005600003BEB3000000000
000000000000000000000000000000
000000000000000000000000000000
00005BDEC3000004ADFEA300000000
002CFFFFFD0001AFFFFFFE30000000
02EFFFFFFF400BFFFFFFFFB0000000
2DFF827FFF609FF8217FFFF1000000
AFF5004FFF64FF40000EFFF3000000
FF70005FFF5CF600000DFFF3000000
9800006FFF8FB000000EFFF1000000
0000008FFFCF3000002FFFE0000000
000000AFFFFB0000005FFFB0000000
000000CFFFF40000008FFF80000000
000000EFFFD0000000CFFF50000000
000001FFFF90000000EFFF20000000
000003FFFF40000003FFFD00000000
000005FFFF00000006FFFA00000000
000007FFFB00000009FFF700000000
00000AFFF80000000CFFF400000000
00000CFFF50000000EFFF100000000
00000EFFF20000001FFFE000000200
00002FFFE00000001FFFD000007F40
00004FFFC00000001FFFF00005FF40
00006FFFA00000000DFFF9128FFD10
00006FFF8000000007FFFFFFFFD200
00005FFF5000000000BFFFFFFC2000
00001CFB000000000007CEEB600000
ENDCHAR
STARTCHAR Ograve
ENCODING 210
SWIDTH 816 0
DWIDTH 23 0
BBX 22 33 1 0
BITMAP
0000016500000000000000
00000BFFA1000000000000
00000DFFFC100000000000
000006FFFFD30000000000
0000003AFFFE5000000000
000000003BFFF300000000
00000000003BE300000000
0000000000000000000000
0000000000000000000000
0000000038CEFEC8200000
0000003BFFFFFFFFF80000
000006FFFFFFFFFFFFB000
00006FFFFA4113AFFFF800
0004FFFF50000007FFFF30
001DFFF600000000BFFF90
007FFFA0000000005FFFE0
00EFFF20000000001FFFF2
05FFFC00000000000DFFF4
09FFF800000000000CFFF5
0DFFF400000000000CFFF5
0FFFF100000000000DFFF4
2FFFF000000000000EFFF2
3FFFE000000000002FFFE0
3FFFE000000000006FFFB0
2FFFF000000000009FFF70
0FFFF20000000001EFFF10
0CFFF70000000008FFF900
08FFFD000000003FFFE200
01EFFF90000004EFFF6000
007FFFFB41149FFFF80000
0009FFFFFFFFFFFF800000
00007EFFFFFFFFC4000000
0000017BEFEC9400000000
ENDCHAR
STARTCHAR Oacute
ENCODING 211
SWIDTH 816 0
DWIDTH 23 0
BBX 22 33 1 0
BITMAP
0000000000000000047100
00000000000000009FFC00
000000000000001BFFFE00
00000000000002DFFFF700
0000000000004EFFFB3000
000000000002FFFB300000
000000000003EB40000000
0000000000000000000000
0000000000000000000000
0000000038CEFEC8200000
0000003BFFFFFFFFF80000
000006FFFFFFFFFFFFB000
00006FFFFA4113AFFFF800
0004FFFF50000007FFFF30
001DFFF600000000BFFF90
007FFFA0000000005FFFE0
00EFFF20000000001FFFF2
05FFFC00000000000DFFF4
09FFF800000000000CFFF5
0DFFF400000000000CFFF5
0FFFF100000000000DFFF4
2FFFF000000000000EFFF2
3FFFE000000000002FFFE0
3FFFE000000000006FFFB0
2FFFF000000000009FFF70
0FFFF20000000001EFFF10
0CFFF70000000008FFF900
08FFFD000000003FFFE200
01EFFF90000004EFFF6000
007FFFFB41149FFFF80000
0009FFFFFFFFFFFF800000
00007EFFFFFFFFC4000000
0000017BEFEC9400000000
ENDCHAR
STARTCHAR Ocircumflex
ENCODING 212
SWIDTH 816 0
DWIDTH 23 0
BBX 22 34 1 0
BITMAP
0000000000004750000000
00000000000AFFF8000000
00000000007FFFFF200000
0000000003FFE8FF800000
000000000CFF83FFD00000
000000008FFE10DFF40000
00000001FFF6009FF80000
00000000BE90003DD30000
0000000000000000000000
0000000000000000000000
0000000038CEFEC8200000
0000003BFFFFFFFFF80000
000006FFFFFFFFFFFFB000
00006FFFFA4113AFFFF800
0004FFFF50000007FFFF30
001DFFF600000000BFFF90
007FFFA0000000005FFFE0
00EFFF20000000001FFFF2
05FFFC00000000000DFFF4
09FFF800000000000CFFF5
0DFFF400000000000CFFF5
0FFFF100000000000DFFF4
2FFFF000000000000EFFF2
3FFFE000000000002FFFE0
3FFFE000000000006FFFB0
2FFFF000000000009FFF70
0FFFF20000000001EFFF10
0CFFF70000000008FFF900
08FFFD000000003FFFE200
01EFFF90000004EFFF6000
007FFFFB41149FFFF80000
0009FFFFFFFFFFFF800000
00007EFFFFFFFFC4000000
0000017BEFEC9400000000
ENDCHAR
STARTCHAR Otilde
ENCODING 213
SWIDTH 816 0
DWIDTH 23 0
BBX 22 32 1 0
BITMAP
0000000003750000000000
000000006FFFC2003DD200
00000004FFFFFE61DFF200
0000000CFF9CFFFEFFB000
0000001FFB007FFFFE2000
00000005610003BEC30000
0000000000000000000000
0000000000000000000000
0000000038CEFEC8200000
0000003BFFFFFFFFF80000
000006FFFFFFFFFFFFB000
00006FFFFA4113AFFFF800
0004FFFF50000007FFFF30
001DFFF600000000BFFF90
007FFFA0000000005FFFE0
00EFFF20000000001FFFF2
05FFFC00000000000DFFF4
09FFF800000000000CFFF5
0DFFF400000000000CFFF5
0FFFF100000000000DFFF4
2FFFF000000000000EFFF2
3FFFE000000000002FFFE0
3FFFE000000000006FFFB0
2FFFF000000000009FFF70
0FFFF20000000001EFFF10
0CFFF70000000008FFF900
08FFFD000000003FFFE200
01EFFF90000004EFFF6000
007FFFFB41149FFFF80000
0009FFFFFFFFFFFF800000
00007EFFFFFFFFC4000000
0000017BEFEC9400000000
ENDCHAR
STARTCHAR Odieresis
ENCODING 214
SWIDTH 816 0
DWIDTH 23 0
BBX 22 30 1 0
BITMAP
000000004DE9006EE70000
00000000DFFF21FFFE0000
00000000EFFF12FFFE0000
000000006EE6009ED40000
0000000000000000000000
0000000000000000000000
0000000038CEFEC8200000
0000003BFFFFFFFFF80000
000006FFFFFFFFFFFFB000
00006FFFFA4113AFFFF800
0004FFFF50000007FFFF30
001DFFF600000000BFFF90
007FFFA0000000005FFFE0
00EFFF20000000001FFFF2
05FFFC00000000000DFFF4
09FFF800000000000CFFF5
0DFFF400000000000CFFF5
0FFFF100000000000DFFF4
2FFFF000000000000EFFF2
3FFFE000000000002FFFE0
3FFFE000000000006FFFB0
2FFFF000000000009FFF70
0FFFF20000000001EFFF10
0CFFF70000000008FFF900
08FFFD000000003FFFE200
01EFFF90000004EFFF6000
007FFFFB41149FFFF80000
0009FFFFFFFFFFFF800000
00007EFFFFFFFFC4000000
0000017BEFEC9400000000
ENDCHAR
STARTCHAR multiply
ENCODING 215
SWIDTH 700 0
DWIDTH 20 0
BBX 14 13 3 2
BITMAP
00560000000271
07FF8000004EFB
0BFFF60006FFFB
03FFFF507FFFD2
005FFFEAFFFC10
0006FFFFFFA100
00009FFFF90000
0002DFFFFC1000
004EFFFFFFB000
05FFFE4CFFFA00
6FFFD201DFFF70
DFFC10002EFFA0
7EA1000003DC20
ENDCHAR
STARTCHAR Oslash
ENCODING 216
SWIDTH 816 0
DWIDTH 23 0
BBX 22 29 1 -3
BITMAP
00000000000009EC100000
0000000000002FFE100000
0000000038CEFFFD200000
0000003BFFFFFFFFF80000
000006FFFFFFFFFFFFB000
00006FFFF935FFEFFFF900
0004FFFF4008FF88FFFF30
000DFFF5000CFF40CFFFA0
007FFFA0001FFE005FFFE0
00EFFF30004FFB001FFFF2
05FFFB00008FF7000DFFF4
09FFF70000CFF3000CFFF5
0CFFF40001FFE0000CFFF5
0FFFF10004FFA0000DFFF4
2FFFF00008FF60000EFFF2
2FFFE0000CFF20001FFFE0
3FFFE0001FFE00005FFFB0
2FFFF0005FFA00009FFF70
1FFFF3009FF60001EFFF10
0CFFF700DFF20008FFF900
08FFFD02FFE0003FFFE200
02FFFF96FFA002EFFF6000
007FFFFEFF738EFFF80000
000AFFFFFFFFFFFF800000
00008FFFFFFFFFC4000000
000002BFFFEC9400000000
000000BFF5000000000000
000000FFF1000000000000
000000AE90000000000000
ENDCHAR
STARTCHAR Ugrave
ENCODING 217
SWIDTH 890 0
DWIDTH 25 0
BBX 29 33 0 0
BITMAP
000000004710000000000000000000
00000004FFE3000000000000000000
00000007FFFF500000000000000000
00000001DFFFF80000000000000000
0000000017EFFFA100000000000000
000000000017EFFA00000000000000
00000000000018E900000000000000
000000000000000000000000000000
000000000000000000000000000000
00004ADFD60000000001CEA0000000
002BFFFFFF6000000006FFF3000000
02EFFFFFFFD000000009FFF5000000
1DFFA33FFFF10000000BFFF4000000
9FF7000EFFF10000000EFFF3000000
EF90000FFFF00000001FFFF1000000
CB00002FFFE00000003FFFD0000000
0000004FFFC00000006FFFB0000000
0000007FFF900000009FFF80000000
000000BFFF60000000DFFF60000000
000000EFFF30000002FFFF40000000
000002FFFE00000006FFFF10000000
000005FFFB0000000AFFFE00000000
000008FFF80000001FFFFC00000000
00000CFFF50000006FFFFA00000000
00000EFFF1000000DFFFF800000000
00003FFFD0000005FDFFF600000000
00005FFFA000001DF9FFF400000000
00006FFF9000009F99FFF300003D50
00007FFFA00007FE2AFFF50003EF70
00005FFFF413AFF609FFFC216EFF30
00001EFFFFFFFF9005FFFFFFFFF500
000006FFFFFFF80000BFFFFFFD4000
0000004BEFD930000007CEEC710000
ENDCHAR
STARTCHAR Uacute
ENCODING 218
SWIDTH 890 0
DWIDTH 25 0
BBX 29 33 0 0
BITMAP
000000000000000000027400000000
0000000000000000004EFF30000000
000000000000000006FFFF60000000
00000000000000009FFFFC10000000
000000000000001BFFFE6000000000
00000000000000BFFE710000000000
00000000000000AE71000000000000
000000000000000000000000000000
000000000000000000000000000000
00004ADFD60000000001CEA0000000
002BFFFFFF6000000006FFF3000000
02EFFFFFFFD000000009FFF5000000
1DFFA33FFFF10000000BFFF4000000
9FF7000EFFF10000000EFFF3000000
EF90000FFFF00000001FFFF1000000
CB00002FFFE00000003FFFD0000000
0000004FFFC00000006FFFB0000000
0000007FFF900000009FFF80000000
000000BFFF60000000DFFF60000000
000000EFFF30000002FFFF40000000
000002FFFE00000006FFFF10000000
000005FFFB0000000AFFFE00000000
000008FFF80000001FFFFC00000000
00000CFFF50000006FFFFA00000000
00000EFFF1000000DFFFF800000000
00003FFFD0000005FDFFF600000000
00005FFFA000001DF9FFF400000000
00006FFF9000009F99FFF300003D50
00007FFFA00007FE2AFFF50003EF70
00005FFFF413AFF609FFFC216EFF30
00001EFFFFFFFF9005FFFFFFFFF500
000006FFFFFFF80000BFFFFFFD4000
0000004BEFD930000007CEEC710000
ENDCHAR
STARTCHAR Ucircumflex
ENCODING 219
SWIDTH 890 0
DWIDTH 25 0
BBX 29 34 0 0
BITMAP
000000000000002672000000000000
00000000000005EFFE100000000000
0000000000002EFFFF800000000000
000000000000BFF8FFE00000000000
000000000007FFD1BFF50000000000
00000000002EFF507FFB0000000000
00000000009FFC003FFE0000000000
00000000006EC2000AE80000000000
000000000000000000000000000000
000000000000000000000000000000
00004ADFD60000000001CEA0000000
002BFFFFFF6000000006FFF3000000
02EFFFFFFFD000000009FFF5000000
1DFFA33FFFF10000000BFFF4000000
9FF7000EFFF10000000EFFF3000000
EF90000FFFF00000001FFFF1000000
CB00002FFFE00000003FFFD0000000
0000004FFFC00000006FFFB0000000
0000007FFF900000009FFF80000000
000000BFFF60000000DFFF60000000
000000EFFF30000002FFFF40000000
000002FFFE00000006FFFF10000000
000005FFFB0000000AFFFE00000000
000008FFF80000001FFFFC00000000
00000CFFF50000006FFFFA00000000
00000EFFF1000000DFFFF800000000
00003FFFD0000005FDFFF600000000
00005FFFA000001DF9FFF400000000
00006FFF9000009F99FFF300003D50
00007FFFA00007FE2AFFF50003EF70
00005FFFF413AFF609FFFC216EFF30
00001EFFFFFFFF9005FFFFFFFFF500
000006FFFFFFF80000BFFFFFFD4000
0000004BEFD930000007CEEC710000
ENDCHAR
STARTCHAR Udieresis
ENCODING 220
SWIDTH 890 0
DWIDTH 25 0
BBX 29 30 0 0
BITMAP
00000000001AEC202CEB1000000000
00000000007FFF90AFFF6000000000
00000000008FFF80BFFF5000000000
00000000002CEB104DE90000000000
000000000000000000000000000000
000000000000000000000000000000
00004ADFD60000000001CEA0000000
002BFFFFFF6000000006FFF3000000
02EFFFFFFFD000000009FFF5000000
1DFFA33FFFF10000000BFFF4000000
9FF7000EFFF10000000EFFF3000000
EF90000FFFF00000001FFFF1000000
CB00002FFFE00000003FFFD0000000
0000004FFFC00000006FFFB0000000
0000007FFF900000009FFF80000000
000000BFFF60000000DFFF60000000
000000EFFF30000002FFFF40000000
000002FFFE00000006FFFF10000000
000005FFFB0000000AFFFE00000000
000008FFF80000001FFFFC00000000
00000CFFF50000006FFFFA00000000
00000EFFF1000000DFFFF800000000
00003FFFD0000005FDFFF600000000
00005FFFA000001DF9FFF400000000
00006FFF9000009F99FFF300003D50
00007FFFA00007FE2AFFF50003EF70
00005FFFF413AFF609FFFC216EFF30
00001EFFFFFFFF9005FFFFFFFFF500
000006FFFFFFF80000BFFFFFFD4000
0000004BEFD930000007CEEC710000
ENDCHAR
STARTCHAR Yacute
ENCODING 221
SWIDTH 851 0
DWIDTH 24 0
BBX 27 41 0 -8
BITMAP
0000000000000000000066000000
0000000000000000001BFF900000
000000000000000002DFFFC00000
00000000000000004EFFFE400000
0000000000000006FFFF92000000
000000000000005FFFA200000000
000000000000005EA20000000000
0000000000000000000000000000
0000000000000000000000000000
00005BDFD70000000001BEC10000
002CFFFFFF6000000006FFF60000
03EFFFFFFFD000000009FFF60000
2EFF923FFFF00000000CFFF40000
AFF6000EFFF10000000EFFF20000
FF60000FFFF00000002FFFF00000
8700002FFFD00000005FFFD00000
0000005FFFB00000008FFFA00000
0000008FFF80000000CFFF800000
000000CFFF50000002FFFF600000
000000FFFF10000007FFFF300000
000003FFFD0000000DFFFF100000
000006FFF90000006FFFFE000000
000008FFF7000001DFEFFC000000
000009FFF6000009FBEFF9000000
000009FFF800007FF5FFF7000000
000007FFFE413AFF84FFF5000000
000002FFFFFFFFFB06FFF458BEA0
0000006FFFFFFF9008FFFFFFFFC0
00000004BEFDA305AFFFFFFFFD50
00000000000017DFFFFFEB841000
000000000007EFFEAFFF90000000
0000000002CFFE714FFF60000000
000000003EFF91006FFF30000000
00000001EFF60000AFFE00000000
00000009FFA00001EFF900000000
0000001EFF400007FFF400000000
0000003FFF30002EFFB000000000
0000003FFFB215EFFF3000000000
0000000EFFFFFFFFF50000000000
00000005FFFFFFFE500000000000
000000004AEFEC71000000000000
ENDCHAR
STARTCHAR Thorn
ENCODING 222
SWIDTH 776 0
DWIDTH 22 0
BBX 21 29 1 -3
BITMAP
0000000002CFC100000000
0000000009FFF400000000
000000000BFFF300000000
000000000EFFF100000000
000000001FFFE000000000
000000003FFFC000000000
00000006CFFFFEDA610000
000004DFFFFFFFFFFE5000
00006FFFFFFFFFFFFFF600
0005FFFFEFFF426DFFFF20
002EFFD3DFFF1002EFFF80
00BFFD11FFFE00008FFFB0
03FFF303FFFC00005FFFD0
0AFF9005FFF900006FFFB0
1FFF3008FFF70000AFFF80
4FFE000AFFF40003FFFF20
7FFA000CFFF2003DFFF900
AFF8035FFFF46BFFFFB000
BFF61FFFFFFFFFFFF91000
CFF51FFFFFFFFFFB400000
CFF403BFFFC98510000000
BFF500AFFF300000000000
AFF600DFFF100000000000
7FF801FFFD000000000000
3FFC04FFFA000000000000
0CFF3AFFF6000000000000
04FFFFFFF1000000000000
007FFFFF90000000000000
0005CFD800000000000000
ENDCHAR
STARTCHAR germandbls
ENCODING 223
SWIDTH 596 0
DWIDTH 17 0
BBX 20 28 1 -6
BITMAP
00000039DFEC60000000
000019FFFFFFFB000000
0000BFFFFFFFFF800000
0009FFF9213DFFD00000
004FFF800006FFF00000
00BFFC000006FFE00000
02FFF500001CFFA00000
07FFE00003CFFE200000
0BFFB0006FFFE3000000
0EFF7008FFFC20000000
2FFF504FFFA000000000
4FFF308FFF3000000000
5FFF108FFF9000000000
7FFF003FFFFA10000000
7FFF0008FFFFEDCA7300
8FFE006EFFFFFFFFFFB0
9FFE07FFFABFFFFBEFF3
9FFD1EFF500AFFF11680
AFFD3FFF0006FFF10000
AFFD2FFF934CFFC00000
BFFD08FFFFFFFE300000
BFFD005BEFEC81000000
BFFC0000000000000000
CFFC0000000000000000
CFFC0000000000000000
CFFC0000000000000000
CFFC0000000000000000
7EE60000000000000000
ENDCHAR
STARTCHAR agrave
ENCODING 224
SWIDTH 470 0
DWIDTH 13 0
BBX 16 24 1 0
BITMAP
0003720000000000
003FFD0000000000
005FFF5000000000
001EFFC000000000
0005FFF300000000
00008FFA00000000
00000BFF20000000
000001DF80000000
0000003E60000000
0000000000000000
0000000000000000
00003AEF50000000
0008FFFFDCB10000
00AFFFFFFFF20000
06FFFD55FFF00000
1EFFD108FFD00000
7FFF400BFFA00000
CFFC000EFF700000
EFF9003FFF4002D9
FFF8008FFF301DFB
EFFC15FFFF53DFF6
AFFFFFFDFFFFFF80
3FFFFFA2EFFFF700
04CFD8003CEB4000
ENDCHAR
STARTCHAR aacute
ENCODING 225
SWIDTH 470 0
DWIDTH 13 0
BBX 16 24 1 0
BITMAP
0000000000660000
0000000007FF9000
000000000EFFB000
000000006FFF6000
00000000DFFA0000
00000004FFD10000
0000000BFE300000
0000002FF5000000
0000002E80000000
0000000000000000
0000000000000000
00003AEF50000000
0008FFFFDCB10000
00AFFFFFFFF20000
06FFFD55FFF00000
1EFFD108FFD00000
7FFF400BFFA00000
CFFC000EFF700000
EFF9003FFF4002D9
FFF8008FFF301DFB
EFFC15FFFF53DFF6
AFFFFFFDFFFFFF80
3FFFFFA2EFFFF700
04CFD8003CEB4000
ENDCHAR
STARTCHAR acircumflex
ENCODING 226
SWIDTH 470 0
DWIDTH 13 0
BBX 16 24 1 0
BITMAP
00000008ED400000
0000008FFFC00000
000002FFFFF20000
00000BFF7FF60000
00005FFA3FF90000
0001DFF31FFD0000
0008FFA00EFF2000
001EFF200CFF4000
000CE60006EC1000
0000000000000000
0000000000000000
00003AEF50000000
0008FFFFDCB10000
00AFFFFFFFF20000
06FFFD55FFF00000
1EFFD108FFD00000
7FFF400BFFA00000
CFFC000EFF700000
EFF9003FFF4002D9
FFF8008FFF301DFB
EFFC15FFFF53DFF6
AFFFFFFDFFFFFF80
3FFFFFA2EFFFF700
04CFD8003CEB4000
ENDCHAR
STARTCHAR atilde
ENCODING 227
SWIDTH 470 0
DWIDTH 13 0
BBX 16 21 1 0
BITMAP
0000374000000000
0006FFFB1004DC00
003FFFFFE51EFF10
00BFF8CFFFDFF800
00FFA007FFFFC100
004600003BEB1000
0000000000000000
0000000000000000
00003AEF50000000
0008FFFFDCB10000
00AFFFFFFFF20000
06FFFD55FFF00000
1EFFD108FFD00000
7FFF400BFFA00000
CFFC000EFF700000
EFF9003FFF4002D9
FFF8008FFF301DFB
EFFC15FFFF53DFF6
AFFFFFFDFFFFFF80
3FFFFFA2EFFFF700
04CFD8003CEB4000
ENDCHAR
STARTCHAR adieresis
ENCODING 228
SWIDTH 470 0
DWIDTH 13 0
BBX 16 19 1 0
BITMAP
0004DE8006EE6000
000DFFF11FFFD000
000EFFE02FFFC000
0007ED5009ED3000
0000000000000000
0000000000000000
00003AEF50000000
0008FFFFDCB10000
00AFFFFFFFF20000
06FFFD55FFF00000
1EFFD108FFD00000
7FFF400BFFA00000
CFFC000EFF700000
EFF9003FFF4002D9
FFF8008FFF301DFB
EFFC15FFFF53DFF6
AFFFFFFDFFFFFF80
3FFFFFA2EFFFF700
04CFD8003CEB4000
ENDCHAR
STARTCHAR aring
ENCODING 229
SWIDTH 470 0
DWIDTH 13 0
BBX 16 23 1 0
BITMAP
0000018EFC400000
00000BFFFFF40000
00005FFFFFFB0000
00008FE31CFD0000
00009FE32CFC0000
00007FFFFFF80000
00001DFFFFD10000
000002AEEA200000
0000000000000000
0000000000000000
00003AEF50000000
0008FFFFDCB10000
00AFFFFFFFF20000
06FFFD55FFF00000
1EFFD108FFD00000
7FFF400BFFA00000
CFFC000EFF700000
EFF9003FFF4002D9
FFF8008FFF301DFB
EFFC15FFFF53DFF6
AFFFFFFDFFFFFF80
3FFFFFA2EFFFF700
04CFD8003CEB4000
ENDCHAR
STARTCHAR ae
ENCODING 230
SWIDTH 653 0
DWIDTH 18 0
BBX 21 13 1 0
BITMAP
000028CEF529DFD7000000
0008FFFFFDEFFFFF700000
00BFFFFFFFFFFFFFE00000
08FFFC52CFFC22EFF10000
2FFFA004FFF200EFE00000
8FFE1009FFC008FF900000
CFFA000DFFB6CFFC100120
EFF8002FFFFFFF81003EC0
EFF8007FFFFB610006EFC0
DFFD24EFFFFA3126CFFF60
9FFFFFFEBFFFFFFFFFF700
2EFFFFF51CFFFFFFFD4000
02AEEB30006BEFEB600000
ENDCHAR
STARTCHAR ccedilla
ENCODING 231
SWIDTH 368 0
DWIDTH 10 0
BBX 14 20 0 -7
BITMAP
00004BEEA20000
0009FFFFFD0000
008FFFFFFF3000
03FFFB28FF5000
09FFE108FF2000
0DFFA008F80000
0FFF7000000012
1FFF80000002DC
0FFFB000004DFD
0BFFF82139FFF7
04FFFFFFFFFF90
007FFFFFFFE600
000AFFFFE71000
0008FFFFF30000
0000018FF90000
0000001FFA0000
0000029FF80000
02EFFFFFF20000
05FFFFFF600000
01BEFDA3000000
ENDCHAR
STARTCHAR egrave
ENCODING 232
SWIDTH 393 0
DWIDTH 11 0
BBX 15 24 0 0
BITMAP
0004610000000000
005FFA0000000000
008FFF2000000000
003FFF9000000000
0007FFE100000000
0000BFF700000000
00001DFE00000000
000003FF50000000
0000005E40000000
0000000000000000
0000000000000000
00004BDEC4000000
0009FFFFFF400000
008FFFFFFFA00000
03FFF916FFC00000
09FFD003FFB00000
0DFF701CFF500000
0FFF87EFF9000310
1FFFFFFE60006F80
0EFFE9500019FF80
0AFFF72137EFFE30
03FFFFFFFFFFE400
005FFFFFFFFB2000
00029DEFDA400000
ENDCHAR
STARTCHAR eacute
ENCODING 233
SWIDTH 393 0
DWIDTH 11 0
BBX 15 24 0 0
BITMAP
0000000001650000
000000000AFF6000
000000002FFF8000
000000009FFF3000
00000001EFF70000
00000007FFB00000
0000000DFD100000
0000005FF3000000
0000004E60000000
0000000000000000
0000000000000000
00004BDEC4000000
0009FFFFFF400000
008FFFFFFFA00000
03FFF916FFC00000
09FFD003FFB00000
0DFF701CFF500000
0FFF87EFF9000310
1FFFFFFE60006F80
0EFFE9500019FF80
0AFFF72137EFFE30
03FFFFFFFFFFE400
005FFFFFFFFB2000
00029DEFDA400000
ENDCHAR
STARTCHAR ecircumflex
ENCODING 234
SWIDTH 393 0
DWIDTH 11 0
BBX 15 24 0 0
BITMAP
0000001AEC200000
000000AFFFA00000
000005FFFFE00000
00000DFE8FF30000
00007FF75FF70000
0002EFE13FFB0000
000AFF701FFE0000
002FFE100EFF2000
002DE40008EA0000
0000000000000000
0000000000000000
00004BDEC4000000
0009FFFFFF400000
008FFFFFFFA00000
03FFF916FFC00000
09FFD003FFB00000
0DFF701CFF500000
0FFF87EFF9000310
1FFFFFFE60006F80
0EFFE9500019FF80
0AFFF72137EFFE30
03FFFFFFFFFFE400
005FFFFFFFFB2000
00029DEFDA400000
ENDCHAR
STARTCHAR edieresis
ENCODING 235
SWIDTH 393 0
DWIDTH 11 0
BBX 15 19 0 0
BITMAP
0006EE6009ED4000
001FFFD04FFFA000
002FFFC05FFF9000
0009ED301BEC2000
0000000000000000
0000000000000000
00004BDEC4000000
0009FFFFFF400000
008FFFFFFFA00000
03FFF916FFC00000
09FFD003FFB00000
0DFF701CFF500000
0FFF87EFF9000310
1FFFFFFE60006F80
0EFFE9500019FF80
0AFFF72137EFFE30
03FFFFFFFFFFE400
005FFFFFFFFB2000
00029DEFDA400000
ENDCHAR
STARTCHAR igrave
ENCODING 236
SWIDTH 246 0
DWIDTH 7 0
BBX 12 24 -1 0
BITMAP
037200000000
2FFD00000000
5FFF60000000
1EFFC0000000
04FFF4000000
007FFB000000
000BFF300000
0001DF900000
00003E700000
000000000000
000000000000
0001CFA00000
0008FFD00000
000CFFA00000
001FFF800000
004FFF500000
006FFF100000
008FFE000030
00AFFB0006F6
00AFFB005FF6
009FFE26FFE1
006FFFFFFE30
000EFFFFE300
0003CFD81000
ENDCHAR
STARTCHAR iacute
ENCODING 237
SWIDTH 246 0
DWIDTH 7 0
BBX 10 24 1 0
BITMAP
0000005600
000006FF90
00000DFFC0
00005FFF70
0000CFFB00
0004FFD100
000AFF3000
002FF60000
002E900000
0000000000
0000000000
01CFA00000
08FFD00000
0CFFA00000
1FFF800000
4FFF500000
6FFF100000
8FFE000030
AFFB0006F6
AFFB005FF6
9FFE26FFE1
6FFFFFFE30
0EFFFFE300
03CFD81000
ENDCHAR
STARTCHAR icircumflex
ENCODING 238
SWIDTH 246 0
DWIDTH 7 0
BBX 11 24 0 0
BITMAP
00008EE40000
0007FFFD0000
002EFFFF3000
00AFF7FF6000
04FFB2FFA000
0DFF30FFE000
7FFB00DFF300
EFF300BFF500
CE70005EC100
000000000000
000000000000
001CFA000000
008FFD000000
00CFFA000000
01FFF8000000
04FFF5000000
06FFF1000000
08FFE0000300
0AFFB0006F60
0AFFB005FF60
09FFE26FFE10
06FFFFFFE300
00EFFFFE3000
003CFD810000
ENDCHAR
STARTCHAR idieresis
ENCODING 239
SWIDTH 246 0
DWIDTH 7 0
BBX 11 19 0 0
BITMAP
4DE8006EE600
DFFF11FFFE00
EFFF11FFFD00
6EE6009ED400
000000000000
000000000000
001CFA000000
008FFD000000
00CFFA000000
01FFF8000000
04FFF5000000
06FFF1000000
08FFE0000300
0AFFB0006F60
0AFFB005FF60
09FFE26FFE10
06FFFFFFE300
00EFFFFE3000
003CFD810000
ENDCHAR
STARTCHAR eth
ENCODING 240
SWIDTH 451 0
DWIDTH 13 0
BBX 15 26 0 0
BITMAP
00008EC300000000
0000CFFE20004810
00002DFFD119FF60
000003FFFADFFF30
0000007FFFFFE500
0000029FFFFB2000
00018FFFFFF30000
0005FFFDEFF80000
0001CD609FFD0000
000000006FFF2000
000000002FFF5000
000000001FFF7000
000000000EFF9000
00005BEEBEFFA000
001AFFFFFFFFB000
009FFFFFFFFFA000
04FFFA217FFF9000
09FFE0000DFF8000
0DFF90000FFF6000
0FFF70003FFF3000
1FFF70007FFE0000
0EFFA000DFF90000
0AFFF619FFF30000
03FFFFFFFF900000
007FFFFFFB000000
0004BEFC60000000
ENDCHAR
STARTCHAR ntilde
ENCODING 241
SWIDTH 496 0
DWIDTH 14 0
BBX 17 21 1 0
BITMAP
000027500000000000
0003EFFC3002CD2000
001EFFFFF70CFF3000
009FF9AFFFDFFB0000
00DFD106EFFFE20000
003710002AEC300000
000000000000000000
000000000000000000
01BEB0018EE6000000
08FFB02DFFFD000000
0CFF71DFFFFD000000
1FFF4AFFFFFB000000
4FFF5FF7EFF8000000
6FFDBF80FFF5000000
8FFEFE12FFF2000300
8FFFF705FFE0006F60
9FFFF108FFC005FF60
8FFFA009FFD16FFE10
7FFF6009FFFFFFE300
4FFF2005FFFFFD3000
0BE800007DEC710000
ENDCHAR
STARTCHAR ograve
ENCODING 242
SWIDTH 451 0
DWIDTH 13 0
BBX 17 24 0 0
BITMAP
000560000000000000
007FF9000000000000
00AFFE100000000000
005FFF700000000000
0009FFE00000000000
0000CFF60000000000
00002EFC0000000000
000004FF4000000000
0000007E3000000000
000000000000000000
000000000000000000
00005BEFC600000000
000AFFFFFF90000000
009FFFFFFFF5000000
04FFFA2DFFFB000000
09FFE10DFFFF125810
0DFF9009FFFFFFFF50
0FFF7002EFFFFFFF40
1FFF70004FFFEDA600
0EFFA0007FFB000000
0AFFF615EFF5000000
03FFFFFFFFB0000000
007FFFFFFC10000000
0004BEFC7000000000
ENDCHAR
STARTCHAR oacute
ENCODING 243
SWIDTH 451 0
DWIDTH 13 0
BBX 17 24 0 0
BITMAP
000000000174000000
000000000CFF400000
000000004FFF700000
00000000AFFE200000
00000002FFF6000000
00000009FF90000000
0000001EFC00000000
0000007FE200000000
0000006E4000000000
000000000000000000
000000000000000000
00005BEFC600000000
000AFFFFFF90000000
009FFFFFFFF5000000
04FFFA2DFFFB000000
09FFE10DFFFF125810
0DFF9009FFFFFFFF50
0FFF7002EFFFFFFF40
1FFF70004FFFEDA600
0EFFA0007FFB000000
0AFFF615EFF5000000
03FFFFFFFFB0000000
007FFFFFFC10000000
0004BEFC7000000000
ENDCHAR
STARTCHAR ocircumflex
ENCODING 244
SWIDTH 451 0
DWIDTH 13 0
BBX 17 24 0 0
BITMAP
0000001BEC10000000
000000CFFF80000000
000006FFFFD0000000
00001EFD9FF1000000
00009FF67FF5000000
0003FFD05FF9000000
000CFF603FFD000000
004FFD001FFF000000
003DD30009F9000000
000000000000000000
000000000000000000
00005BEFC600000000
000AFFFFFF90000000
009FFFFFFFF5000000
04FFFA2DFFFB000000
09FFE10DFFFF125810
0DFF9009FFFFFFFF50
0FFF7002EFFFFFFF40
1FFF70004FFFEDA600
0EFFA0007FFB000000
0AFFF615EFF5000000
03FFFFFFFFB0000000
007FFFFFFC10000000
0004BEFC7000000000
ENDCHAR
STARTCHAR otilde
ENCODING 245
SWIDTH 451 0
DWIDTH 13 0
BBX 17 21 0 0
BITMAP
000057300000000000
000AFFF80007E80000
007FFFFFC24FFB0000
01EFE7EFFEEFF40000
05FF601AFFFF800000
006500005DE8000000
000000000000000000
000000000000000000
00005BEFC600000000
000AFFFFFF90000000
009FFFFFFFF5000000
04FFFA2DFFFB000000
09FFE10DFFFF125810
0DFF9009FFFFFFFF50
0FFF7002EFFFFFFF40
1FFF70004FFFEDA600
0EFFA0007FFB000000
0AFFF615EFF5000000
03FFFFFFFFB0000000
007FFFFFFC10000000
0004BEFC7000000000
ENDCHAR
STARTCHAR odieresis
ENCODING 246
SWIDTH 451 0
DWIDTH 13 0
BBX 17 19 0 0
BITMAP
0008ED400AED200000
003FFFB06FFF900000
004FFFA07FFF700000
000BEC202CEB100000
000000000000000000
000000000000000000
00005BEFC600000000
000AFFFFFF90000000
009FFFFFFFF5000000
04FFFA2DFFFB000000
09FFE10DFFFF125810
0DFF9009FFFFFFFF50
0FFF7002EFFFFFFF40
1FFF70004FFFEDA600
0EFFA0007FFB000000
0AFFF615EFF5000000
03FFFFFFFFB0000000
007FFFFFFC10000000
0004BEFC7000000000
ENDCHAR
STARTCHAR divide
ENCODING 247
SWIDTH 700 0
DWIDTH 20 0
BBX 16 15 2 0
BITMAP
0000001BED300000
0000008FFF900000
0000009FFF800000
0000002CEB100000
0000000000000000
0000000000000000
3DFFFFFFFFFFFFF5
9FFFFFFFFFFFFFF9
5EFFFFFFFFFFFFD3
0000000000000000
0000000000000000
000005DEA0000000
00000EFFF3000000
00000FFFF2000000
000006EE70000000
ENDCHAR
STARTCHAR oslash
ENCODING 248
SWIDTH 459 0
DWIDTH 13 0
BBX 17 21 0 -4
BITMAP
000000027100000000
0000000BF500000000
0000000DF200000000
0000001FE000000000
00006CEFE600000000
001BFFFFFFB1000000
00AFFFFFFFF8000000
04FFF8BFBFFF100000
09FFC0EF2FFF525830
0DFF71FD0DFFFFFF80
0FFF64FA0DFFFFFF70
1FFF66F80FFFDC9600
0EFF89F54FFE000000
0AFFEDF4CFF8000000
04FFFFFFFFD1000000
008FFFFFFE30000000
0006DFFD9200000000
00008F700000000000
0000BF400000000000
0000EF200000000000
000055000000000000
ENDCHAR
STARTCHAR ugrave
ENCODING 249
SWIDTH 462 0
DWIDTH 13 0
BBX 16 24 1 0
BITMAP
0006600000000000
008FF70000000000
00BFFE0000000000
006FFF6000000000
000AFFD000000000
0001DFF400000000
00003EFB00000000
000006FF20000000
0000008E20000000
0000000000000000
0000000000000000
00AED0005EE30000
06FFD000DFF30000
0BFFA003FFF10000
1FFF6008FFC00000
3FFF300DFF900000
6FFF004FFF600000
8FFD00BFFF300031
9FFB04FFFF0006F7
AFFC2DFFFD004FF7
9FFFFFCFFE26FFE2
7FFFFF5FFFFFFF40
1EFFF90DFFFFE300
04DE9004DEC81000
ENDCHAR
STARTCHAR uacute
ENCODING 250
SWIDTH 462 0
DWIDTH 13 0
BBX 16 24 1 0
BITMAP
0000000002730000
000000000DFF3000
000000005FFF5000
00000000CFFE1000
00000003FFF40000
0000000AFF800000
0000002FFB000000
0000008FD1000000
0000007E30000000
0000000000000000
0000000000000000
00AED0005EE30000
06FFD000DFF30000
0BFFA003FFF10000
1FFF6008FFC00000
3FFF300DFF900000
6FFF004FFF600000
8FFD00BFFF300031
9FFB04FFFF0006F7
AFFC2DFFFD004FF7
9FFFFFCFFE26FFE2
7FFFFF5FFFFFFF40
1EFFF90DFFFFE300
04DE9004DEC81000
ENDCHAR
STARTCHAR ucircumflex
ENCODING 251
SWIDTH 462 0
DWIDTH 13 0
BBX 16 24 1 0
BITMAP
0000002BEB100000
000001DFFF700000
000008FFFFB00000
00002FFCBFE00000
0000BFF49FF40000
0005FFC07FF70000
000DFF405FFB0000
006FFB002FFE0000
004ED2000BE80000
0000000000000000
0000000000000000
00AED0005EE30000
06FFD000DFF30000
0BFFA003FFF10000
1FFF6008FFC00000
3FFF300DFF900000
6FFF004FFF600000
8FFD00BFFF300031
9FFB04FFFF0006F7
AFFC2DFFFD004FF7
9FFFFFCFFE26FFE2
7FFFFF5FFFFFFF40
1EFFF90DFFFFE300
04DE9004DEC81000
ENDCHAR
STARTCHAR udieresis
ENCODING 252
SWIDTH 462 0
DWIDTH 13 0
BBX 16 19 1 0
BITMAP
0009ED301BEC2000
004FFFA07FFF7000
005FFF908FFF6000
001BEB202DEA0000
0000000000000000
0000000000000000
00AED0005EE30000
06FFD000DFF30000
0BFFA003FFF10000
1FFF6008FFC00000
3FFF300DFF900000
6FFF004FFF600000
8FFD00BFFF300031
9FFB04FFFF0006F7
AFFC2DFFFD004FF7
9FFFFFCFFE26FFE2
7FFFFF5FFFFFFF40
1EFFF90DFFFFE300
04DE9004DEC81000
ENDCHAR
STARTCHAR yacute
ENCODING 253
SWIDTH 479 0
DWIDTH 13 0
BBX 18 37 -1 -13
BITMAP
000000000002730000
00000000000DFF3000
00000000005FFF5000
0000000000CFFE1000
0000000003FFF40000
000000000AFF800000
000000002FFB000000
000000008FD1000000
000000007E30000000
000000000000000000
000000000000000000
0000AED0005EE30000
0006FFD000DFF30000
000BFFA003FFF10000
001FFF6008FFE00000
003FFF300DFFB00000
006FFF004FFF800000
008FFD00BFFF600030
009FFB04FFFF301AF5
00AFFC2DFFFF15EFF6
009FFFFFDFFE9FFFB1
007FFFFF9FFFFFF700
001EFFFA7FFFFC3000
0004DE91BFFF800000
0000001AFFF5000000
000002CFFFF1000000
00002DFFFFD0000000
0002DFEAFF90000000
001CFE3AFF50000000
00AFF30EFF10000000
04FF704FFB00000000
0AFE109FF600000000
0EFB02FFE100000000
1FFC1BFF8000000000
0FFFFFFD1000000000
09FFFFE30000000000
019EEA300000000000
ENDCHAR
STARTCHAR thorn
ENCODING 254
SWIDTH 508 0
DWIDTH 14 0
BBX 18 31 0 -9
BITMAP
00009ED20000000000
0004FFF40000000000
0008FFF10000000000
000BFFD00000000000
000EFF900000000000
002FFF600000000000
005FFF300000000000
008FFE000000000000
00AFFC000000000000
00DFF9019EEA100000
00FFF62DFFFF900000
02FFF4CFFFFFF00000
05FFF9FC29FFF20000
06FFEFE206FFF20000
08FFFF7006FFF10000
0AFFFE1009FFD00055
0BFFF8001EFF9004FC
0DFFF300AFFF203EFB
0EFFD02AFFF915EFF4
0FFFDCFFFFFFFFFF60
1FFFFFFFEFFFFFF500
2FFFFFC614CFD92000
2FFF50000000000000
3FFF30000000000000
4FFF20000000000000
4FFF20000000000000
4FFF20000000000000
5FFF20000000000000
5FFF20000000000000
5FFF20000000000000
1DEA00000000000000
ENDCHAR
STARTCHAR ydieresis
ENCODING 255
SWIDTH 479 0
DWIDTH 13 0
BBX 18 32 -1 -13
BITMAP
000009ED301BEC2000
00004FFFA07FFF7000
00005FFF908FFF6000
00001BEB202DEA0000
000000000000000000
000000000000000000
0000AED0005EE30000
0006FFD000DFF30000
000BFFA003FFF10000
001FFF6008FFE00000
003FFF300DFFB00000
006FFF004FFF800000
008FFD00BFFF600030
009FFB04FFFF301AF5
00AFFC2DFFFF15EFF6
009FFFFFDFFE9FFFB1
007FFFFF9FFFFFF700
001EFFFA7FFFFC3000
0004DE91BFFF800000
0000001AFFF5000000
000002CFFFF1000000
00002DFFFFD0000000
0002DFEAFF90000000
001CFE3AFF50000000
00AFF30EFF10000000
04FF704FFB00000000
0AFE109FF600000000
0EFB02FFE100000000
1FFC1BFF8000000000
0FFFFFFD1000000000
09FFFFE30000000000
019EEA300000000000
ENDCHAR
STARTCHAR Amacron
ENCODING 256
SWIDTH 786 0
DWIDTH 22 0
BBX 25 29 1 0
BITMAP
000000000004EFFFFFFE200000
000000000009FFFFFFFF400000
000000000006FFFFFFFC100000
00000000000000000000000000
00000000000000000000000000
0000000000169CDEFEDB840000
000000003AFFFFFFFFFFFF6000
00000019FFFFFFFFFFFFFF5000
000002DFFFFC73111258A70000
00002EFFFD4000002530000000
0001DFFFB1000004FFF5000000
000AFFFB00000009FFF7000000
004FFFE10000000CFFF4000000
00CFFF600000000EFFF0000000
04FFFE000000003FFFC0000000
09FFF8000000006FFF90000000
0DFFF400000000AFFF60000000
1FFFF000000000EFFF30000000
4FFFD000000003FFFF00000000
5FFFB000000007FFFD00000000
6FFFB00000000CFFFB00000000
6FFFB00000003FFFF900000000
4FFFD0000000AFFFF800000210
2FFFF1000003FFFFF800003F80
0CFFF800001DFFFFFA0002EF80
06FFFF8115DFF7FFFF415EFF30
00BFFFFFFFFF71EFFFFFFFF500
001AFFFFFFF8005FFFFFFE4000
00005BDFEA300004BEED820000
ENDCHAR
STARTCHAR amacron
ENCODING 257
SWIDTH 470 0
DWIDTH 13 0
BBX 16 18 1 0
BITMAP
0006FFFFFFFD1000
000BFFFFFFFF2000
0007FFFFFFFB0000
0000000000000000
0000000000000000
00003AEF50000000
0008FFFFDCB10000
00AFFFFFFFF20000
06FFFD55FFF00000
1EFFD108FFD00000
7FFF400BFFA00000
CFFC000EFF700000
EFF9003FFF4002D9
FFF8008FFF301DFB
EFFC15FFFF53DFF6
AFFFFFFDFFFFFF80
3FFFFFA2EFFFF700
04CFD8003CEB4000
ENDCHAR
STARTCHAR Abreve
ENCODING 258
SWIDTH 786 0
DWIDTH 22 0
BBX 25 31 1 0
BITMAP
00000000004EE4000008EB0000
00000000009FFE5113AFFD0000
00000000004FFFFFFFFFF70000
000000000007FFFFFFFF800000
00000000000039DEED93000000
00000000000000000000000000
00000000000000000000000000
0000000000169CDEFEDB840000
000000003AFFFFFFFFFFFF6000
00000019FFFFFFFFFFFFFF5000
000002DFFFFC73111258A70000
00002EFFFD4000002530000000
0001DFFFB1000004FFF5000000
000AFFFB00000009FFF7000000
004FFFE10000000CFFF4000000
00CFFF600000000EFFF0000000
04FFFE000000003FFFC0000000
09FFF8000000006FFF90000000
0DFFF400000000AFFF60000000
1FFFF000000000EFFF30000000
4FFFD000000003FFFF00000000
5FFFB000000007FFFD00000000
6FFFB00000000CFFFB00000000
6FFFB00000003FFFF900000000
4FFFD0000000AFFFF800000210
2FFFF1000003FFFFF800003F80
0CFFF800001DFFFFFA0002EF80
06FFFF8115DFF7FFFF415EFF30
00BFFFFFFFFF71EFFFFFFFF500
001AFFFFFFF8005FFFFFFE4000
00005BDFEA300004BEED820000
ENDCHAR
STARTCHAR abreve
ENCODING 259
SWIDTH 470 0
DWIDTH 13 0
BBX 16 21 1 0
BITMAP
005EC1000009E700
00AFF900006FFB00
008FFF7116FFF700
002FFFFFFFFFD100
0005EFFFFFFD2000
000029DEEC710000
0000000000000000
0000000000000000
00003AEF50000000
0008FFFFDCB10000
00AFFFFFFFF20000
06FFFD55FFF00000
1EFFD108FFD00000
7FFF400BFFA00000
CFFC000EFF700000
EFF9003FFF4002D9
FFF8008FFF301DFB
EFFC15FFFF53DFF6
AFFFFFFDFFFFFF80
3FFFFFA2EFFFF700
04CFD8003CEB4000
ENDCHAR
STARTCHAR Aogonek
ENCODING 260
SWIDTH 786 0
DWIDTH 22 0
BBX 25 31 1 -7
BITMAP
0000000000169CDEFEDB840000
000000003AFFFFFFFFFFFF6000
00000019FFFFFFFFFFFFFF5000
000002DFFFFC73111258A70000
00002EFFFD4000002530000000
0001DFFFB1000004FFF5000000
000AFFFB00000009FFF7000000
004FFFE10000000CFFF4000000
00CFFF600000000EFFF0000000
04FFFE000000003FFFC0000000
09FFF8000000006FFF90000000
0DFFF400000000AFFF60000000
1FFFF000000000EFFF30000000
4FFFD000000003FFFF00000000
5FFFB000000007FFFD00000000
6FFFB00000000CFFFB00000000
6FFFB00000003FFFF900000000
4FFFD0000000AFFFF800000210
2FFFF1000003FFFFF800003F70
0CFFF800001DFFFFFA0002EF90
06FFFF8115DFF8FFFF415EFF30
00BFFFFFFFFF71EFFFFFFFF500
001AFFFFFFF8005FFFFFFE4000
00005BDFEA300004DFFFB10000
0000000000000004FFE5000000
000000000000000DFF30000000
000000000000003FFB00000000
000000000000004FFD00000000
000000000000001FFFDACE2000
0000000000000007FFFFFF2000
00000000000000005CEEC60000
ENDCHAR
STARTCHAR aogonek
ENCODING 261
SWIDTH 470 0
DWIDTH 13 0
BBX 16 20 1 -7
BITMAP
00003AEF50000000
0008FFFFDCB10000
00AFFFFFFFF20000
06FFFD55FFF00000
1EFFD108FFC00000
7FFF400BFF900000
CFFC000EFF600011
EFF9003FFF4003EA
FFF8008FFF203EFB
EFFC15FFFF87EFF6
AFFFFFFDFFFFFF90
3FFFFFA2EFFFF800
04CFD804EFFD3000
0000002EFF800000
0000009FF6000000
000000EFE0000000
000000FFE1000000
000000CFFD8AC300
0000004FFFFFF500
00000004BEFD8000
ENDCHAR
STARTCHAR Cacute
ENCODING 262
SWIDTH 686 0
DWIDTH 19 0
BBX 22 33 1 0
BITMAP
0000000000000000056100
0000000000000000AFFB00
000000000000001CFFFE00
00000000000003DFFFF600
0000000000004EFFFB3000
000000000003FFFB300000
000000000003EB30000000
0000000000000000000000
0000000000000000000000
0000000039CEFEB6100000
0000003BFFFFFFFFC10000
000006FFFFFFFFFFFB0000
00007FFFFB5114DFFF4000
0004FFFF6000005FFF8000
001EFFF60000002FFF9000
008FFFA00000003FFF8000
01EFFF200000005FFF5000
05FFFB000000004FFE1000
0AFFF60000000005720000
0DFFF30000000000000000
0FFFF10000000000000000
2FFFE00000000000000000
3FFFE00000000000000000
3FFFE00000000000000000
2FFFF10000000000000000
0EFFF50000000000000000
0AFFFB0000000000000000
04FFFF5000000000000010
00BFFFE500000000005BF9
002EFFFFC6310136AEFFFA
0002DFFFFFFFFFFFFFFFE3
000018EFFFFFFFFFFFD820
00000016ADEFFECA730000
ENDCHAR
STARTCHAR cacute
ENCODING 263
SWIDTH 368 0
DWIDTH 10 0
BBX 14 24 0 0
BITMAP
00000000017400
000000000CFF40
000000004FFF70
00000000BFFE20
00000002FFF600
00000009FF9000
0000001EFC0000
0000007FE20000
0000006E400000
00000000000000
00000000000000
00004BEEB20000
0008FFFFFD0000
008FFFFFFF4000
03FFFB28FF5000
09FFE109FF2000
0DFFA008F80000
0FFF7000000012
1FFF80000002DC
0FFFB000004EFD
0CFFF8214AFFF7
05FFFFFFFFFF80
007FFFFFFFE500
0004AEFEB61000
ENDCHAR
STARTCHAR Ccircumflex
ENCODING 264
SWIDTH 686 0
DWIDTH 19 0
BBX 22 34 1 0
BITMAP
0000000000004750000000
00000000000BFFF8000000
00000000008FFFFF100000
0000000004FFE9FF700000
000000001DFF73FFD00000
000000009FFD00EFF40000
00000001FFF500AFF70000
00000000CE80003ED20000
0000000000000000000000
0000000000000000000000
0000000039CEFEB6100000
0000003BFFFFFFFFC10000
000006FFFFFFFFFFFB0000
00007FFFFB5114DFFF4000
0004FFFF6000005FFF8000
001EFFF60000002FFF9000
008FFFA00000003FFF8000
01EFFF200000005FFF5000
05FFFB000000004FFE1000
0AFFF60000000005720000
0DFFF30000000000000000
0FFFF10000000000000000
2FFFE00000000000000000
3FFFE00000000000000000
3FFFE00000000000000000
2FFFF10000000000000000
0EFFF50000000000000000
0AFFFB0000000000000000
04FFFF5000000000000010
00BFFFE500000000005BF9
002EFFFFC6310136AEFFFA
0002DFFFFFFFFFFFFFFFE3
000018EFFFFFFFFFFFD820
00000016ADEFFECA730000
ENDCHAR
STARTCHAR ccircumflex
ENCODING 265
SWIDTH 368 0
DWIDTH 10 0
BBX 14 24 0 0
BITMAP
0000002BEC1000
000000CFFF8000
000007FFFFC000
00001EFDAFF100
00009FF57FF500
0003FFD05FF900
000CFF503FFC00
005FFC001FFF00
003ED3000AE900
00000000000000
00000000000000
00004BEEB20000
0008FFFFFD0000
008FFFFFFF4000
03FFFB28FF5000
09FFE109FF2000
0DFFA008F80000
0FFF7000000012
1FFF80000002DC
0FFFB000004EFD
0CFFF8214AFFF7
05FFFFFFFFFF80
007FFFFFFFE500
0004AEFEB61000
ENDCHAR
STARTCHAR Cdotaccent
ENCODING 266
SWIDTH 686 0
DWIDTH 19 0
BBX 22 30 1 0
BITMAP
000000000009EEA1000000
00000000007FFFF6000000
00000000009FFFF4000000
00000000002BED70000000
0000000000000000000000
0000000000000000000000
0000000039CEFEB6100000
0000003BFFFFFFFFC10000
000006FFFFFFFFFFFB0000
00007FFFFB5114DFFF4000
0004FFFF6000005FFF8000
001EFFF60000002FFF9000
008FFFA00000003FFF8000
01EFFF200000005FFF5000
05FFFB000000004FFE1000
0AFFF60000000005720000
0DFFF30000000000000000
0FFFF10000000000000000
2FFFE00000000000000000
3FFFE00000000000000000
3FFFE00000000000000000
2FFFF10000000000000000
0EFFF50000000000000000
0AFFFB0000000000000000
04FFFF5000000000000010
00BFFFE500000000005BF9
002EFFFFC6310136AEFFFA
0002DFFFFFFFFFFFFFFFE3
000018EFFFFFFFFFFFD820
00000016ADEFFECA730000
ENDCHAR
STARTCHAR cdotaccent
ENCODING 267
SWIDTH 368 0
DWIDTH 10 0
BBX 14 19 0 0
BITMAP
000002BED60000
00000BFFFF1000
00000DFFFE0000
000004DFC40000
00000000000000
00000000000000
00004BEEB20000
0008FFFFFD0000
008FFFFFFF4000
03FFFB28FF5000
09FFE109FF2000
0DFFA008F80000
0FFF7000000012
1FFF80000002DC
0FFFB000004EFD
0CFFF8214AFFF7
05FFFFFFFFFF80
007FFFFFFFE500
0004AEFEB61000
ENDCHAR
STARTCHAR Ccaron
ENCODING 268
SWIDTH 686 0
DWIDTH 19 0
BBX 22 33 1 0
BITMAP
000000001DD40006DD1000
000000004FFB002FFE1000
000000000DFF20BFF70000
0000000006FF86FFB00000
0000000000DFDEFE100000
00000000005FFFF4000000
000000000008ED50000000
0000000000000000000000
0000000000000000000000
0000000039CEFEB6100000
0000003BFFFFFFFFC10000
000006FFFFFFFFFFFB0000
00007FFFFB5114DFFF4000
0004FFFF6000005FFF8000
001EFFF60000002FFF9000
008FFFA00000003FFF8000
01EFFF200000005FFF5000
05FFFB000000004FFE1000
0AFFF60000000005720000
0DFFF30000000000000000
0FFFF10000000000000000
2FFFE00000000000000000
3FFFE00000000000000000
3FFFE00000000000000000
2FFFF10000000000000000
0EFFF50000000000000000
0AFFFB0000000000000000
04FFFF5000000000000010
00BFFFE500000000005BF9
002EFFFFC6310136AEFFFA
0002DFFFFFFFFFFFFFFFE3
000018EFFFFFFFFFFFD820
00000016ADEFFECA730000
ENDCHAR
STARTCHAR ccaron
ENCODING 269
SWIDTH 368 0
DWIDTH 10 0
BBX 14 24 0 0
BITMAP
0000AE80004ED2
0002FFE001EFF2
0000EFF107FFA0
0000BFF31EFE20
00007FF57FF700
00003FF8EFD000
00000EFFFF4000
00000AFFFA0000
000002DEA10000
00000000000000
00000000000000
00004BEEB20000
0008FFFFFD0000
008FFFFFFF4000
03FFFB28FF5000
09FFE109FF2000
0DFFA008F80000
0FFF7000000012
1FFF80000002DC
0FFFB000004EFD
0CFFF8214AFFF7
05FFFFFFFFFF80
007FFFFFFFE500
0004AEFEB61000
ENDCHAR
STARTCHAR Dcaron
ENCODING 270
SWIDTH 836 0
DWIDTH 23 0
BBX 22 33 1 0
BITMAP
00000002DD30007EC00000
00000005FFA003FFE00000
00000001EFF10CFF600000
000000007FF77FFA000000
000000001EFDFFD1000000
0000000007FFFF30000000
00000000009ED400000000
0000000000000000000000
0000000000000000000000
0000037ADEFFEC84000000
0018DFFFFFFFFFFFD50000
08EFFFFFFFFFFFFFFFA000
7FFFFE96311137DFFFFA00
AFFC500000000009FFFF60
5B500022000000009FFFE1
00001DFFA00000001EFFF5
00006FFF9000000009FFF9
00009FFF5000000006FFFB
0000DFFF1000000004FFFD
0002FFFC0000000004FFFD
0005FFF90000000005FFFC
0008FFF60000000006FFFB
000BFFF30000000009FFF8
000EFFF0000000000DFFF5
002FFFD0000000004FFFF1
005FFFA000000000AFFF90
007FFF8000000005FFFF20
009FFF600000004EFFF800
00BFFF40000006EFFFB000
00DFFF311248DFFFFB1000
00EFFFFFFFFFFFFF800000
00DFFFFFFFFFFFA2000000
0039CDEFEEC95100000000
ENDCHAR
STARTCHAR dcaron
ENCODING 271
SWIDTH 470 0
DWIDTH 13 0
BBX 18 26 1 0
BITMAP
000000000000000450
000000000000007FF8
00000000000000BFF9
0000000000AED3BFF5
0000000005FFF6CFE1
0000000008FFF3DFA0
000000000AFFF0AE30
000000000DFFC00000
000000000FFF900000
000000002FFF500000
000000004FFF200000
000000006FFE000000
000000008FFB000000
00004AEECFF8000000
0009FFFFFFF6000000
00AFFFFFFFF3000000
06FFFD55FFF0000000
1EFFD108FFC0000000
7FFF400BFF90000000
CFFC000EFF70000000
EFF9003FFF4002D900
FFF8008FFF301DFB00
EFFC15FFFF53DFF600
AFFFFFFDFFFFFF8000
3FFFFFA2EFFFF70000
04CFD8003CEB400000
ENDCHAR
STARTCHAR Dcroat
ENCODING 272
SWIDTH 821 0
DWIDTH 23 0
BBX 23 24 0 0
BITMAP
00000004BDEFFEB830000000
0000001EFFFFFFFFFB300000
0000006FFFFFFFFFFFF60000
000000BFFF20149FFFFF5000
000001FFFD000002CFFFE100
000005FFF80000001DFFF800
000009FFF400000006FFFE00
00000DFFF100000001FFFF30
00002FFFB000000000CFFF60
00005FFF8000000000AFFF70
19DFFFFFFFFFD70000AFFF70
7FFFFFFFFFFFFE0000AFFF60
5FFFFFFFFFFFF90000CFFF50
0005FFF90000000000EFFF20
0008FFF70000000004FFFD00
000AFFF40000000009FFF800
000DFFF2000000002FFFF200
000FFFE000000000BFFFA000
002FFFC00000000AFFFE1000
004FFFB0000002CFFFF40000
006FFF910136AFFFFE400000
007FFFFFFFFFFFFFC3000000
006FFFFFFFFFFFD600000000
0007BDEFFEDB830000000000
ENDCHAR
STARTCHAR dcroat
ENCODING 273
SWIDTH 470 0
DWIDTH 13 0
BBX 16 23 1 0
BITMAP
0000000001AED300
0000000006FFF500
0000000009FFF200
000000000BFFE000
0003EFFFFFFFFE40
0007FFFFFFFFFF50
0005FFFFFFFFD700
000000005FFF2000
000000006FFE0000
000000008FFB0000
00004AEECFF80000
0009FFFFFFF50000
00AFFFFFFFF20000
06FFFD55FFE00000
1EFFD108FFC00000
7FFF400BFF900000
CFFC000EFF600000
EFF9003FFF4002D9
FFF8008FFF301DFB
EFFC15FFFF53DFF6
AFFFFFFDFFFFFF80
3FFFFFA2EFFFF700
04CFD8003CEB4000
ENDCHAR
STARTCHAR Emacron
ENCODING 274
SWIDTH 686 0
DWIDTH 19 0
BBX 23 29 0 0
BITMAP
000000000BFFFFFFF8000000
000000002FFFFFFFFC000000
000000000CFFFFFFE6000000
000000000000000000000000
000000000000000000000000
0000000037BDEFEB71000000
0000003BFFFFFFFFFE300000
000005FFFFFFFFFFFFE20000
00005FFFFD62113BFFF90000
0000DFFFA0000001EFFD0000
0004FFFE10000000CFFE0000
0006FFFC00000000DFFD0000
0005FFFC00000000FFF90000
0001FFFF40000000BFD20000
00008FFFE731000002000000
000007EFFFFFE40000000000
000004AFFFFFF60000000000
0003CFFFFFFFD10000000000
005FFFFD7320000000000000
03FFFF700000000000000000
0AFFF9000000000000000000
0EFFF2000000000000000000
1FFFF1000000000000000000
1FFFF4000000000000000100
0CFFFD20000000000016BF90
05FFFFE9521012368CFFFFA0
007FFFFFFFFFFFFFFFFFFE30
0003CFFFFFFFFFFFFFFD8100
0000037ACEFFEEDB96200000
ENDCHAR
STARTCHAR emacron
ENCODING 275
SWIDTH 393 0
DWIDTH 11 0
BBX 15 18 0 0
BITMAP
0008FFFFFFFB0000
000EFFFFFFFF0000
000AFFFFFFF80000
0000000000000000
0000000000000000
00004BDEC4000000
0009FFFFFF400000
008FFFFFFFA00000
03FFF916FFC00000
09FFD003FFB00000
0DFF701CFF500000
0FFF87EFF9000310
1FFFFFFE60006F80
0EFFE9500019FF80
0AFFF72137EFFE30
03FFFFFFFFFFE400
005FFFFFFFFB2000
00029DEFDA400000
ENDCHAR
STARTCHAR Ebreve
ENCODING 276
SWIDTH 686 0
DWIDTH 19 0
BBX 23 31 0 0
BITMAP
00000000BE9000003CE40000
00000002FFF92016EFF50000
00000000CFFFFFFFFFD10000
000000002DFFFFFFFD200000
00000000017CEFEB60000000
000000000000000000000000
000000000000000000000000
0000000037BDEFEB71000000
0000003BFFFFFFFFFE300000
000005FFFFFFFFFFFFE20000
00005FFFFD62113BFFF90000
0000DFFFA0000001EFFD0000
0004FFFE10000000CFFE0000
0006FFFC00000000DFFD0000
0005FFFC00000000FFF90000
0001FFFF40000000BFD20000
00008FFFE731000002000000
000007EFFFFFE40000000000
000004AFFFFFF60000000000
0003CFFFFFFFD10000000000
005FFFFD7320000000000000
03FFFF700000000000000000
0AFFF9000000000000000000
0EFFF2000000000000000000
1FFFF1000000000000000000
1FFFF4000000000000000100
0CFFFD20000000000016BF90
05FFFFE9521012368CFFFFA0
007FFFFFFFFFFFFFFFFFFE30
0003CFFFFFFFFFFFFFFD8100
0000037ACEFFEEDB96200000
ENDCHAR
STARTCHAR ebreve
ENCODING 277
SWIDTH 393 0
DWIDTH 11 0
BBX 15 21 0 0
BITMAP
007EB000001AE500
00DFF600009FF800
00BFFE6128FFF500
004FFFFFFFFFB000
0007FFFFFFFB1000
00003ADFEB500000
0000000000000000
0000000000000000
00004BDEC4000000
0009FFFFFF400000
008FFFFFFFA00000
03FFF916FFC00000
09FFD003FFB00000
0DFF701CFF500000
0FFF87EFF9000310
1FFFFFFE60006F80
0EFFE9500019FF80
0AFFF72137EFFE30
03FFFFFFFFFFE400
005FFFFFFFFB2000
00029DEFDA400000
ENDCHAR
STARTCHAR Edotaccent
ENCODING 278
SWIDTH 686 0
DWIDTH 19 0
BBX 23 30 0 0
BITMAP
000000000003BED600000000
00000000000DFFFF00000000
00000000000EFFFD00000000
000000000005DFC300000000
000000000000000000000000
000000000000000000000000
0000000037BDEFEB71000000
0000003BFFFFFFFFFE300000
000005FFFFFFFFFFFFE20000
00005FFFFD62113BFFF90000
0000DFFFA0000001EFFD0000
0004FFFE10000000CFFE0000
0006FFFC00000000DFFD0000
0005FFFC00000000FFF90000
0001FFFF40000000BFD20000
00008FFFE731000002000000
000007EFFFFFE40000000000
000004AFFFFFF60000000000
0003CFFFFFFFD10000000000
005FFFFD7320000000000000
03FFFF700000000000000000
0AFFF9000000000000000000
0EFFF2000000000000000000
1FFFF1000000000000000000
1FFFF4000000000000000100
0CFFFD20000000000016BF90
05FFFFE9521012368CFFFFA0
007FFFFFFFFFFFFFFFFFFE30
0003CFFFFFFFFFFFFFFD8100
0000037ACEFFEEDB96200000
ENDCHAR
STARTCHAR edotaccent
ENCODING 279
SWIDTH 393 0
DWIDTH 11 0
BBX 15 19 0 0
BITMAP
000001AEE7000000
000009FFFF200000
00000BFFFF100000
000003CFD5000000
0000000000000000
0000000000000000
00004BDEC4000000
0009FFFFFF400000
008FFFFFFFA00000
03FFF916FFC00000
09FFD003FFB00000
0DFF701CFF500000
0FFF87EFF9000310
1FFFFFFE60006F80
0EFFE9500019FF80
0AFFF72137EFFE30
03FFFFFFFFFFE400
005FFFFFFFFB2000
00029DEFDA400000
ENDCHAR
STARTCHAR Eogonek
ENCODING 280
SWIDTH 686 0
DWIDTH 19 0
BBX 23 31 0 -7
BITMAP
0000000037BDEFEB71000000
0000003BFFFFFFFFFE300000
000005FFFFFFFFFFFFE20000
00005FFFFD62113BFFF90000
0000DFFFA0000001EFFD0000
0004FFFE10000000CFFE0000
0006FFFC00000000DFFD0000
0005FFFC00000000FFF90000
0001FFFF40000000BFD20000
00008FFFE731000002000000
000007EFFFFFE40000000000
000004AFFFFFF60000000000
0003CFFFFFFFD10000000000
005FFFFD7320000000000000
03FFFF700000000000000000
0AFFF9000000000000000000
0EFFF2000000000000000000
1FFFF1000000000000000000
1FFFF4000000000000000100
0DFFFD20000000000016BF90
06FFFFE9521012368CFFFFA0
009FFFFFFFFFFFFFFFFFFE30
0005DFFFFFFFFFFFFFFD7100
0000048BDEFFFEB975100000
0000000000DFE20000000000
0000000006FF700000000000
000000000AFF500000000000
000000000AFFB11320000000
0000000007FFFFFFB0000000
0000000001DFFFFFA0000000
000000000019EFEA20000000
ENDCHAR
STARTCHAR eogonek
ENCODING 281
SWIDTH 393 0
DWIDTH 11 0
BBX 15 20 0 -7
BITMAP
00004BDEC4000000
0009FFFFFF300000
008FFFFFFFA00000
03FFF916FFC00000
09FFD003FFB00000
0DFF800AFF700000
0FFF64CFFC100000
1FFFFFFFB1002D60
0EFFFFA40003EF80
0BFFE200018FFF40
05FFFE98AEFFF700
009FFFFFFFFE5000
0005DFFFFD710000
00000AFF70000000
00004FF800000000
00009FF300000000
0000AFF500000000
00008FFE99C70000
00002EFFFFF90000
0000029DFEA10000
ENDCHAR
STARTCHAR Ecaron
ENCODING 282
SWIDTH 686 0
DWIDTH 19 0
BBX 23 33 0 0
BITMAP
0000000006EB0000AE700000
000000000AFF5008FF900000
0000000005FFB03FFE200000
0000000000CFF2CFF5000000
00000000005FFCFF90000000
00000000000CFFFC10000000
000000000002CEB100000000
000000000000000000000000
000000000000000000000000
0000000037BDEFEB71000000
0000003BFFFFFFFFFE300000
000005FFFFFFFFFFFFE20000
00005FFFFD62113BFFF90000
0000DFFFA0000001EFFD0000
0004FFFE10000000CFFE0000
0006FFFC00000000DFFD0000
0005FFFC00000000FFF90000
0001FFFF40000000BFD20000
00008FFFE731000002000000
000007EFFFFFE40000000000
000004AFFFFFF60000000000
0003CFFFFFFFD10000000000
005FFFFD7320000000000000
03FFFF700000000000000000
0AFFF9000000000000000000
0EFFF2000000000000000000
1FFFF1000000000000000000
1FFFF4000000000000000100
0CFFFD20000000000016BF90
05FFFFE9521012368CFFFFA0
007FFFFFFFFFFFFFFFFFFE30
0003CFFFFFFFFFFFFFFD8100
0000037ACEFFEEDB96200000
ENDCHAR
STARTCHAR ecaron
ENCODING 283
SWIDTH 393 0
DWIDTH 11 0
BBX 15 24 0 0
BITMAP
00009EA0003DE300
0000FFF100DFF400
0000DFF306FFC000
00009FF50DFF3000
00005FF76FF90000
00001FF9DFE10000
00000DFFFF600000
000008FFFC000000
000001CEB1000000
0000000000000000
0000000000000000
00004BDEC4000000
0009FFFFFF400000
008FFFFFFFA00000
03FFF916FFC00000
09FFD003FFB00000
0DFF701CFF500000
0FFF87EFF9000310
1FFFFFFE60006F80
0EFFE9500019FF80
0AFFF72137EFFE30
03FFFFFFFFFFE400
005FFFFFFFFB2000
00029DEFDA400000
ENDCHAR
STARTCHAR Gcircumflex
ENCODING 284
SWIDTH 811 0
DWIDTH 23 0
BBX 25 47 1 -13
BITMAP
00000000000026710000000000
000000000005FFFD1000000000
00000000003FFFFF7000000000
0000000000CFF8FFD000000000
0000000008FFD0CFF400000000
000000003FFF508FFA00000000
00000000AFFB004FFD00000000
000000007EC2000BE700000000
00000000000000000000000000
00000000000000000000000000
0000000028BEFEDA4000000000
0000002AFFFFFFFFF900000000
000005EFFFFFFFFFFF70000000
00006FFFFC62127FFFE0000000
0004FFFF70000009FFF4000000
001DFFF700000005FFF6000000
008FFFB000000006FFF5000000
01EFFF2000000008FFF3000000
05FFFB0000000008FFD0000000
0AFFF60000000002AB30000000
0DFFF300000000000000000000
0FFFF100000000000000000000
2FFFE000000000000000000000
3FFFE000000000000000000000
3FFFE00000009FFFFFFC000000
2FFFF1000000FFFFFFFF100000
0EFFF40000009FFFFFFE000000
0AFFFA00000000009FFC000000
04FFFF4000000000BFFA001960
00BFFFE400000000DFF805EFB0
002EFFFFB521125AFFF6AFFF70
0003DFFFFFFFFFFFFFFFFFE600
000019FFFFFFFFFFFFFFFB2000
00000027BDEFDC89FFFE600000
000000000000006FFFD2000000
00000000000008FFFF80000000
0000000000009FFFFF40000000
000000000009FF9FFF10000000
00000000008FF75FFC00000000
0000000004FF809FF800000000
000000000DFC00DFF300000000
000000005FF504FFC000000000
000000009FF10BFF6000000000
00000000BFF27FFE1000000000
00000000AFFFFFF50000000000
000000004FFFFF900000000000
0000000005CEC6000000000000
ENDCHAR
STARTCHAR gcircumflex
ENCODING 285
SWIDTH 479 0
DWIDTH 13 0
BBX 17 37 0 -13
BITMAP
000000008ED4000000
00000008FFFC000000
0000002FFFFF200000
000000BFF7FF600000
000005FFA3FF900000
00001DFF31FFD00000
00008FFA00EFF20000
0001EFF200CFF40000
0000CE60006EC10000
000000000000000000
000000000000000000
000003AEF500000000
00008FFFFDCB000000
000AFFFFFFFF100000
006FFFD56FFE000000
01EFFD108FFC000000
07FFF400BFF9000000
0CFFC000EFF6000100
0EFF9003FFF4019F50
0FFF8008FFF16EFF60
0EFFC15FFFFBFFFC10
0AFFFFFFFFFFFF8000
03FFFFFDFFFFD40000
004CFD7BFFF9100000
000001CFFF60000000
00002DFFFF20000000
0003EFFFFD00000000
002EFE9FFA00000000
01DFE39FF600000000
09FF40DFF200000000
3FF803FFC000000000
9FE109FF7000000000
EFC02EFF1000000000
FFD1BFF90000000000
EFFFFFE10000000000
8FFFFF400000000000
08DEB3000000000000
ENDCHAR
STARTCHAR Gbreve
ENCODING 286
SWIDTH 811 0
DWIDTH 23 0
BBX 25 44 1 -13
BITMAP
00000002CE7000005DD2000000
00000004FFF72028FFF2000000
00000001EFFFFFFFFFB0000000
000000004EFFFFFFFB10000000
00000000018CEFDA5000000000
00000000000000000000000000
00000000000000000000000000
0000000028BEFEDA4000000000
0000002AFFFFFFFFF900000000
000005EFFFFFFFFFFF70000000
00006FFFFC62127FFFE0000000
0004FFFF70000009FFF4000000
001DFFF700000005FFF6000000
008FFFB000000006FFF5000000
01EFFF2000000008FFF3000000
05FFFB0000000008FFD0000000
0AFFF60000000002AB30000000
0DFFF300000000000000000000
0FFFF100000000000000000000
2FFFE000000000000000000000
3FFFE000000000000000000000
3FFFE00000009FFFFFFC000000
2FFFF1000000FFFFFFFF100000
0EFFF40000009FFFFFFE000000
0AFFFA00000000009FFC000000
04FFFF4000000000BFFA001960
00BFFFE400000000DFF805EFB0
002EFFFFB521125AFFF6AFFF70
0003DFFFFFFFFFFFFFFFFFE600
000019FFFFFFFFFFFFFFFB2000
00000027BDEFDC89FFFE600000
000000000000006FFFD2000000
00000000000008FFFF80000000
0000000000009FFFFF40000000
000000000009FF9FFF10000000
00000000008FF75FFC00000000
0000000004FF809FF800000000
000000000DFC00DFF300000000
000000005FF504FFC000000000
000000009FF10BFF6000000000
00000000BFF27FFE1000000000
00000000AFFFFFF50000000000
000000004FFFFF900000000000
0000000005CEC6000000000000
ENDCHAR
STARTCHAR gbreve
ENCODING 287
SWIDTH 479 0
DWIDTH 13 0
BBX 17 34 0 -13
BITMAP
0005EC1000009E7000
000AFF900006FFB000
0008FFF7116FFF7000
0002FFFFFFFFFD1000
00005EFFFFFFD20000
0000029DEEC7100000
000000000000000000
000000000000000000
000003AEF500000000
00008FFFFDCB000000
000AFFFFFFFF100000
006FFFD56FFE000000
01EFFD108FFC000000
07FFF400BFF9000000
0CFFC000EFF6000100
0EFF9003FFF4019F50
0FFF8008FFF16EFF60
0EFFC15FFFFBFFFC10
0AFFFFFFFFFFFF8000
03FFFFFDFFFFD40000
004CFD7BFFF9100000
000001CFFF60000000
00002DFFFF20000000
0003EFFFFD00000000
002EFE9FFA00000000
01DFE39FF600000000
09FF40DFF200000000
3FF803FFC000000000
9FE109FF7000000000
EFC02EFF1000000000
FFD1BFF90000000000
EFFFFFE10000000000
8FFFFF400000000000
08DEB3000000000000
ENDCHAR
STARTCHAR Gdotaccent
ENCODING 288
SWIDTH 811 0
DWIDTH 23 0
BBX 25 43 1 -13
BITMAP
000000000004CFC40000000000
00000000002FFFFC0000000000
00000000002FFFFA0000000000
000000000008EEB20000000000
00000000000000000000000000
00000000000000000000000000
0000000028BEFEDA4000000000
0000002AFFFFFFFFF900000000
000005EFFFFFFFFFFF70000000
00006FFFFC62127FFFE0000000
0004FFFF70000009FFF4000000
001DFFF700000005FFF6000000
008FFFB000000006FFF5000000
01EFFF2000000008FFF3000000
05FFFB0000000008FFD0000000
0AFFF60000000002AB30000000
0DFFF300000000000000000000
0FFFF100000000000000000000
2FFFE000000000000000000000
3FFFE000000000000000000000
3FFFE00000009FFFFFFC000000
2FFFF1000000FFFFFFFF100000
0EFFF40000009FFFFFFE000000
0AFFFA00000000009FFC000000
04FFFF4000000000BFFA001960
00BFFFE400000000DFF805EFB0
002EFFFFB521125AFFF6AFFF70
0003DFFFFFFFFFFFFFFFFFE600
000019FFFFFFFFFFFFFFFB2000
00000027BDEFDC89FFFE600000
000000000000006FFFD2000000
00000000000008FFFF80000000
0000000000009FFFFF40000000
000000000009FF9FFF10000000
00000000008FF75FFC00000000
0000000004FF809FF800000000
000000000DFC00DFF300000000
000000005FF504FFC000000000
000000009FF10BFF6000000000
00000000BFF27FFE1000000000
00000000AFFFFFF50000000000
000000004FFFFF900000000000
0000000005CEC6000000000000
ENDCHAR
STARTCHAR gdotaccent
ENCODING 289
SWIDTH 479 0
DWIDTH 13 0
BBX 17 32 0 -13
BITMAP
00000008EE90000000
0000007FFFF5000000
0000008FFFF3000000
0000002BED70000000
000000000000000000
000000000000000000
000003AEF500000000
00008FFFFDCB000000
000AFFFFFFFF100000
006FFFD56FFE000000
01EFFD108FFC000000
07FFF400BFF9000000
0CFFC000EFF6000100
0EFF9003FFF4019F50
0FFF8008FFF16EFF60
0EFFC15FFFFBFFFC10
0AFFFFFFFFFFFF8000
03FFFFFDFFFFD40000
004CFD7BFFF9100000
000001CFFF60000000
00002DFFFF20000000
0003EFFFFD00000000
002EFE9FFA00000000
01DFE39FF600000000
09FF40DFF200000000
3FF803FFC000000000
9FE109FF7000000000
EFC02EFF1000000000
FFD1BFF90000000000
EFFFFFE10000000000
8FFFFF400000000000
08DEB3000000000000
ENDCHAR
STARTCHAR uni0122
ENCODING 290
SWIDTH 811 0
DWIDTH 23 0
BBX 25 37 1 -13
BITMAP
0000000028BEFEDA4000000000
0000002AFFFFFFFFF900000000
000005EFFFFFFFFFFF70000000
00006FFFFC62127FFFE0000000
0004FFFF70000009FFF4000000
001DFFF700000005FFF6000000
008FFFB000000006FFF5000000
01EFFF2000000008FFF3000000
05FFFB0000000008FFD0000000
0AFFF60000000002AB30000000
0DFFF300000000000000000000
0FFFF100000000000000000000
2FFFE000000000000000000000
3FFFE000000000000000000000
3FFFE00000009FFFFFFC000000
2FFFF1000000FFFFFFFF100000
0EFFF40000009FFFFFFE000000
0AFFFA00000000009FFC000000
04FFFF4000000000BFFA001960
00BFFFE400000000DFF805EFB0
002EFFFFB521125AFFF6AFFF70
0003DFFFFFFFFFFFFFFFFFE600
000019FFFFFFFFFFFFFFFB2000
00000027BDEFDC89FFFE600000
000000000000006FFFD2000000
00000AE9000008FFFF80000000
00003FFF20009FFFFF40000000
00004FFF0009FF9FFF10000000
00004FFB008FF75FFC00000000
00005FF604FF809FF800000000
00002DB00DFC00DFF300000000
000000005FF504FFC000000000
000000009FF10BFF6000000000
00000000BFF27FFE1000000000
00000000AFFFFFF50000000000
000000004FFFFF900000000000
0000000005CEC6000000000000
ENDCHAR
STARTCHAR uni0123
ENCODING 291
SWIDTH 479 0
DWIDTH 13 0
BBX 17 35 0 -13
BITMAP
000000008EA0000000
00000002FFF2000000
00000003FFF1000000
00000004FFC0000000
00000005FF70000000
00000005FF20000000
00000003E900000000
000000000000000000
000000000000000000
000003AEF500000000
00008FFFFDCB000000
000AFFFFFFFF100000
006FFFD56FFE000000
01EFFD108FFC000000
07FFF400BFF9000000
0CFFC000EFF6000100
0EFF9003FFF4019F50
0FFF8008FFF16EFF60
0EFFC15FFFFBFFFC10
0AFFFFFFFFFFFF8000
03FFFFFDFFFFD40000
004CFD7BFFF9100000
000001CFFF60000000
00002DFFFF20000000
0003EFFFFD00000000
002EFE9FFA00000000
01DFE39FF600000000
09FF40DFF200000000
3FF803FFC000000000
9FE109FF7000000000
EFC02EFF1000000000
FFD1BFF90000000000
EFFFFFE10000000000
8FFFFF400000000000
08DEB3000000000000
ENDCHAR
STARTCHAR Hcircumflex
ENCODING 292
SWIDTH 873 0
DWIDTH 24 0
BBX 29 34 -1 0
BITMAP
000000000000000276100000000000
000000000000006FFFD00000000000
00000000000003FFFFF60000000000
0000000000000DFF8FFC0000000000
0000000000008FFC0DFF3000000000
000000000004FFF409FF9000000000
00000000000BFFA004FFC000000000
000000000007EC2000BE6000000000
000000000000000000000000000000
00000000000000000000005CFD4000
000017CEEB300000000008FFFFE100
0004EFFFFFE2000000006FFFFFF600
007FFFFFFFF900000001EFFA2DF900
06FFE615FFFC00000009FFE10BF900
2EFD2000EFFE0000001FFF700CF800
6FE30000DFFE0000006FFF200EF600
4F500000DFFE000000BFFC004FF200
00000000EFFD000001FFF700BFC000
00000001FFFB000005FFF407FF4000
00000003FFF9000008FFF29FF90000
00000005FFF700000BFFFEFFA00000
00000007FFF955667EFFFFF7000000
0001BFFFFFFFFFFFFFFFF920000000
0004FFFFFFFFFFFFFFFF8000000000
0002DFFFFFDA97646FFF8000000000
0000005FFF8000005FFF7000000000
0000009FFF5000005FFF8000000000
000000CFFF2000004FFF9000000020
000001FFFD0000002FFFC000000BE0
000004FFFA0000000DFFF20000AFF0
000008FFF600000008FFFC314BFF90
00000BFFF200000001EFFFFFFFFB00
00000DFFC0000000003EFFFFFF9000
000007ED3000000000029DFDA30000
ENDCHAR
STARTCHAR hcircumflex
ENCODING 293
SWIDTH 502 0
DWIDTH 14 0
BBX 17 36 1 0
BITMAP
000000015730000000
0000002DFFF4000000
000000CFFFFC000000
000007FFBBFF300000
00003FFF37FF900000
0000CFF903FFE00000
0005FFE200EFF30000
0003DE50006EB00000
000000000000000000
000000000000000000
0000018DE900000000
00001BFFFF60000000
00009FFFFFD0000000
0003FFD2DFF0000000
000AFF60AFF0000000
001FFE10BFD0000000
007FFA00EFA0000000
00BFF603FF50000000
01FFF209FE10000000
04FFE02FF700000000
08FFB0BFD000000000
0AFF96FF4000000000
0CFF9EF70000000000
0EFFFFB07DE8000000
2FFFFD2CFFFF000000
4FFFE2BFFFFF000000
4FFF37FFFFFD000000
5FFF2FF8CFFB000000
6FFE9FA0CFF7000000
7FFFEF20FFF4000210
7FFFFA03FFF1004F90
7FFFF405FFE003EF90
8FFFE007FFF25EFF30
8FFF9006FFFFFFF500
7FFF3002FFFFFE4000
2EE600005DED810000
ENDCHAR
STARTCHAR Hbar
ENCODING 294
SWIDTH 856 0
DWIDTH 24 0
BBX 24 24 1 0
BITMAP
00000AED3000000001BEC100
00005FFF9000000008FFF600
00007FFF900000000AFFF600
00008FFF700000000BFFF400
019CEFFFEDDDDDDDDFFFFDC4
07FFFFFFFFFFFFFFFFFFFFF9
04EFFFFFFFFFFFFFFFFFFFC3
0001FFFD000000004FFFA000
0003FFFA000000006FFF7000
0006FFF8000000009FFF5000
1BEFFFFFFFFFFFFFFFFFFE60
6FFFFFFFFFFFFFFFFFFFFFA0
3EFFFFFFFFFFFFFFFFFFFD40
002FFFC000000005FFF90000
004FFFA000000007FFF70000
007FFF7000000009FFF40000
009FFF500000000CFFF20000
00BFFF300000000EFFF00000
00EFFF200000001FFFE00000
01FFFF000000003FFFC00000
02FFFD000000005FFFA00000
04FFFC000000007FFF900000
03FFF9000000007FFF600000
00AEC2000000002CFB100000
ENDCHAR
STARTCHAR hbar
ENCODING 295
SWIDTH 502 0
DWIDTH 14 0
BBX 17 23 1 0
BITMAP
0000AED20000000000
0006FFF40000000000
000BFFE00000000000
001FFFA00000000000
3CDFFFEDDDC2000000
7FFFFFFFFFF6000000
19FFFFFFFFD2000000
00EFFB000000000000
03FFF7000000000000
06FFF4000000000000
08FFF1007DE8000000
0BFFC01CFFFF000000
0DFF90BFFFFF000000
0FFF77FFFFFD000000
2FFF6FF8CFFB000000
3FFFAFA0CFF7000000
4FFFFF20FFF4000210
5FFFFA03FFF1004F90
6FFFF405FFE003EF90
6FFFE007FFF25EFF30
5FFF9006FFFFFFF500
2FFF4002FFFFFE5000
09EA00005DED820000
ENDCHAR
STARTCHAR Itilde
ENCODING 296
SWIDTH 495 0
DWIDTH 14 0
BBX 18 32 -1 0
BITMAP
000000037500000000
0000007FFFB2003DD1
000004FFFFFE61DFF2
00000DFF9CFFFEFFA0
00001FFB007FFFFE20
000005610003BEC300
000000000000000000
000000000000000000
00007DFFFFFFFFFD40
0001FFFFFFFFFFFF70
0001CFFFFFFFFFFB10
00000002FFFD000000
00000004FFFB000000
00000006FFF8000000
00000008FFF6000000
0000000BFFF3000000
0000000DFFF1000000
0000000FFFE0000000
0000002FFFB0000000
0000005FFF90000000
0000007FFF70000000
000000AFFF40000000
000000CFFF20000000
000000EFFF00000000
000001FFFD00000000
000004FFFB00000000
000006FFF900000000
000008FFF700000000
00000AFFF500000000
07DFFFFFFFFFC20000
5FFFFFFFFFFFF50000
3EFFFFFFFFFEA10000
ENDCHAR
STARTCHAR itilde
ENCODING 297
SWIDTH 246 0
DWIDTH 7 0
BBX 13 21 -1 0
BITMAP
00375000000000
05FFFB2003DD10
2EFFFFE51DFF10
BFF8BFFFDFF900
EFB007FFFFD100
4610002BEB2000
00000000000000
00000000000000
0001CFA0000000
0008FFD0000000
000CFFA0000000
001FFF80000000
004FFF50000000
006FFF10000000
008FFE00003000
00AFFB0006F600
00AFFB005FF600
009FFE26FFE100
006FFFFFFE3000
000EFFFFE30000
0003CFD8100000
ENDCHAR
STARTCHAR Imacron
ENCODING 298
SWIDTH 495 0
DWIDTH 14 0
BBX 17 29 -1 0
BITMAP
0000005EFFFFFFD100
000000BFFFFFFFF300
0000007FFFFFFFB000
000000000000000000
000000000000000000
00007DFFFFFFFFFD40
0001FFFFFFFFFFFF70
0001CFFFFFFFFFFB10
00000002FFFD000000
00000004FFFB000000
00000006FFF8000000
00000008FFF6000000
0000000BFFF3000000
0000000DFFF1000000
0000000FFFE0000000
0000002FFFB0000000
0000005FFF90000000
0000007FFF70000000
000000AFFF40000000
000000CFFF20000000
000000EFFF00000000
000001FFFD00000000
000004FFFB00000000
000006FFF900000000
000008FFF700000000
00000AFFF500000000
07DFFFFFFFFFC20000
5FFFFFFFFFFFF50000
3EFFFFFFFFFEA10000
ENDCHAR
STARTCHAR imacron
ENCODING 299
SWIDTH 246 0
DWIDTH 7 0
BBX 11 18 0 0
BITMAP
5EFFFFFFD100
BFFFFFFFF300
7FFFFFFFB000
000000000000
000000000000
001CFA000000
008FFD000000
00CFFA000000
01FFF8000000
04FFF5000000
06FFF1000000
08FFE0000300
0AFFB0006F60
0AFFB005FF60
09FFE26FFE10
06FFFFFFE300
00EFFFFE3000
003CFD810000
ENDCHAR
STARTCHAR Ibreve
ENCODING 300
SWIDTH 495 0
DWIDTH 14 0
BBX 17 31 -1 0
BITMAP
000006ED3000009E90
00000AFFD4113BFFC0
000006FFFFFFFFFF50
0000009FFFFFFFF600
00000004ADFEC82000
000000000000000000
000000000000000000
00007DFFFFFFFFFD40
0001FFFFFFFFFFFF70
0001CFFFFFFFFFFB10
00000002FFFD000000
00000004FFFB000000
00000006FFF8000000
00000008FFF6000000
0000000BFFF3000000
0000000DFFF1000000
0000000FFFE0000000
0000002FFFB0000000
0000005FFF90000000
0000007FFF70000000
000000AFFF40000000
000000CFFF20000000
000000EFFF00000000
000001FFFD00000000
000004FFFB00000000
000006FFF900000000
000008FFF700000000
00000AFFF500000000
07DFFFFFFFFFC20000
5FFFFFFFFFFFF50000
3EFFFFFFFFFEA10000
ENDCHAR
STARTCHAR ibreve
ENCODING 301
SWIDTH 246 0
DWIDTH 7 0
BBX 12 21 -1 0
BITMAP
4ED2000008E8
AFFA00005FFC
7FFF8216EFF8
2EFFFFFFFFE1
04EFFFFFFD30
0028DEEC7100
000000000000
000000000000
0001CFA00000
0008FFD00000
000CFFA00000
001FFF800000
004FFF500000
006FFF100000
008FFE000030
00AFFB0006F6
00AFFB005FF6
009FFE26FFE1
006FFFFFFE30
000EFFFFE300
0003CFD81000
ENDCHAR
STARTCHAR Iogonek
ENCODING 302
SWIDTH 495 0
DWIDTH 14 0
BBX 17 31 -1 -7
BITMAP
00007DFFFFFFFFFD40
0001FFFFFFFFFFFF70
0001CFFFFFFFFFFB10
00000002FFFD000000
00000004FFFB000000
00000006FFF8000000
00000008FFF6000000
0000000BFFF3000000
0000000DFFF1000000
0000000FFFE0000000
0000002FFFB0000000
0000005FFF90000000
0000007FFF70000000
000000AFFF40000000
000000CFFF20000000
000000EFFF00000000
000001FFFD00000000
000004FFFB00000000
000006FFF900000000
000008FFF700000000
00000AFFF500000000
07DFFFFFFFFFC20000
5FFFFFFFFFFFF50000
3EFFFFFFFFFEA10000
00006FFA0000000000
0000DFE10000000000
0002FFC00000000000
0003FFF51350000000
0000EFFFFFF4000000
00006FFFFFF2000000
000005CEEC50000000
ENDCHAR
STARTCHAR iogonek
ENCODING 303
SWIDTH 246 0
DWIDTH 7 0
BBX 11 26 0 -7
BITMAP
0008EEA10000
006FFFF60000
007FFFF40000
001BEE700000
000000000000
000000000000
001CFA000000
007FFD000000
00BFFB000000
00EFF8000000
03FFF5000000
06FFF2000000
08FFE0000200
0AFFC0005F50
0AFFB003EF70
09FFD04EFF20
07FFFEFFF400
02FFFFFE4000
008FFFA10000
04FFE6000000
0DFF30000000
2FFA00000000
4FFB00000000
1FFFB8AC0000
09FFFFFF1000
006CEEC50000
ENDCHAR
STARTCHAR Idotaccent
ENCODING 304
SWIDTH 495 0
DWIDTH 14 0
BBX 17 30 -1 0
BITMAP
0000000008EEA10000
000000007FFFF60000
000000008FFFF50000
000000002BED700000
000000000000000000
000000000000000000
00007DFFFFFFFFFD40
0001FFFFFFFFFFFF70
0001CFFFFFFFFFFB10
00000002FFFD000000
00000004FFFB000000
00000006FFF8000000
00000008FFF6000000
0000000BFFF3000000
0000000DFFF1000000
0000000FFFE0000000
0000002FFFB0000000
0000005FFF90000000
0000007FFF70000000
000000AFFF40000000
000000CFFF20000000
000000EFFF00000000
000001FFFD00000000
000004FFFB00000000
000006FFF900000000
000008FFF700000000
00000AFFF500000000
07DFFFFFFFFFC20000
5FFFFFFFFFFFF50000
3EFFFFFFFFFEA10000
ENDCHAR
STARTCHAR dotlessi
ENCODING 305
SWIDTH 246 0
DWIDTH 7 0
BBX 10 13 1 0
BITMAP
01CFA00000
08FFD00000
0CFFA00000
1FFF800000
4FFF500000
6FFF100000
8FFE000030
AFFB0006F6
AFFB005FF6
9FFE26FFE1
6FFFFFFE30
0EFFFFE300
03CFD81000
ENDCHAR
STARTCHAR Jcircumflex
ENCODING 308
SWIDTH 743 0
DWIDTH 21 0
BBX 20 36 2 -2
BITMAP
00000000005740000000
000000001CFFF5000000
00000000AFFFFD000000
00000006FFDAFF500000
0000002EFF56FFA00000
000000BFFB01FFF10000
000004FFF300CFF50000
000002DE60005EC10000
00000000000000000000
00000000000000000000
0000158BDEEFEEDB9720
002AFFFFFFFFFFFFFFF4
05EFFFFFFFFFFFFFFFF6
3FFFFA63210123FFFF71
AFFD2000000002FFFD00
EFF70000000003FFFB00
FFF60000000005FFF900
DFFA0000000007FFF700
9FFF0000000009FFF400
2CE7000000000BFFF200
0000000000000DFFE000
000000000028EFFFC000
0000000029FFFFFF9000
00000007EFFFFFFF6000
000002CFFFD59FFF2000
00002EFFF700DFFD0000
0002DFFE3001FFF90000
000BFFE20006FFF40000
004FFF60000BFFD00000
009FFE00002FFF800000
00CFFB00009FFE100000
00DFFC0004FFF8000000
00CFFF416EFFD1000000
007FFFFFFFFE30000000
000BFFFFFFD300000000
00007DFFC71000000000
ENDCHAR
STARTCHAR jcircumflex
ENCODING 309
SWIDTH 254 0
DWIDTH 7 0
BBX 18 37 -7 -13
BITMAP
000000000008ED4000
00000000007FFFD000
0000000002FFFFF200
000000000BFF7FF600
000000005FFA3FFA00
00000000DFF31FFD00
00000007FFA00EFF20
0000000EFF300BFF50
0000000CE70005EC10
000000000000000000
000000000000000000
0000000003DFA00000
000000000AFFC00000
000000000CFFB00000
000000000EFF900000
000000000FFF700000
000000002FFF500000
000000004FFF200010
000000006FFF002BF1
000000007FFD06EFF2
000000009FFBAFFF90
00000000BFFFFFE500
00000000DFFFFA1000
00000000EFFE600000
0000001AFFF2000000
000002DFFFD0000000
00003EFFFFA0000000
0003EFCCFF60000000
002EFC1EFF20000000
00CFD13FFD00000000
06FF407FF800000000
0DFB00DFF300000000
3FF705FFC000000000
5FF82EFF5000000000
4FFFFFFB0000000000
0DFFFFD10000000000
02AED9100000000000
ENDCHAR
STARTCHAR uni0136
ENCODING 310
SWIDTH 937 0
DWIDTH 26 0
BBX 30 32 0 -8
BITMAP
00000059CEFEDB7300000004DE8000
00004DFFFFFFFFFF5000000EFFE000
0006FFFFFFFFFFFF8000005FFFB000
003FFFD6211BFFFC200000AFFF6000
00AFFC10000CFFF3000001FFFF1000
00FFF500000EFFF1000007FFF90000
02FFF300001FFFE000001EFFF20000
01FFF400002FFFB000008FFF900000
00EFF900004FFF900003FFFD100000
008FFC00006FFF70002EFFF3000000
002CD400008FFF5004EFFF40000000
0000000000AFFF55BFFFE400000000
000000009FFFFFFFFFFA2000000000
00000000EFFFFFFFFB300000000000
000000009FFFFFFFFFB10000000000
0000000004FFF93CFFFC1000000000
0000000006FFF701EFFF8000000000
0000000009FFF4006FFFF200000000
0BD200000DFFF1000DFFF9000000B9
3FFC10005FFFB00006FFFF30000BFC
2FFFB315EFFF500000DFFFE513CFF7
0AFFFFFFFFFB0000003FFFFFFFFF90
01BFFFFFFFC100000006FFFFFFF800
0005BDFEB600000000004BEFD93000
000000000000000000000000000000
000000000000000000000000000000
0000000000003DD400000000000000
0000000000009FFA00000000000000
000000000000AFF800000000000000
000000000000BFF400000000000000
000000000000BFE000000000000000
0000000000007E6000000000000000
ENDCHAR
STARTCHAR uni0137
ENCODING 311
SWIDTH 525 0
DWIDTH 15 0
BBX 18 35 1 -9
BITMAP
0000018DE900000000
00001BFFFF70000000
00009FFFFFD0000000
0003FFD2DFF0000000
000AFF60AFF0000000
001FFE10BFD0000000
007FFA00EFA0000000
00BFF603FF40000000
01FFF209FD00000000
04FFE02FF500000000
08FFB0BFB000000000
0AFF96FE2000000000
0CFF9FF40000000000
0EFFFF718DEB200000
2FFFF92CFFFFC00000
4FFFA1DFFFFFF40000
4FFF19FD35FFF50000
5FFF3FF304FFF20000
6FFEAF800BFFC00000
7FFFFE14CFFE300160
7FFFF85FFFD3000BF4
6FFFF29FFF10009FF3
6FFFC07FFFA12AFFB0
5FFF802FFFFFFFFD10
2FFF4007FFFFFFC100
09EA00005BEEC60000
000000000000000000
000000000000000000
00009E900000000000
0003FFF10000000000
0004FFF00000000000
0005FFA00000000000
0006FF600000000000
0006FF100000000000
0003E8000000000000
ENDCHAR
STARTCHAR kgreenlandic
ENCODING 312
SWIDTH 465 0
DWIDTH 13 0
BBX 16 13 1 0
BITMAP
01BEB005BEE91000
08FFB09FFFFF9000
0CFF76FFFFFFE000
1FFF4EFF91CFF000
4FFF7FFC00DFD000
6FFDCFF700CE4000
8FFDFFF500000021
8FFFFFF5000004F8
9FFFFFFA00004FF8
8FFFDFFF7217FFF3
7FFF6BFFFFFFFF50
4FFF21CFFFFFE500
0BE80007CFD92000
ENDCHAR
STARTCHAR Lacute
ENCODING 313
SWIDTH 673 0
DWIDTH 19 0
BBX 25 33 -2 0
BITMAP
00000000000000000000165000
00000000000000000003DFF600
0000000000000000004EFFF800
000000000000000006FFFFD200
00000000000000009FFFE81000
0000000000000008FFE8100000
0000000000000008E810000000
00000000000000000000000000
00000000000000000000000000
00000000000049DEFEB6000000
00000000003CFFFFFFFFC10000
0000000005FFFFFFFFFFFB0000
000000004FFFFA4115EFFF3000
00000001EFFF7000006FFF7000
00000007FFFB0000003FFF8000
0000000DFFF40000004FFF7000
0000002FFFE00000006FFF4000
0000004FFFB00000004FFC0000
0000006FFF9000000003400000
0000008FFF7000000000000000
0000009FFF6000000000000000
0000009FFF4000000000000000
000000AFFF3000000000000000
000000BFFF1000000000000000
000000CFFF0000000000000000
000000DFFD0000000000000000
000000EFFB0000000000001820
003ADFFFFD741000000001CF60
06FFFFFFFFFFFD9621137EFF50
0EFFFFFFFFFFFFFFFFFFFFFC00
1FFFFFFF78EFFFFFFFFFFFD200
0CFFFFFA0006CFFFFFFFFC2000
019DEC600000038CEFDB500000
ENDCHAR
STARTCHAR lacute
ENCODING 314
SWIDTH 326 0
DWIDTH 9 0
BBX 16 35 1 0
BITMAP
0000000000001650
000000000002DFF7
00000000004EFFF9
0000000006FFFFE2
000000008FFFE810
00000008FFF81000
00000007E9200000
0000000000000000
0000000000000000
0000018DE8000000
00001CFFFF500000
00009FFFFFB00000
0003FFD2EFE00000
000AFF60BFF00000
002FFE10BFE00000
007FFA00CFD00000
00CFF600EFA00000
02FFF202FF700000
05FFE006FF300000
09FFA00BFD000000
0BFF802FF7000000
0EFF609FF2000000
1FFF41EF90000000
3FFF27FF20000000
4FFF2EF900000000
5FFF9FE200000000
6FFFFF7000000000
7FFFFC0000000000
6FFFF30000110000
4FFF700003E90000
1FFF50003EFA0000
0CFFC216EFF40000
06FFFFFFFF600000
00BFFFFFE5000000
0018DFD920000000
ENDCHAR
STARTCHAR uni013B
ENCODING 315
SWIDTH 673 0
DWIDTH 19 0
BBX 25 32 -2 -8
BITMAP
00000000000049DEFEB6000000
00000000003CFFFFFFFFC10000
0000000005FFFFFFFFFFFB0000
000000004FFFFA4115EFFF3000
00000001EFFF7000006FFF7000
00000007FFFB0000003FFF8000
0000000DFFF40000004FFF7000
0000002FFFE00000006FFF4000
0000004FFFB00000004FFC0000
0000006FFF9000000003400000
0000008FFF7000000000000000
0000009FFF6000000000000000
0000009FFF4000000000000000
000000AFFF3000000000000000
000000BFFF1000000000000000
000000CFFF0000000000000000
000000DFFD0000000000000000
000000EFFB0000000000001820
003ADFFFFD741000000001CF60
06FFFFFFFFFFFD9621137EFF50
0EFFFFFFFFFFFFFFFFFFFFFC00
1FFFFFFF78EFFFFFFFFFFFD200
0CFFFFFA0006CFFFFFFFFC2000
019DEC600000038CEFDB500000
00000000000000000000000000
00000000000000000000000000
0000000005EC20000000000000
000000000CFF70000000000000
000000000DFF60000000000000
000000000EFF10000000000000
000000000EFB00000000000000
000000000AE400000000000000
ENDCHAR
STARTCHAR uni013C
ENCODING 316
SWIDTH 326 0
DWIDTH 9 0
BBX 12 35 1 -9
BITMAP
0000018DE800
00001CFFFF50
00009FFFFFB0
0003FFD2EFE0
000AFF60BFF0
002FFE10BFE0
007FFA00CFD0
00CFF600EFA0
02FFF202FF70
05FFE006FF30
09FFA00BFD00
0BFF802FF700
0EFF609FF200
1FFF41EF9000
3FFF27FF2000
4FFF2EF90000
5FFF9FE20000
6FFFFF700000
7FFFFC000000
6FFFF3000011
4FFF700003E9
1FFF50003EFA
0CFFC216EFF4
06FFFFFFFF60
00BFFFFFE500
0018DFD92000
000000000000
000000000000
004DD3000000
00BFF8000000
00CFF7000000
00DFF2000000
00EFD0000000
00EF80000000
00BD20000000
ENDCHAR
STARTCHAR Lcaron
ENCODING 317
SWIDTH 673 0
DWIDTH 19 0
BBX 27 24 -2 0
BITMAP
00000000000049DEFEB600002520
00000000003CFFFFFFFFC102FFD0
0000000005FFFFFFFFFFFB06FFE0
000000004FFFFA4115EFFF37FFA0
00000001EFFF7000006FFF77FF50
00000007FFFB0000003FFF88FE10
0000000DFFF40000004FFF75E700
0000002FFFE00000006FFF400000
0000004FFFB00000004FFC000000
0000006FFF900000000340000000
0000008FFF700000000000000000
0000009FFF600000000000000000
0000009FFF400000000000000000
000000AFFF300000000000000000
000000BFFF100000000000000000
000000CFFF000000000000000000
000000DFFD000000000000000000
000000EFFB000000000000182000
003ADFFFFD741000000001CF6000
06FFFFFFFFFFFD9621137EFF5000
0EFFFFFFFFFFFFFFFFFFFFFC0000
1FFFFFFF78EFFFFFFFFFFFD20000
0CFFFFFA0006CFFFFFFFFC200000
019DEC600000038CEFDB50000000
ENDCHAR
STARTCHAR lcaron
ENCODING 318
SWIDTH 237 0
DWIDTH 7 0
BBX 12 26 1 0
BITMAP
000000001530
00000000EFF1
00000003FFF2
0003CFA3FFD0
000BFFF4FF80
000FFFC5FF30
003FFF83EA00
007FFF500000
00AFFF100000
00DFFD000000
01FFF9000000
04FFF6000000
07FFF2000000
0AFFE0000000
0DFFA0000000
0FFF70000000
3FFF40000000
5FFF20000000
7FFE00000000
9FFC00016000
BFFA000BF300
BFFA009FF200
BFFC19FFB000
8FFFFFFC1000
3FFFFFC10000
05DFD7000000
ENDCHAR
STARTCHAR Ldot
ENCODING 319
SWIDTH 673 0
DWIDTH 19 0
BBX 25 24 -2 0
BITMAP
00000000000049DEFEB6000000
00000000003CFFFFFFFFC10000
0000000005FFFFFFFFFFFB0000
000000004FFFFA4115EFFF3000
00000001EFFF7000006FFF7000
00000007FFFB0000003FFF8000
0000000DFFF40000004FFF7000
0000002FFFE00000006FFF4000
0000004FFFB00000004FFC0000
0000006FFF9000000003400000
0000008FFF7000000000000000
0000009FFF6003CED500000000
0000009FFF400DFFFE00000000
000000AFFF300EFFFC00000000
000000BFFF1006DEB300000000
000000CFFF0000000000000000
000000DFFD0000000000000000
000000EFFB0000000000001820
003ADFFFFD741000000001CF60
06FFFFFFFFFFFD9621137EFF50
0EFFFFFFFFFFFFFFFFFFFFFC00
1FFFFFFF78EFFFFFFFFFFFD200
0CFFFFFA0006CFFFFFFFFC2000
019DEC600000038CEFDB500000
ENDCHAR
STARTCHAR ldot
ENCODING 320
SWIDTH 363 0
DWIDTH 10 0
BBX 13 26 1 0
BITMAP
00004DE7000000
0000DFFB000000
0004FFF8000000
0007FFF4000000
000BFFF1000000
000FFFB0000000
003FFF80000000
007FFF40000000
00AFFF10000000
00DFFC00000000
02FFF900000000
05FFF55DE90000
08FFF4FFFF4000
0BFFE3FFFF3000
0DFFB09EE60000
1FFF7000000000
4FFF4000000000
6FFF2000000000
8FFF1000000000
9FFF0000000330
9FFF1000004FB0
8FFF400004EFA0
5FFFD4138FFF40
0EFFFFFFFFF500
04EFFFFFFD4000
0029DFEC610000
ENDCHAR
STARTCHAR Lslash
ENCODING 321
SWIDTH 673 0
DWIDTH 19 0
BBX 25 28 -2 0
BITMAP
00000000000037ACEFFED93000
00000000018EFFFFFFFFFFF300
000000001EFFFFFFFFFFFFF300
000000004FFFD9531001242000
00000000077300000000000000
00000000000059DEFEB6000000
00000000004DFFFFFFFFC10000
0000000007FFFFFFFFFFFB0000
000000006FFFF93115EFFF4000
00000002EFFF4000005FFF7000
00000009FFF80000003FFF8000
0000000EFFF20000004FFF7000
0000003FFFC00000006FFF3000
0000006FFF900000003EF90000
0000007FFF8000000000100000
0000008FFF6000000000000000
0000009FFF4000000000000000
000000AFFF3000000000000000
000000BFFF1000000000000000
000000CFFF0000000000000000
000000DFFD0000000000000000
000000EFFB0000000000001820
003ADFFFFD741000000001CF60
06FFFFFFFFFFFD9621137EFF50
0EFFFFFFFFFFFFFFFFFFFFFC00
1FFFFFFF78EFFFFFFFFFFFD200
0CFFFFFA0006CFFFFFFFFC2000
019DEC600000038CEFDB500000
ENDCHAR
STARTCHAR lslash
ENCODING 322
SWIDTH 326 0
DWIDTH 9 0
BBX 16 28 1 0
BITMAP
00000159CEFFEC70
0002AFFFFFFFFFF7
002EFFFFFFFFFFF6
004FFDA631001220
000222AEE8000000
00003EFFFF600000
0001DFFFFFC00000
0008FFC2EFE00000
002FFF30BFF00000
008FFB00BFE00000
00DFF600DFC00000
03FFF101FF900000
07FFC005FF500000
0BFF900AFE000000
0DFF602FF8000000
1FFF409FE1000000
4FFF23FF80000000
5FFF1BFD10000000
6FFF7FF500000000
7FFFFFA000000000
6FFFFD1000000000
5FFFF30000210000
4FFF600003EA0000
1FFF50003EFA0000
0BFFC216EFF40000
05FFFFFFFF600000
00BFFFFFE5000000
0008DFD920000000
ENDCHAR
STARTCHAR Nacute
ENCODING 323
SWIDTH 884 0
DWIDTH 25 0
BBX 29 33 0 0
BITMAP
000000000000000000005610000000
0000000000000000000AFFB0000000
000000000000000001CFFFE0000000
00000000000000003DFFFF60000000
0000000000000005EFFFA300000000
000000000000003FFFB30000000000
000000000000003EB3000000000000
000000000000000000000000000000
000000000000000000000000000000
00005BDEC3000004ADFEA300000000
002CFFFFFD0001AFFFFFFE30000000
02EFFFFFFF400BFFFFFFFFB0000000
2DFF827FFF609FF8217FFFF1000000
AFF5004FFF64FF40000EFFF3000000
FF70005FFF5CF600000DFFF3000000
9800006FFF8FB000000EFFF1000000
0000008FFFCF3000002FFFE0000000
000000AFFFFB0000005FFFB0000000
000000CFFFF40000008FFF80000000
000000EFFFD0000000CFFF50000000
000001FFFF90000000EFFF20000000
000003FFFF40000003FFFD00000000
000005FFFF00000006FFFA00000000
000007FFFB00000009FFF700000000
00000AFFF80000000CFFF400000000
00000CFFF50000000EFFF100000000
00000EFFF20000001FFFE000000200
00002FFFE00000001FFFD000007F40
00004FFFC00000001FFFF00005FF40
00006FFFA00000000DFFF9128FFD10
00006FFF8000000007FFFFFFFFD200
00005FFF5000000000BFFFFFFC2000
00001CFB000000000007CEEB600000
ENDCHAR
STARTCHAR nacute
ENCODING 324
SWIDTH 496 0
DWIDTH 14 0
BBX 17 24 1 0
BITMAP
000000000056100000
0000000005FFB00000
000000000CFFE00000
000000003FFF800000
00000000AFFC100000
00000002FFE2000000
00000008FF50000000
0000000EF800000000
0000001DA000000000
000000000000000000
000000000000000000
01BEB0018EE6000000
08FFB02DFFFD000000
0CFF71DFFFFD000000
1FFF4AFFFFFB000000
4FFF5FF7EFF8000000
6FFDBF80FFF5000000
8FFEFE12FFF2000300
8FFFF705FFE0006F60
9FFFF108FFC005FF60
8FFFA009FFD16FFE10
7FFF6009FFFFFFE300
4FFF2005FFFFFD3000
0BE800007DEC710000
ENDCHAR
STARTCHAR uni0145
ENCODING 325
SWIDTH 884 0
DWIDTH 25 0
BBX 29 32 0 -8
BITMAP
00005BDEC3000004ADFEA300000000
002CFFFFFD0001AFFFFFFE30000000
02EFFFFFFF400BFFFFFFFFB0000000
2DFF827FFF609FF8217FFFF1000000
AFF5004FFF64FF40000EFFF3000000
FF70005FFF5CF600000DFFF3000000
9800006FFF8FB000000EFFF1000000
0000008FFFCF3000002FFFE0000000
000000AFFFFB0000005FFFB0000000
000000CFFFF40000008FFF80000000
000000EFFFD0000000CFFF50000000
000001FFFF90000000EFFF20000000
000003FFFF40000003FFFD00000000
000005FFFF00000006FFFA00000000
000007FFFB00000009FFF700000000
00000AFFF80000000CFFF400000000
00000CFFF50000000EFFF100000000
00000EFFF20000001FFFE000000200
00002FFFE00000001FFFD000007F40
00004FFFC00000001FFFF00005FF40
00006FFFA00000000DFFF9128FFD10
00006FFF8000000007FFFFFFFFD200
00005FFF5000000000BFFFFFFC2000
00001CFB000000000007CEEB600000
000000000000000000000000000000
000000000000000000000000000000
00000000005ED20000000000000000
0000000000CFF80000000000000000
0000000000DFF60000000000000000
0000000000DFF20000000000000000
0000000000EFC00000000000000000
00000000009E400000000000000000
ENDCHAR
STARTCHAR uni0146
ENCODING 326
SWIDTH 496 0
DWIDTH 14 0
BBX 17 22 1 -9
BITMAP
01BEB0018EE6000000
08FFB02DFFFD000000
0CFF71DFFFFD000000
1FFF4AFFFFFB000000
4FFF5FF7EFF8000000
6FFDBF80FFF5000000
8FFEFE12FFF2000300
8FFFF705FFE0006F60
9FFFF108FFC005FF60
8FFFA009FFD16FFE10
7FFF6009FFFFFFE300
4FFF2005FFFFFD3000
0BE800007DEC710000
000000000000000000
000000000000000000
00009E900000000000
0003FFF10000000000
0004FFF00000000000
0005FFA00000000000
0006FF600000000000
0006FF100000000000
0003E8000000000000
ENDCHAR
STARTCHAR Ncaron
ENCODING 327
SWIDTH 884 0
DWIDTH 25 0
BBX 29 33 0 0
BITMAP
000000000001DD40006DD100000000
000000000004FFB003FFE100000000
000000000000EFF20CFF7000000000
0000000000006FF76FFB0000000000
0000000000000DFDEFE10000000000
00000000000006FFFF400000000000
000000000000008ED5000000000000
000000000000000000000000000000
000000000000000000000000000000
00005BDEC3000004ADFEA300000000
002CFFFFFD0001AFFFFFFE30000000
02EFFFFFFF400BFFFFFFFFB0000000
2DFF827FFF609FF8217FFFF1000000
AFF5004FFF64FF40000EFFF3000000
FF70005FFF5CF600000DFFF3000000
9800006FFF8FB000000EFFF1000000
0000008FFFCF3000002FFFE0000000
000000AFFFFB0000005FFFB0000000
000000CFFFF40000008FFF80000000
000000EFFFD0000000CFFF50000000
000001FFFF90000000EFFF20000000
000003FFFF40000003FFFD00000000
000005FFFF00000006FFFA00000000
000007FFFB00000009FFF700000000
00000AFFF80000000CFFF400000000
00000CFFF50000000EFFF100000000
00000EFFF20000001FFFE000000200
00002FFFE00000001FFFD000007F40
00004FFFC00000001FFFF00005FF40
00006FFFA00000000DFFF9128FFD10
00006FFF8000000007FFFFFFFFD200
00005FFF5000000000BFFFFFFC2000
00001CFB000000000007CEEB600000
ENDCHAR
STARTCHAR ncaron
ENCODING 328
SWIDTH 496 0
DWIDTH 14 0
BBX 17 24 1 0
BITMAP
00004ED2000AF80000
0000AFF6007FFA0000
00007FF901EFF30000
00003FFB08FF800000
00000EFD1EFE100000
00000BFE8FF6000000
000007FFFFC0000000
000003FFFF30000000
0000008ED500000000
000000000000000000
000000000000000000
01BEB0018EE6000000
08FFB02DFFFD000000
0CFF71DFFFFD000000
1FFF4AFFFFFB000000
4FFF5FF7EFF8000000
6FFDBF80FFF5000000
8FFEFE12FFF2000300
8FFFF705FFE0006F60
9FFFF108FFC005FF60
8FFFA009FFD16FFE10
7FFF6009FFFFFFE300
4FFF2005FFFFFD3000
0BE800007DEC710000
ENDCHAR
STARTCHAR napostrophe
ENCODING 329
SWIDTH 496 0
DWIDTH 14 0
BBX 19 22 -1 0
BITMAP
05ED1000000000000000
0DFF6000000000000000
0FFF4000000000000000
0FFE1000000000000000
1FFA0000000000000000
1FF60000000000000000
0DC10000000000000000
00000000000000000000
00000000000000000000
0001BEB0018EE6000000
0008FFB02DFFFD000000
000CFF71DFFFFD000000
001FFF4AFFFFFB000000
004FFF5FF7EFF8000000
006FFDBF80FFF5000000
008FFEFE12FFF2000300
008FFFF705FFE0006F60
009FFFF108FFC005FF60
008FFFA009FFD16FFE10
007FFF6009FFFFFFE300
004FFF2005FFFFFD3000
000BE800007DEC710000
ENDCHAR
STARTCHAR Eng
ENCODING 330
SWIDTH 884 0
DWIDTH 25 0
BBX 29 34 0 -10
BITMAP
00005BDEC3000004ADFEA200000000
002CFFFFFD0001AFFFFFFE20000000
03EFFFFFFF401CFFFFFFFFA0000000
2DFF827FFF60AFF8219FFFE0000000
BFF5004FFF65FF40001FFFF1000000
FF60005FFF5DF600000FFFF1000000
8800006FFF8FB000001FFFF0000000
0000008FFFCF3000003FFFD0000000
0000009FFFFB0000006FFFA0000000
000000BFFFF40000009FFF70000000
000000DFFFD0000000BFFF40000000
000000FFFF90000000EFFF10000000
000003FFFF40000003FFFD00000000
000005FFFF00000006FFF900000000
000007FFFB00000009FFF600000000
00000AFFF80000000CFFF200000000
00000CFFF50000001FFFE000000000
00000EFFF20000004FFFA000000200
00002FFFE00000007FFF7000006F30
00004FFFC0000000AFFF400005FF40
00006FFFA0000000DFFFB5217FFD10
00006FFF80000001FFFFFFFFFFE200
00005FFF50000005FFFFFFFFFD2000
00000BEB00000008FFF7BEFD710000
000000000000000CFFD00000000000
000000000000001FFF800000000000
000000000000006FFF300000000000
00000000000000BFFC000000000000
000008C4000002FFF6000000000000
00003FFF300009FFD0000000000000
00002FFFE7118FFF50000000000000
000008FFFFFFFFF900000000000000
0000008FFFFFFFA000000000000000
000000039DEEB50000000000000000
ENDCHAR
STARTCHAR eng
ENCODING 331
SWIDTH 495 0
DWIDTH 14 0
BBX 18 22 0 -9
BITMAP
001BEB0018EE600000
008FFB02DFFFD00000
00CFF71DFFFFD00000
01FFF4AFFFFFA00000
04FFF5FF6EFF800000
06FFDBF80FFF500000
08FFEFE12FFF100030
08FFFF705FFD0006F6
09FFFF208FFA005FF6
08FFFB00BFF728FFE1
07FFF600EFFFFFFE30
04FFF202FFFFFFD300
00BE8005FFFEC71000
00000009FF60000000
0000000DFF20000000
0000002FFC00000000
0010007FF600000000
0CF500DFE100000000
2FF806FF7000000000
0EFE8FFD1000000000
07FFFFE30000000000
008DEA200000000000
ENDCHAR
STARTCHAR Omacron
ENCODING 332
SWIDTH 816 0
DWIDTH 23 0
BBX 22 29 1 0
BITMAP
000000005EFFFFFFD10000
00000000AFFFFFFFF30000
000000007FFFFFFFB00000
0000000000000000000000
0000000000000000000000
0000000038CEFEC8200000
0000003BFFFFFFFFF80000
000006FFFFFFFFFFFFB000
00006FFFFA4113AFFFF800
0004FFFF50000007FFFF30
001DFFF600000000BFFF90
007FFFA0000000005FFFE0
00EFFF20000000001FFFF2
05FFFC00000000000DFFF4
09FFF800000000000CFFF5
0DFFF400000000000CFFF5
0FFFF100000000000DFFF4
2FFFF000000000000EFFF2
3FFFE000000000002FFFE0
3FFFE000000000006FFFB0
2FFFF000000000009FFF70
0FFFF20000000001EFFF10
0CFFF70000000008FFF900
08FFFD000000003FFFE200
01EFFF90000004EFFF6000
007FFFFB41149FFFF80000
0009FFFFFFFFFFFF800000
00007EFFFFFFFFC4000000
0000017BEFEC9400000000
ENDCHAR
STARTCHAR omacron
ENCODING 333
SWIDTH 451 0
DWIDTH 13 0
BBX 17 18 0 0
BITMAP
000AFFFFFFF9000000
001FFFFFFFFD000000
000BFFFFFFF7000000
000000000000000000
000000000000000000
00005BEFC600000000
000AFFFFFF90000000
009FFFFFFFF5000000
04FFFA2DFFFB000000
09FFE10DFFFF125810
0DFF9009FFFFFFFF50
0FFF7002EFFFFFFF40
1FFF70004FFFEDA600
0EFFA0007FFB000000
0AFFF615EFF5000000
03FFFFFFFFB0000000
007FFFFFFC10000000
0004BEFC7000000000
ENDCHAR
STARTCHAR Obreve
ENCODING 334
SWIDTH 816 0
DWIDTH 23 0
BBX 22 31 1 0
BITMAP
00000005ED3000009EA000
0000000AFFD4113BFFC000
00000005FFFFFFFFFF5000
000000008FFFFFFFF70000
0000000004ADFED8200000
0000000000000000000000
0000000000000000000000
0000000038CEFEC8200000
0000003BFFFFFFFFF80000
000006FFFFFFFFFFFFB000
00006FFFFA4113AFFFF800
0004FFFF50000007FFFF30
001DFFF600000000BFFF90
007FFFA0000000005FFFE0
00EFFF20000000001FFFF2
05FFFC00000000000DFFF4
09FFF800000000000CFFF5
0DFFF400000000000CFFF5
0FFFF100000000000DFFF4
2FFFF000000000000EFFF2
3FFFE000000000002FFFE0
3FFFE000000000006FFFB0
2FFFF000000000009FFF70
0FFFF20000000001EFFF10
0CFFF70000000008FFF900
08FFFD000000003FFFE200
01EFFF90000004EFFF6000
007FFFFB41149FFFF80000
0009FFFFFFFFFFFF800000
00007EFFFFFFFFC4000000
0000017BEFEC9400000000
ENDCHAR
STARTCHAR obreve
ENCODING 335
SWIDTH 451 0
DWIDTH 13 0
BBX 17 21 0 0
BITMAP
008E9000001BE30000
00FFF40000AFF60000
00DFFE5129FFF30000
006FFFFFFFFFA00000
0009FFFFFFFA100000
00004ADFDB50000000
000000000000000000
000000000000000000
00005BEFC600000000
000AFFFFFF90000000
009FFFFFFFF5000000
04FFFA2DFFFB000000
09FFE10DFFFF125810
0DFF9009FFFFFFFF50
0FFF7002EFFFFFFF40
1FFF70004FFFEDA600
0EFFA0007FFB000000
0AFFF615EFF5000000
03FFFFFFFFB0000000
007FFFFFFC10000000
0004BEFC7000000000
ENDCHAR
STARTCHAR Ohungarumlaut
ENCODING 336
SWIDTH 816 0
DWIDTH 23 0
BBX 22 33 1 0
BITMAP
0000000000065000650000
00000000008FF607FF7000
0000000000DFF80CFF9000
0000000003FFF22FFF3000
0000000007FF806FF90000
000000000BFD10AFE10000
0000000009E4008E400000
0000000000000000000000
0000000000000000000000
0000000038CEFEC8200000
0000003BFFFFFFFFF80000
000006FFFFFFFFFFFFB000
00006FFFFA4113AFFFF800
0004FFFF50000007FFFF30
001DFFF600000000BFFF90
007FFFA0000000005FFFE0
00EFFF20000000001FFFF2
05FFFC00000000000DFFF4
09FFF800000000000CFFF5
0DFFF400000000000CFFF5
0FFFF100000000000DFFF4
2FFFF000000000000EFFF2
3FFFE000000000002FFFE0
3FFFE000000000006FFFB0
2FFFF000000000009FFF70
0FFFF20000000001EFFF10
0CFFF70000000008FFF900
08FFFD000000003FFFE200
01EFFF90000004EFFF6000
007FFFFB41149FFFF80000
0009FFFFFFFFFFFF800000
00007EFFFFFFFFC4000000
0000017BEFEC9400000000
ENDCHAR
STARTCHAR ohungarumlaut
ENCODING 337
SWIDTH 451 0
DWIDTH 13 0
BBX 17 24 0 0
BITMAP
000000472003720000
000003FFD02FFE1000
000008FFF27FFF2000
00000CFFB0BFFC0000
00002FFF31FFF40000
00007FF905FFA00000
0000BFE10AFE200000
0001FF600EF7000000
0001DA000CB0000000
000000000000000000
000000000000000000
00005BEFC600000000
000AFFFFFF90000000
009FFFFFFFF5000000
04FFFA2DFFFB000000
09FFE10DFFFF125810
0DFF9009FFFFFFFF50
0FFF7002EFFFFFFF40
1FFF70004FFFEDA600
0EFFA0007FFB000000
0AFFF615EFF5000000
03FFFFFFFFB0000000
007FFFFFFC10000000
0004BEFC7000000000
ENDCHAR
STARTCHAR OE
ENCODING 338
SWIDTH 1124 0
DWIDTH 31 0
BBX 34 24 1 0
BITMAP
0000000038CEFEB6100005CFFFFFFFFC10
0000003BFFFFFFFFE4005FFFFFFFFFFF40
000006FFFFFFFFFFFF50DFFFFFFFFFFF20
00006FFFFB4113AFFFE5FFFFFFFFFFE800
0004FFFF60000007FFFEFFF71000000000
001DFFF600000000BFFFFFF30000000000
007FFFB0000000005FFFFFE00000000000
00EFFF30000000001FFFFFA00000000000
05FFFC00000000000DFFFF700000000000
09FFF800000000000CFFFF400000000000
0DFFF400000000000CFFFF100000000000
0FFFF100000000000DFFFFFFFFFFFE2000
2FFFF000000000000EFFFFFFFFFFFF4000
3FFFE000000000002FFFFFFFFFFFFA0000
3FFFE000000000006FFFF3000000000000
2FFFF000000000009FFFF0000000000000
0FFFF20000000001EFFFF0000000000000
0CFFF70000000008FFFFF1000000000000
08FFFD000000003FFFFFF5000000000000
01EFFF90000004EFFFFFFD1000000006CC
007FFFFB41149FFFF7FFFFE7311259EFFE
0009FFFFFFFFFFFF606FFFFFFFFFFFFFF6
00007EFFFFFFFFB30005EFFFFFFFFFFB40
0000017BEFEC8300000016ADEFEDA72000
ENDCHAR
STARTCHAR oe
ENCODING 339
SWIDTH 668 0
DWIDTH 19 0
BBX 23 13 0 0
BITMAP
00005BEEA2005BEEA2000000
001AFFFFFE39FFFFFD100000
009FFFFFFFEFFFFFFF500000
04FFF915FFFFF51AFF700000
09FFE0009FFF8008FF600000
0DFF90006FFF303EFE100000
0FFF70006FFF59FFF5000300
1FFF70008FFFFFFC3000AF40
0EFFA000DFFFD830002CFF40
0AFFF418FFFFE51149FFFC00
04FFFFFFFFFFFFFFFFFFC100
007FFFFFF65FFFFFFFF80000
0005BEEB30029DFEC8200000
ENDCHAR
STARTCHAR Racute
ENCODING 340
SWIDTH 880 0
DWIDTH 25 0
BBX 28 33 1 0
BITMAP
0000000000000000005600000000
00000000000000001BFFA0000000
0000000000000002DFFFC0000000
000000000000004EFFFF50000000
00000000000006FFFFA200000000
0000000000005FFFA20000000000
0000000000004EA3000000000000
0000000000000000000000000000
0000000000000000000000000000
0000000016ADEFEDA51000000000
00000018FFFFFFFFFFD400000000
000004EFFFFFFFFFFFFF50000000
00005FFFF9421139FFFFE1000000
0003FFFB200000005FFFF6000000
001DFFA0017830000BFFF9000000
008FFD000CFFC00008FFFA000000
01EFF4002FFFC00009FFF8000000
06FFB0005FFF90000CFFF4000000
0BFF60008FFF70005FFFD0000000
0EFF2000AFFF4003EFFF40000000
2FFE0000DFFF239FFFF500000000
4FFB009FFFFFFFFFFC3000000000
6FFA00FFFFFFFFFB400000000000
6FF900AFFFFFFFFE700000000000
6FF90007FFF66FFFF70000000000
5FFA000AFFF307FFFF2000000000
4FFC000DFFF100DFFF9000000030
1FFF100FFFD0005FFFF2000009F2
0BFF603FFFA0000DFFFA00007FF3
04FFE38FFF800005FFFF9229FFC0
00BFFFFFFF400000AFFFFFFFFD10
001CFFFFFC0000001CFFFFFFB100
00007CFEA1000000017CEEB50000
ENDCHAR
STARTCHAR racute
ENCODING 341
SWIDTH 455 0
DWIDTH 13 0
BBX 16 24 1 0
BITMAP
0000000002730000
000000001DFF2000
000000006FFF4000
00000000DFFD1000
00000004FFF40000
0000000BFF700000
0000003FFA000000
0000009FD1000000
0000008D30000000
0000000000000000
0000000000000000
01BEB0018EE60000
08FFB02DFFFD0000
0CFF81DFFFFD0000
1FFF4AFFFFFA0000
4FFF5FF8EFF80074
6FFDBF90DFF92AF9
8FFEFE10EFFFFFF7
8FFFF700AFFFFFA0
9FFFF2001AEEB500
8FFFB00000000000
7FFF600000000000
4FFF200000000000
0BE8000000000000
ENDCHAR
STARTCHAR uni0156
ENCODING 342
SWIDTH 880 0
DWIDTH 25 0
BBX 28 32 1 -8
BITMAP
0000000016ADEFEDA51000000000
00000018FFFFFFFFFFD400000000
000004EFFFFFFFFFFFFF50000000
00005FFFF9421139FFFFE1000000
0003FFFB200000005FFFF6000000
001DFFA0017830000BFFF9000000
008FFD000CFFC00008FFFA000000
01EFF4002FFFC00009FFF8000000
06FFB0005FFF90000CFFF4000000
0BFF60008FFF70005FFFD0000000
0EFF2000AFFF4003EFFF40000000
2FFE0000DFFF239FFFF500000000
4FFB009FFFFFFFFFFC3000000000
6FFA00FFFFFFFFFB400000000000
6FF900AFFFFFFFFE700000000000
6FF90007FFF66FFFF70000000000
5FFA000AFFF307FFFF2000000000
4FFC000DFFF100DFFF9000000030
1FFF100FFFD0005FFFF2000009F2
0BFF603FFFA0000DFFFA00007FF3
04FFE38FFF800005FFFF9229FFC0
00BFFFFFFF400000AFFFFFFFFD10
001CFFFFFC0000001CFFFFFFB100
00007CFEA1000000017CEEB50000
0000000000000000000000000000
0000000000000000000000000000
000000000007EB10000000000000
00000000000EFF50000000000000
00000000001FFF30000000000000
00000000001FFE00000000000000
00000000001FF900000000000000
00000000000CD200000000000000
ENDCHAR
STARTCHAR uni0157
ENCODING 343
SWIDTH 455 0
DWIDTH 13 0
BBX 16 22 1 -9
BITMAP
01BEB0018EE60000
08FFB02DFFFD0000
0CFF81DFFFFD0000
1FFF4AFFFFFA0000
4FFF5FF8EFF80074
6FFDBF90DFF92AF9
8FFEFE10EFFFFFF7
8FFFF700AFFFFFA0
9FFFF2001AEEB500
8FFFB00000000000
7FFF600000000000
4FFF200000000000
0BE8000000000000
0000000000000000
0000000000000000
3DE4000000000000
AFF9000000000000
BFF8000000000000
CFF3000000000000
DFE0000000000000
DF90000000000000
AD20000000000000
ENDCHAR
STARTCHAR Rcaron
ENCODING 344
SWIDTH 880 0
DWIDTH 25 0
BBX 28 33 1 0
BITMAP
0000000002DD30007EC000000000
0000000005FFA004FFE000000000
0000000001EFF10DFF5000000000
00000000008FF68FF90000000000
00000000001EFDFFD10000000000
000000000007FFFE300000000000
000000000000AEC4000000000000
0000000000000000000000000000
0000000000000000000000000000
0000000016ADEFEDA51000000000
00000018FFFFFFFFFFD400000000
000004EFFFFFFFFFFFFF50000000
00005FFFF9421139FFFFE1000000
0003FFFB200000005FFFF6000000
001DFFA0017830000BFFF9000000
008FFD000CFFC00008FFFA000000
01EFF4002FFFC00009FFF8000000
06FFB0005FFF90000CFFF4000000
0BFF60008FFF70005FFFD0000000
0EFF2000AFFF4003EFFF40000000
2FFE0000DFFF239FFFF500000000
4FFB009FFFFFFFFFFC3000000000
6FFA00FFFFFFFFFB400000000000
6FF900AFFFFFFFFE700000000000
6FF90007FFF66FFFF70000000000
5FFA000AFFF307FFFF2000000000
4FFC000DFFF100DFFF9000000030
1FFF100FFFD0005FFFF2000009F2
0BFF603FFFA0000DFFFA00007FF3
04FFE38FFF800005FFFF9229FFC0
00BFFFFFFF400000AFFFFFFFFD10
001CFFFFFC0000001CFFFFFFB100
00007CFEA1000000017CEEB50000
ENDCHAR
STARTCHAR rcaron
ENCODING 345
SWIDTH 455 0
DWIDTH 13 0
BBX 16 24 1 0
BITMAP
0001CE60006EC100
0004FFC002FFF100
0002FFE00AFF8000
0000DFF12FFD1000
00009FF3AFF50000
00005FF7FFB00000
00001FFFFF300000
00000CFFF8000000
000004DE80000000
0000000000000000
0000000000000000
01BEB0018EE60000
08FFB02DFFFD0000
0CFF81DFFFFD0000
1FFF4AFFFFFA0000
4FFF5FF8EFF80074
6FFDBF90DFF92AF9
8FFEFE10EFFFFFF7
8FFFF700AFFFFFA0
9FFFF2001AEEB500
8FFFB00000000000
7FFF600000000000
4FFF200000000000
0BE8000000000000
ENDCHAR
STARTCHAR Sacute
ENCODING 346
SWIDTH 693 0
DWIDTH 19 0
BBX 19 33 1 0
BITMAP
00000000000000027300
000000000000004EFF30
00000000000006FFFF60
0000000000009FFFFC10
00000000001BFFFD6000
0000000000BFFE700000
0000000000BD71000000
00000000000000000000
00000000000000000000
00000038CDEEDA610000
00003BFFFFFFFFFE5000
0004FFFFFFFFFFFFF600
002EFFFA420149FFFE10
009FFF700000008FFF50
00EFFE000000004FFF60
01FFFD000000005FFF50
00FFFF100000006FFF20
00CFFFB10000001CE700
006FFFFD500000000000
000BFFFFFD7100000000
0001AFFFFFFE92000000
000005CFFFFFFF910000
00000004AFFFFFFC1000
00000000028EFFFF9000
2BC400000001BFFFF200
BFFB000000000DFFF400
FFFA0000000008FFF500
FFF90000000009FFF300
EFFD100000003EFFE000
9FFFD6210148EFFF7000
1EFFFFFFFFFFFFFA0000
02BFFFFFFFFFFE600000
00038CEFFECA51000000
ENDCHAR
STARTCHAR sacute
ENCODING 347
SWIDTH 427 0
DWIDTH 12 0
BBX 17 25 -1 -1
BITMAP
000000000017400000
0000000000BFF50000
0000000003FFF80000
0000000009FFF30000
000000001FFF700000
000000008FFA000000
00000001EFD1000000
00000006FE30000000
00000005E500000000
000000000000000000
000000000000000000
0000004DF900000000
000001EFF700000000
000006FFF100000000
00000DFFD000000000
00005FFFF300000000
0000DFFFFD10000000
0007FFDFFFA0000000
003FFC1DFFF4002D50
01DFF304FFFB01DF80
0BFF6000DFFD3DFF40
4FF80AEEEFFFFFF900
1B705FFFFFFFFF9000
00003FFFFFFDA40000
000006DED700000000
ENDCHAR
STARTCHAR Scircumflex
ENCODING 348
SWIDTH 693 0
DWIDTH 19 0
BBX 19 34 1 0
BITMAP
00000000002672000000
0000000005FFFD100000
000000002EFFFF800000
00000000BFF8FFD00000
00000007FFD0BFF50000
0000002FFF507FFA0000
0000009FFC003FFE0000
0000006EC2000AE70000
00000000000000000000
00000000000000000000
00000038CDEEDA610000
00003BFFFFFFFFFE5000
0004FFFFFFFFFFFFF600
002EFFFA420149FFFE10
009FFF700000008FFF50
00EFFE000000004FFF60
01FFFD000000005FFF50
00FFFF100000006FFF20
00CFFFB10000001CE700
006FFFFD500000000000
000BFFFFFD7100000000
0001AFFFFFFE92000000
000005CFFFFFFF910000
00000004AFFFFFFC1000
00000000028EFFFF9000
2BC400000001BFFFF200
BFFB000000000DFFF400
FFFA0000000008FFF500
FFF90000000009FFF300
EFFD100000003EFFE000
9FFFD6210148EFFF7000
1EFFFFFFFFFFFFFA0000
02BFFFFFFFFFFE600000
00038CEFFECA51000000
ENDCHAR
STARTCHAR scircumflex
ENCODING 349
SWIDTH 427 0
DWIDTH 12 0
BBX 17 25 -1 -1
BITMAP
00000001AEC2000000
0000000BFFF9000000
0000005FFFFD000000
000001EFE9FF200000
000008FF76FF600000
00002FFE04FFA00000
0000BFF602FFD00000
0003FFD000FFF10000
0003DD40009FA00000
000000000000000000
000000000000000000
0000004DF900000000
000001EFF700000000
000006FFF100000000
00000DFFD000000000
00005FFFF300000000
0000DFFFFD10000000
0007FFDFFFA0000000
003FFC1DFFF4002D50
01DFF304FFFB01DF80
0BFF6000DFFD3DFF40
4FF80AEEEFFFFFF900
1B705FFFFFFFFF9000
00003FFFFFFDA40000
000006DED700000000
ENDCHAR
STARTCHAR Scedilla
ENCODING 350
SWIDTH 693 0
DWIDTH 19 0
BBX 19 31 1 -7
BITMAP
00000038CDEEDA610000
00003BFFFFFFFFFE5000
0004FFFFFFFFFFFFF600
002EFFFA420149FFFE10
009FFF700000008FFF40
00EFFE000000004FFF60
01FFFD000000005FFF50
00FFFF100000006FFF20
00CFFFB10000001CE700
006FFFFD500000000000
000BFFFFFD7100000000
0001AFFFFFFE92000000
000005DFFFFFFF800000
00000004BFFFFFFB1000
00000000028EFFFF9000
2BC400000002BFFFF100
BFFB000000000DFFF400
FFFA0000000008FFF500
FFF90000000009FFF400
EFFD100000003EFFE000
9FFFC6200138EFFF7000
2EFFFFFFFFFFFFFB0000
02CFFFFFFFFFFE800000
0004AFFFFFEB71000000
00002DFFFFC000000000
00000003DFF300000000
000000008FF500000000
00000014EFF300000000
0008FFFFFFC000000000
000CFFFFFE2000000000
0006DFFD810000000000
ENDCHAR
STARTCHAR scedilla
ENCODING 351
SWIDTH 427 0
DWIDTH 12 0
BBX 17 20 -1 -7
BITMAP
0000004DF900000000
000001EFF700000000
000006FFF100000000
00000DFFD000000000
00005FFFF300000000
0000DFFFFD10000000
0007FFDFFFA0000000
003FFC1DFFF4002D50
01DFF304FFFB01DF80
0BFF6000DFFD3DFF40
4FF81AEEEFFFFFF900
1B706FFFFFFFFF9000
00007FFFFFFDA40000
0000AFFFFE10000000
00000029FF70000000
00000002FF90000000
00000006FF80000000
001899BFFF30000000
006FFFFFF700000000
002CEFDA3000000000
ENDCHAR
STARTCHAR Scaron
ENCODING 352
SWIDTH 693 0
DWIDTH 19 0
BBX 19 33 1 0
BITMAP
00000008EA0001BE6000
0000000CFF300AFF7000
00000007FF905FFD1000
00000001EFE1DFF30000
000000007FFCFF700000
000000001DFFFB000000
0000000003DE91000000
00000000000000000000
00000000000000000000
00000038CDEEDA610000
00003BFFFFFFFFFE5000
0004FFFFFFFFFFFFF600
002EFFFA420149FFFE10
009FFF700000008FFF50
00EFFE000000004FFF60
01FFFD000000005FFF50
00FFFF100000006FFF20
00CFFFB10000001CE700
006FFFFD500000000000
000BFFFFFD7100000000
0001AFFFFFFE92000000
000005CFFFFFFF910000
00000004AFFFFFFC1000
00000000028EFFFF9000
2BC400000001BFFFF200
BFFB000000000DFFF400
FFFA0000000008FFF500
FFF90000000009FFF300
EFFD100000003EFFE000
9FFFD6210148EFFF7000
1EFFFFFFFFFFFFFA0000
02BFFFFFFFFFFE600000
00038CEFFECA51000000
ENDCHAR
STARTCHAR scaron
ENCODING 353
SWIDTH 427 0
DWIDTH 12 0
BBX 17 25 -1 -1
BITMAP
00000AE90004DE3000
00001FFF100DFF4000
00000DFF206FFB0000
00000AFF40DFF30000
000006FF66FF800000
000002FF9DFE100000
000000DFFFF6000000
0000009FFFB0000000
0000002CEA10000000
000000000000000000
000000000000000000
0000004DF900000000
000001EFF700000000
000006FFF100000000
00000DFFD000000000
00005FFFF300000000
0000DFFFFD10000000
0007FFDFFFA0000000
003FFC1DFFF4002D50
01DFF304FFFB01DF80
0BFF6000DFFD3DFF40
4FF80AEEEFFFFFF900
1B705FFFFFFFFF9000
00003FFFFFFDA40000
000006DED700000000
ENDCHAR
STARTCHAR uni0162
ENCODING 354
SWIDTH 697 0
DWIDTH 20 0
BBX 25 30 1 -6
BITMAP
00000368ACDEEFFFFFFFEDB600
0018DFFFFFFFFFFFFFFFFFFF30
04EFFFFFFFFFFFFFFFFFFFFE10
3FFFE953119FFF600001233100
BFFD200000CFFF300000000000
EFF6000000FFFF000000000000
FFF6000003FFFD000000000000
DFFA000006FFFA000000000000
7FFD000009FFF7000000000000
09A300000CFFF4000000000000
000000000EFFF1000000000000
000000002FFFE0000000000000
000000004FFFB0000000000000
000000007FFF80000000000000
000000009FFF60000000000000
00000000CFFF30000000000000
00000000EFFF10000000000000
00000002FFFE00000000000000
00000004FFFC00000000000000
00000006FFFA00000000000000
00000008FFF900000000000000
00000009FFF700000000000000
000000BFFFF300000000000000
000000EFFFFC10000000000000
000000125CFF50000000000000
0000000006FF70000000000000
000000013CFF50000000000000
00006FFFFFFE10000000000000
0000AFFFFFE400000000000000
00004DFFD92000000000000000
ENDCHAR
STARTCHAR uni0163
ENCODING 355
SWIDTH 393 0
DWIDTH 11 0
BBX 15 32 0 -8
BITMAP
00000003CFC20000
0000005FFFFB0000
000002EFFFFF1000
00000BFF59FF3000
00004FFC07FF1000
0000AFF609FE0000
0001EFF10DFA0000
0005FFC04FF40000
0009FF90DFA00000
000CFF79FD200000
000FFFDFE2000000
9FFFFFFFFFFF6000
EFFFFFFFFFFF6000
AFFFFFFFFFE90000
007FFE0000000000
008FFE0000000000
008FFE0000000000
007FFE0000000000
006FFF1000000940
004FFF400000AF80
001FFFA0001AFF70
000AFFFB78DFFC10
0003FFFFFFFFD100
0001BFFFFFFA1000
0007FFFFF9300000
0003ACFFF8000000
0000002EFC000000
0000000DFD000000
0000017FFB000000
00DFFFFFF5000000
02FFFFFF90000000
00AEFEB500000000
ENDCHAR
STARTCHAR Tcaron
ENCODING 356
SWIDTH 697 0
DWIDTH 20 0
BBX 25 33 1 0
BITMAP
0000000005EB1000AE80000000
0000000009FF6007FFA0000000
0000000004FFC02FFE20000000
0000000000CFF2BFF600000000
00000000004FFCFFA000000000
00000000000BFFFD1000000000
000000000002CFB20000000000
00000000000000000000000000
00000000000000000000000000
00000268ACDEEFFFFFFFEDB600
0017DFFFFFFFFFFFFFFFFFFF30
04EFFFFFFFFFFFFFFFFFFFFE10
2EFFE953119FFF600001233100
AFFD200000CFFF300000000000
EFF7000000FFFF100000000000
FFF5000003FFFD000000000000
EFF9000006FFFA000000000000
9FFE000008FFF7000000000000
1DE600000BFFF5000000000000
000000000EFFF2000000000000
000000001FFFE0000000000000
000000004FFFC0000000000000
000000006FFF90000000000000
000000008FFF70000000000000
00000000BFFF40000000000000
00000000DFFF20000000000000
00000000FFFF00000000000000
00000003FFFD00000000000000
00000005FFFB00000000000000
00000007FFFA00000000000000
00000008FFF800000000000000
00000008FFF600000000000000
00000002CEB100000000000000
ENDCHAR
STARTCHAR tcaron
ENCODING 357
SWIDTH 343 0
DWIDTH 10 0
BBX 14 26 0 0
BITMAP
00000000002620
0000000002EFD0
0000000005FFF0
0000000006FFB0
0000047507FF60
00004FFF27FF10
0000AFFF15E800
0000EFFD000000
0002FFF9000000
0005FFF5000000
0009FFF2000000
000CFFD0000000
3CCFFFECCCC100
9FFFFFFFFFF200
6FFFFFFFFD6000
008FFF10000000
00AFFD00000000
00CFFA00000000
00EFF800000000
00FFF700000030
01FFF700000AF2
00FFFA00009FF2
00CFFF513BFFB0
007FFFFFFFFC10
001CFFFFFFA100
00018DFEB50000
ENDCHAR
STARTCHAR Tbar
ENCODING 358
SWIDTH 697 0
DWIDTH 20 0
BBX 25 24 1 0
BITMAP
00000258ACDEEFFFFFFFEDB600
0006CFFFFFFFFFFFFFFFFFFF30
03DFFFFFFFFFFFFFFFFFFFFE10
1EFFFA53119FFF600001233100
9FFE300000CFFF300000000000
DFF7000000EFFF100000000000
FFF5000002FFFD000000000000
EFF8000005FFFA000000000000
BFFD000008FFF8000000000000
4FFA00000AFFF5000000000000
045000000DFFF2000000000000
00005DFFFFFFFFFFE400000000
0000DFFFFFFFFFFFF800000000
00009FFFFFFFFFFFC200000000
000000007FFF80000000000000
00000000AFFF50000000000000
00000000CFFF30000000000000
00000000FFFF10000000000000
00000002FFFE00000000000000
00000004FFFC00000000000000
00000006FFFA00000000000000
00000008FFF800000000000000
00000008FFF700000000000000
00000003DEB100000000000000
ENDCHAR
STARTCHAR tbar
ENCODING 359
SWIDTH 343 0
DWIDTH 10 0
BBX 15 22 -1 0
BITMAP
0000004750000000
000004FFF2000000
00000AFFF1000000
00000EFFD0000000
00002FFF90000000
00005FFF50000000
00009FFF20000000
0000CFFD00000000
03CCFFFECCCC1000
09FFFFFFFFFF2000
06FFFFFFFFD60000
0008FFF100000000
000BFFD000000000
0DFFFFFFFFE00000
3FFFFFFFFFE00000
0ACFFFDCC9300100
001FFF7000008F10
000FFFA00008FF20
000DFFE513AFFC00
0008FFFFFFFFD100
0001DFFFFFFB1000
000018DFEB500000
ENDCHAR
STARTCHAR Utilde
ENCODING 360
SWIDTH 890 0
DWIDTH 25 0
BBX 29 32 0 0
BITMAP
000000000001661000000000000000
00000000002DFFE6000AE700000000
0000000000CFFFFFA18FF900000000
0000000006FFD8FFFEFFF200000000
000000000AFF303CFFFF7000000000
00000000027300008EE70000000000
000000000000000000000000000000
000000000000000000000000000000
00004ADFD60000000001CEA0000000
002BFFFFFF6000000006FFF3000000
02EFFFFFFFD000000009FFF5000000
1DFFA33FFFF10000000BFFF4000000
9FF7000EFFF10000000EFFF3000000
EF90000FFFF00000001FFFF1000000
CB00002FFFE00000003FFFD0000000
0000004FFFC00000006FFFB0000000
0000007FFF900000009FFF80000000
000000BFFF60000000DFFF60000000
000000EFFF30000002FFFF40000000
000002FFFE00000006FFFF10000000
000005FFFB0000000AFFFE00000000
000008FFF80000001FFFFC00000000
00000CFFF50000006FFFFA00000000
00000EFFF1000000DFFFF800000000
00003FFFD0000005FDFFF600000000
00005FFFA000001DF9FFF400000000
00006FFF9000009F99FFF300003D50
00007FFFA00007FE2AFFF50003EF70
00005FFFF413AFF609FFFC216EFF30
00001EFFFFFFFF9005FFFFFFFFF500
000006FFFFFFF80000BFFFFFFD4000
0000004BEFD930000007CEEC710000
ENDCHAR
STARTCHAR utilde
ENCODING 361
SWIDTH 462 0
DWIDTH 13 0
BBX 16 21 1 0
BITMAP
0000572000000000
000BFFF70008E700
008FFFFFB26FF900
02FFE7EFFEEFF200
06FF502BFFFF7000
017400006DE70000
0000000000000000
0000000000000000
00AED0005EE30000
06FFD000DFF30000
0BFFA003FFF10000
1FFF6008FFC00000
3FFF300DFF900000
6FFF004FFF600000
8FFD00BFFF300031
9FFB04FFFF0006F7
AFFC2DFFFD004FF7
9FFFFFCFFE26FFE2
7FFFFF5FFFFFFF40
1EFFF90DFFFFE300
04DE9004DEC81000
ENDCHAR
STARTCHAR Umacron
ENCODING 362
SWIDTH 890 0
DWIDTH 25 0
BBX 29 29 0 0
BITMAP
00000000001CFFFFFFF60000000000
00000000004FFFFFFFFA0000000000
00000000001DFFFFFFE40000000000
000000000000000000000000000000
000000000000000000000000000000
00004ADFD60000000001CEA0000000
002BFFFFFF6000000006FFF3000000
02EFFFFFFFD000000009FFF5000000
1DFFA33FFFF10000000BFFF4000000
9FF7000EFFF10000000EFFF3000000
EF90000FFFF00000001FFFF1000000
CB00002FFFE00000003FFFD0000000
0000004FFFC00000006FFFB0000000
0000007FFF900000009FFF80000000
000000BFFF60000000DFFF60000000
000000EFFF30000002FFFF40000000
000002FFFE00000006FFFF10000000
000005FFFB0000000AFFFE00000000
000008FFF80000001FFFFC00000000
00000CFFF50000006FFFFA00000000
00000EFFF1000000DFFFF800000000
00003FFFD0000005FDFFF600000000
00005FFFA000001DF9FFF400000000
00006FFF9000009F99FFF300003D50
00007FFFA00007FE2AFFF50003EF70
00005FFFF413AFF609FFFC216EFF30
00001EFFFFFFFF9005FFFFFFFFF500
000006FFFFFFF80000BFFFFFFD4000
0000004BEFD930000007CEEC710000
ENDCHAR
STARTCHAR umacron
ENCODING 363
SWIDTH 462 0
DWIDTH 13 0
BBX 16 18 1 0
BITMAP
000BFFFFFFF80000
002FFFFFFFFB0000
001DFFFFFFE50000
0000000000000000
0000000000000000
00AED0005EE30000
06FFD000DFF30000
0BFFA003FFF10000
1FFF6008FFC00000
3FFF300DFF900000
6FFF004FFF600000
8FFD00BFFF300031
9FFB04FFFF0006F7
AFFC2DFFFD004FF7
9FFFFFCFFE26FFE2
7FFFFF5FFFFFFF40
1EFFF90DFFFFE300
04DE9004DEC81000
ENDCHAR
STARTCHAR Ubreve
ENCODING 364
SWIDTH 890 0
DWIDTH 25 0
BBX 29 31 0 0
BITMAP
0000000001CE8000004DE200000000
0000000004FFF82027FFF300000000
0000000000DFFFFFFFFFC000000000
00000000003EFFFFFFFC1000000000
0000000000018CEFDA500000000000
000000000000000000000000000000
000000000000000000000000000000
00004ADFD60000000001CEA0000000
002BFFFFFF6000000006FFF3000000
02EFFFFFFFD000000009FFF5000000
1DFFA33FFFF10000000BFFF4000000
9FF7000EFFF10000000EFFF3000000
EF90000FFFF00000001FFFF1000000
CB00002FFFE00000003FFFD0000000
0000004FFFC00000006FFFB0000000
0000007FFF900000009FFF80000000
000000BFFF60000000DFFF60000000
000000EFFF30000002FFFF40000000
000002FFFE00000006FFFF10000000
000005FFFB0000000AFFFE00000000
000008FFF80000001FFFFC00000000
00000CFFF50000006FFFFA00000000
00000EFFF1000000DFFFF800000000
00003FFFD0000005FDFFF600000000
00005FFFA000001DF9FFF400000000
00006FFF9000009F99FFF300003D50
00007FFFA00007FE2AFFF50003EF70
00005FFFF413AFF609FFFC216EFF30
00001EFFFFFFFF9005FFFFFFFFF500
000006FFFFFFF80000BFFFFFFD4000
0000004BEFD930000007CEEC710000
ENDCHAR
STARTCHAR ubreve
ENCODING 365
SWIDTH 462 0
DWIDTH 13 0
BBX 16 21 1 0
BITMAP
00AE8000002CE200
01FFF30000BFF500
00EFFD412AFFF200
007FFFFFFFFF8000
000AFFFFFFF90000
00005BEFDA400000
0000000000000000
0000000000000000
00AED0005EE30000
06FFD000DFF30000
0BFFA003FFF10000
1FFF6008FFC00000
3FFF300DFF900000
6FFF004FFF600000
8FFD00BFFF300031
9FFB04FFFF0006F7
AFFC2DFFFD004FF7
9FFFFFCFFE26FFE2
7FFFFF5FFFFFFF40
1EFFF90DFFFFE300
04DE9004DEC81000
ENDCHAR
STARTCHAR Uring
ENCODING 366
SWIDTH 890 0
DWIDTH 25 0
BBX 29 34 0 0
BITMAP
00000000000004BFE9100000000000
0000000000004FFFFFB00000000000
000000000000CFFFFFF30000000000
000000000001FF915FF50000000000
000000000002FF916FF50000000000
000000000000EFFFFFF10000000000
0000000000007FFFFF700000000000
00000000000006DFC6000000000000
000000000000000000000000000000
000000000000000000000000000000
00004ADFD60000000001CEA0000000
002BFFFFFF6000000006FFF3000000
02EFFFFFFFD000000009FFF5000000
1DFFA33FFFF10000000BFFF4000000
9FF7000EFFF10000000EFFF3000000
EF90000FFFF00000001FFFF1000000
CB00002FFFE00000003FFFD0000000
0000004FFFC00000006FFFB0000000
0000007FFF900000009FFF80000000
000000BFFF60000000DFFF60000000
000000EFFF30000002FFFF40000000
000002FFFE00000006FFFF10000000
000005FFFB0000000AFFFE00000000
000008FFF80000001FFFFC00000000
00000CFFF50000006FFFFA00000000
00000EFFF1000000DFFFF800000000
00003FFFD0000005FDFFF600000000
00005FFFA000001DF9FFF400000000
00006FFF9000009F99FFF300003D50
00007FFFA00007FE2AFFF50003EF70
00005FFFF413AFF609FFFC216EFF30
00001EFFFFFFFF9005FFFFFFFFF500
000006FFFFFFF80000BFFFFFFD4000
0000004BEFD930000007CEEC710000
ENDCHAR
STARTCHAR uring
ENCODING 367
SWIDTH 462 0
DWIDTH 13 0
BBX 16 23 1 0
BITMAP
000003BEEA100000
00003EFFFFC00000
0000BFFFFFF50000
0000EFB14FF70000
0000FFA14FF60000
0000DFFFFFF30000
00005FFFFF900000
000005CFD7000000
0000000000000000
0000000000000000
00AED0005EE30000
06FFD000DFF30000
0BFFA003FFF10000
1FFF6008FFC00000
3FFF300DFF900000
6FFF004FFF600000
8FFD00BFFF300031
9FFB04FFFF0006F7
AFFC2DFFFD004FF7
9FFFFFCFFE26FFE2
7FFFFF5FFFFFFF40
1EFFF90DFFFFE300
04DE9004DEC81000
ENDCHAR
STARTCHAR Uhungarumlaut
ENCODING 368
SWIDTH 890 0
DWIDTH 25 0
BBX 29 33 0 0
BITMAP
000000000000047100372000000000
0000000000002FFC01FFD000000000
0000000000007FFE06FFF000000000
000000000000BFF80AFF9000000000
000000000001FFD10EFE1000000000
000000000005FF504FF60000000000
000000000003E9002EA00000000000
000000000000000000000000000000
000000000000000000000000000000
00004ADFD60000000001CEA0000000
002BFFFFFF6000000006FFF3000000
02EFFFFFFFD000000009FFF5000000
1DFFA33FFFF10000000BFFF4000000
9FF7000EFFF10000000EFFF3000000
EF90000FFFF00000001FFFF1000000
CB00002FFFE00000003FFFD0000000
0000004FFFC00000006FFFB0000000
0000007FFF900000009FFF80000000
000000BFFF60000000DFFF60000000
000000EFFF30000002FFFF40000000
000002FFFE00000006FFFF10000000
000005FFFB0000000AFFFE00000000
000008FFF80000001FFFFC00000000
00000CFFF50000006FFFFA00000000
00000EFFF1000000DFFFF800000000
00003FFFD0000005FDFFF600000000
00005FFFA000001DF9FFF400000000
00006FFF9000009F99FFF300003D50
00007FFFA00007FE2AFFF50003EF70
00005FFFF413AFF609FFFC216EFF30
00001EFFFFFFFF9005FFFFFFFFF500
000006FFFFFFF80000BFFFFFFD4000
0000004BEFD930000007CEEC710000
ENDCHAR
STARTCHAR uhungarumlaut
ENCODING 369
SWIDTH 462 0
DWIDTH 13 0
BBX 16 24 1 0
BITMAP
0000004710047200
000004FFC03FFD00
000009FFF08FFF10
00000EFFA0DFFB00
00003FFE22FFF300
00008FF707FF8000
0000DFD00CFE1000
0002FF401FF50000
0001E9001DA00000
0000000000000000
0000000000000000
00AED0005EE30000
06FFD000DFF30000
0BFFA003FFF10000
1FFF6008FFC00000
3FFF300DFF900000
6FFF004FFF600000
8FFD00BFFF300031
9FFB04FFFF0006F7
AFFC2DFFFD004FF7
9FFFFFCFFE26FFE2
7FFFFF5FFFFFFF40
1EFFF90DFFFFE300
04DE9004DEC81000
ENDCHAR
STARTCHAR Uogonek
ENCODING 370
SWIDTH 890 0
DWIDTH 25 0
BBX 29 31 0 -7
BITMAP
00004ADFD60000000001CEA0000000
002BFFFFFF6000000006FFF3000000
02EFFFFFFFD000000009FFF5000000
1DFFA33FFFF10000000BFFF4000000
9FF7000EFFF10000000EFFF3000000
EF90000FFFF00000001FFFF1000000
CB00002FFFE00000003FFFD0000000
0000004FFFC00000006FFFB0000000
0000007FFF900000009FFF80000000
000000BFFF60000000DFFF60000000
000000EFFF30000002FFFF40000000
000002FFFE00000006FFFF10000000
000005FFFB0000000AFFFE00000000
000008FFF80000001FFFFC00000000
00000CFFF50000006FFFFA00000000
00000EFFF1000000DFFFF800000000
00003FFFD0000005FDFFF600000000
00005FFFA000001DF9FFF400000000
00006FFF9000009F99FFF300003D50
00007FFFA00007FE2AFFF50003EF70
00005FFFF413AFF609FFFC216EFF30
00001EFFFFFFFF9005FFFFFFFFF700
000006FFFFFFF80000BFFFFFFF6000
0000004BEFD930000007DFFFA20000
00000000000000000000BFF7000000
00000000000000000004FFB0000000
00000000000000000007FF70000000
00000000000000000008FF90000000
00000000000000000005FFFBACC000
00000000000000000000CFFFFFD000
0000000000000000000018DFEB3000
ENDCHAR
STARTCHAR uogonek
ENCODING 371
SWIDTH 462 0
DWIDTH 13 0
BBX 16 20 1 -7
BITMAP
00AED0005EE30000
06FFD000DFF30000
0BFFA003FFF10000
1FFF6008FFC00000
3FFF300DFF900000
6FFF004FFF600000
8FFD00BFFF300031
9FFB04FFFF0006F7
AFFC2DFFFD004FF7
9FFFFFCFFE26FFE2
7FFFFF5FFFFFFE40
1EFFF90DFFFFE300
04DE9008FFFA1000
0000004FFE500000
000000CFF3000000
000002FFA0000000
000003FFC0000000
000001FFFB8AC100
0000008FFFFFF100
00000005CEEC5000
ENDCHAR
STARTCHAR Wcircumflex
ENCODING 372
SWIDTH 1217 0
DWIDTH 34 0
BBX 36 34 3 0
BITMAP
000000000000000047600000000000000000
0000000000000009FFFA0000000000000000
000000000000006FFFFF3000000000000000
00000000000002EFF8FF9000000000000000
0000000000000CFF91FFE100000000000000
0000000000007FFE10CFF500000000000000
000000000000EFF7008FF900000000000000
000000000000AEA0002DE400000000000000
000000000000000000000000000000000000
000000000000000000000000000000000000
02CEB0000000002BFC10000004BEEA200000
0AFFF3000000009FFF4000007FFFFFE10000
0DFFF300000000DFFF300003FFFFFFF80000
0FFFF100000001FFFF10000AFF72DFFC0000
2FFFE000000004FFFE00000EFE009FFE0000
3FFFC000000007FFFC00001FFB008FFD0000
5FFFA00000000AFFFA00002FFA009FFC0000
7FFF900000000EFFF900002FFB00BFFA0000
7FFF800000002FFFF900000FFE00EFF70000
8FFF700000006FFFF800000BFF74FFF40000
9FFF60000000BFFFF8000005FFFCFFE00000
9FFF50000001FFFFF7000000BFFFFFB21000
9FFF50000006FFFFF70000001BFFFFFFFFD1
8FFF6000000BFFFFF800000000EFFFFFFFF1
8FFF6000002FFFFFF800000005FFFCCEFE80
6FFF8000009FFCDFF90000000DFFD0000000
4FFFA00002FFF6BFFB0000009FFF60000000
2FFFD0000AFFE19FFE000005FFFB00000000
0EFFF3005FFF707FFF40003EFFE200000000
09FFFB15EFFD003FFFD316EFFF5000000000
04FFFFFFFFF4000DFFFFFFFFF60000000000
00CFFFFFFF700007FFFFFFFF700000000000
003EFFFFF7000000CFFFFFE5000000000000
0003BEEA3000000019EEC710000000000000
ENDCHAR
STARTCHAR wcircumflex
ENCODING 373
SWIDTH 700 0
DWIDTH 20 0
BBX 23 24 1 0
BITMAP
0000000008ED400000000000
000000008FFFC00000000000
00000002FFFFF20000000000
0000000BFF7FF50000000000
0000005FFA3FF90000000000
000001DFF21FFD0000000000
000008FFA00EFF2000000000
00001EFF200CFF4000000000
00001CE60006EC1000000000
000000000000000000000000
000000000000000000000000
3DE70000BF80003CE9000000
8FFB0006FFC001EFFF300000
9FFC000CFFC007FFFF400000
9FFC003FFFC00AFFFF200000
8FFD009FFFD00AFFFC136810
8FFD01EFFFE006FFFFFFFF50
7FFE06FFFFF00CFFFFFFFF20
6FFF0DFEFFF06FFEBDEDA400
5FFF6FF7FFF3EFF600000000
3FFFDFE1EFFDFFA000000000
1FFFFF80CFFFFE1000000000
0BFFFD108FFFE30000000000
02CEB2001BEC300000000000
ENDCHAR
STARTCHAR Ycircumflex
ENCODING 374
SWIDTH 851 0
DWIDTH 24 0
BBX 27 42 0 -8
BITMAP
0000000000000005740000000000
00000000000001CFFF5000000000
0000000000000AFFFFD000000000
0000000000006FFDAFF500000000
000000000002EFF56FFA00000000
00000000000BFFB01FFF10000000
00000000004FFF300CFF50000000
00000000002DE60005EC10000000
0000000000000000000000000000
0000000000000000000000000000
00005BDFD70000000001BEC10000
002CFFFFFF6000000006FFF60000
03EFFFFFFFD000000009FFF60000
2EFF923FFFF00000000CFFF40000
AFF6000EFFF10000000EFFF20000
FF60000FFFF00000002FFFF00000
8700002FFFD00000005FFFD00000
0000005FFFB00000008FFFA00000
0000008FFF80000000CFFF800000
000000CFFF50000002FFFF600000
000000FFFF10000007FFFF300000
000003FFFD0000000DFFFF100000
000006FFF90000006FFFFE000000
000008FFF7000001DFEFFC000000
000009FFF6000009FBEFF9000000
000009FFF800007FF5FFF7000000
000007FFFE413AFF84FFF5000000
000002FFFFFFFFFB06FFF458BEA0
0000006FFFFFFF9008FFFFFFFFC0
00000004BEFDA305AFFFFFFFFD50
00000000000017DFFFFFEB841000
000000000007EFFEAFFF90000000
0000000002CFFE714FFF60000000
000000003EFF91006FFF30000000
00000001EFF60000AFFE00000000
00000009FFA00001EFF900000000
0000001EFF400007FFF400000000
0000003FFF30002EFFB000000000
0000003FFFB215EFFF3000000000
0000000EFFFFFFFFF50000000000
00000005FFFFFFFE500000000000
000000004AEFEC71000000000000
ENDCHAR
STARTCHAR ycircumflex
ENCODING 375
SWIDTH 479 0
DWIDTH 13 0
BBX 18 37 -1 -13
BITMAP
000000002BEB100000
00000001DFFF700000
00000008FFFFB00000
0000002FFCBFE00000
000000BFF49FF40000
000005FFC07FF70000
00000DFF405FFB0000
00006FFB002FFE0000
00004ED2000BE80000
000000000000000000
000000000000000000
0000AED0005EE30000
0006FFD000DFF30000
000BFFA003FFF10000
001FFF6008FFE00000
003FFF300DFFB00000
006FFF004FFF800000
008FFD00BFFF600030
009FFB04FFFF301AF5
00AFFC2DFFFF15EFF6
009FFFFFDFFE9FFFB1
007FFFFF9FFFFFF700
001EFFFA7FFFFC3000
0004DE91BFFF800000
0000001AFFF5000000
000002CFFFF1000000
00002DFFFFD0000000
0002DFEAFF90000000
001CFE3AFF50000000
00AFF30EFF10000000
04FF704FFB00000000
0AFE109FF600000000
0EFB02FFE100000000
1FFC1BFF8000000000
0FFFFFFD1000000000
09FFFFE30000000000
019EEA300000000000
ENDCHAR
STARTCHAR Ydieresis
ENCODING 376
SWIDTH 851 0
DWIDTH 24 0
BBX 27 38 0 -8
BITMAP
000000000006EE6009ED40000000
00000000001FFFE04FFFC0000000
00000000002FFFD05FFFB0000000
000000000009ED401BEC30000000
0000000000000000000000000000
0000000000000000000000000000
00005BDFD70000000001BEC10000
002CFFFFFF6000000006FFF60000
03EFFFFFFFD000000009FFF60000
2EFF923FFFF00000000CFFF40000
AFF6000EFFF10000000EFFF20000
FF60000FFFF00000002FFFF00000
8700002FFFD00000005FFFD00000
0000005FFFB00000008FFFA00000
0000008FFF80000000CFFF800000
000000CFFF50000002FFFF600000
000000FFFF10000007FFFF300000
000003FFFD0000000DFFFF100000
000006FFF90000006FFFFE000000
000008FFF7000001DFEFFC000000
000009FFF6000009FBEFF9000000
000009FFF800007FF5FFF7000000
000007FFFE413AFF84FFF5000000
000002FFFFFFFFFB06FFF458BEA0
0000006FFFFFFF9008FFFFFFFFC0
00000004BEFDA305AFFFFFFFFD50
00000000000017DFFFFFEB841000
000000000007EFFEAFFF90000000
0000000002CFFE714FFF60000000
000000003EFF91006FFF30000000
00000001EFF60000AFFE00000000
00000009FFA00001EFF900000000
0000001EFF400007FFF400000000
0000003FFF30002EFFB000000000
0000003FFFB215EFFF3000000000
0000000EFFFFFFFFF50000000000
00000005FFFFFFFE500000000000
000000004AEFEC71000000000000
ENDCHAR
STARTCHAR Zacute
ENCODING 377
SWIDTH 721 0
DWIDTH 20 0
BBX 24 33 0 0
BITMAP
000000000000000004720000
00000000000000008FFD0000
000000000000001AFFFF1000
00000000000002CFFFF80000
0000000000003DFFFC400000
000000000001EFFC40000000
000000000001EC5000000000
000000000000000000000000
000000000000000000000000
00000159BDEFEDDCA8630000
00007EFFFFFFFFFFFFFFE500
001CFFFFFFFFFFFFFFFFFB00
009FFFC631101246FFFFF700
01FFF90000000008FFFD1000
04FFF1000000002FFFF40000
05FFF100000000BFFF900000
03FFF500000005FFFE100000
00CFF90000001EFFF5000000
002BB3000000AFFFB0000000
000000000005FFFE20000000
00000000001EFFF600000000
0000000000BFFFB000000000
0000000006FFFE2000000000
000000002EFFF60000000000
00000001DFFFA00000000000
0000000AFFFE100000000000
0000006FFFF4000000000065
017CEFFFFFC30000000008FB
1CFFFFFFFFFFEA731025CFFA
6FFFFFFFFFFFFFFFFFFFFFF3
8FFFFFFE7CFFFFFFFFFFFF50
3FFFFFE3003AFFFFFFFFE500
05CEE920000016BEFEC71000
ENDCHAR
STARTCHAR zacute
ENCODING 378
SWIDTH 445 0
DWIDTH 12 0
BBX 16 24 1 0
BITMAP
0000000003720000
000000002FFE1000
000000009FFF2000
00000001EFFB0000
00000007FFE20000
0000000DFF400000
0000005FF8000000
000000CFB0000000
000000AC10000000
0000000000000000
0000000000000000
1DFFFFFFFFFD1000
5FFFFFFFFFFF3000
2EFFFFFFFFFE1000
000018EFFFB20000
0005EFFF93000000
009FFFC300000000
07FFF90000000250
1FFFC00000002DF1
3FFFA0000004EFE0
2FFFF72125BFFF70
0CFFFFFFFFFFF800
02CFFFFFFFFD4000
0006ADFEDA500000
ENDCHAR
STARTCHAR Zdotaccent
ENCODING 379
SWIDTH 721 0
DWIDTH 20 0
BBX 24 30 0 0
BITMAP
000000000007DEB200000000
00000000005FFFF800000000
00000000006FFFF700000000
00000000001AEE9000000000
000000000000000000000000
000000000000000000000000
00000159BDEFEDDCA8630000
00007EFFFFFFFFFFFFFFE500
001CFFFFFFFFFFFFFFFFFB00
009FFFC631101246FFFFF700
01FFF90000000008FFFD1000
04FFF1000000002FFFF40000
05FFF100000000BFFF900000
03FFF500000005FFFE100000
00CFF90000001EFFF5000000
002BB3000000AFFFB0000000
000000000005FFFE20000000
00000000001EFFF600000000
0000000000BFFFB000000000
0000000006FFFE2000000000
000000002EFFF60000000000
00000001DFFFA00000000000
0000000AFFFE100000000000
0000006FFFF4000000000065
017CEFFFFFC30000000008FB
1CFFFFFFFFFFEA731025CFFA
6FFFFFFFFFFFFFFFFFFFFFF3
8FFFFFFE7CFFFFFFFFFFFF50
3FFFFFE3003AFFFFFFFFE500
05CEE920000016BEFEC71000
ENDCHAR
STARTCHAR zdotaccent
ENCODING 380
SWIDTH 445 0
DWIDTH 12 0
BBX 16 19 1 0
BITMAP
000005DFC3000000
00001FFFFB000000
00002FFFF9000000
000008EEA1000000
0000000000000000
0000000000000000
1DFFFFFFFFFD1000
5FFFFFFFFFFF3000
2EFFFFFFFFFE1000
000018EFFFB20000
0005EFFF93000000
009FFFC300000000
07FFF90000000250
1FFFC00000002DF1
3FFFA0000004EFE0
2FFFF72125BFFF70
0CFFFFFFFFFFF800
02CFFFFFFFFD4000
0006ADFEDA500000
ENDCHAR
STARTCHAR Zcaron
ENCODING 381
SWIDTH 721 0
DWIDTH 20 0
BBX 24 33 0 0
BITMAP
000000000CE60004DE200000
000000001FFE001EFF300000
000000000BFF409FF9000000
0000000004FFA4FFD1000000
0000000000BFFDFF30000000
00000000003FFFF600000000
000000000006EE6000000000
000000000000000000000000
000000000000000000000000
00000159BDEFEDDCA8630000
00007EFFFFFFFFFFFFFFE500
001CFFFFFFFFFFFFFFFFFB00
009FFFC631101246FFFFF700
01FFF90000000008FFFD1000
04FFF1000000002FFFF40000
05FFF100000000BFFF900000
03FFF500000005FFFE100000
00CFF90000001EFFF5000000
002BB3000000AFFFB0000000
000000000005FFFE20000000
00000000001EFFF600000000
0000000000BFFFB000000000
0000000006FFFE2000000000
000000002EFFF60000000000
00000001DFFFA00000000000
0000000AFFFE100000000000
0000006FFFF4000000000065
017CEFFFFFC30000000008FB
1CFFFFFFFFFFEA731025CFFA
6FFFFFFFFFFFFFFFFFFFFFF3
8FFFFFFE7CFFFFFFFFFFFF50
3FFFFFE3003AFFFFFFFFE500
05CEE920000016BEFEC71000
ENDCHAR
STARTCHAR zcaron
ENCODING 382
SWIDTH 445 0
DWIDTH 12 0
BBX 16 24 1 0
BITMAP
0002DE40008EB000
0006FF9004FFD000
0004FFC00CFF5000
0001FFE05FFB0000
0000CFF1CFF30000
00008FF7FF900000
00004FFFFE100000
00000EFFF5000000
000006EE70000000
0000000000000000
0000000000000000
1DFFFFFFFFFD1000
5FFFFFFFFFFF3000
2EFFFFFFFFFE1000
000018EFFFB20000
0005EFFF93000000
009FFFC300000000
07FFF90000000250
1FFFC00000002DF1
3FFFA0000004EFE0
2FFFF72125BFFF70
0CFFFFFFFFFFF800
02CFFFFFFFFD4000
0006ADFEDA500000
ENDCHAR
STARTCHAR uni018F
ENCODING 399
SWIDTH 792 0
DWIDTH 22 0
BBX 21 24 1 0
BITMAP
000000159CEFEC83000000
000007EFFFFFFFFFA10000
0001BFFFFFFFFFFFFD2000
000BFFFD83114AFFFFC000
002FFF810000007FFFF700
002FE4000000000AFFFD00
0009300000000002FFFF30
0000000000000000CFFF60
00000000000000009FFF80
00000000000000008FFF90
00000000000000007FFF90
00000000000000007FFF90
06EFFFFFFFFFFFFFFFFF70
1FFFFFFFFFFFFFFFFFFF50
4FFFFFFFFFFFFFFFFFFF10
5FFFC00000000002FFFC00
4FFFD00000000007FFF700
1FFFF1000000001EFFE100
0CFFF7000000009FFF7000
06FFFE30000008FFFC0000
00BFFFE72115CFFFE20000
002DFFFFFFFFFFFD200000
0001AFFFFFFFFF91000000
0000049DEFEB8200000000
ENDCHAR
STARTCHAR florin
ENCODING 402
SWIDTH 478 0
DWIDTH 13 0
BBX 17 29 -2 -8
BITMAP
000000000039DFFD70
0000000007FFFFFFE0
000000005FFFFFFE80
00000000CFFF821000
00000001FFFB000000
00000003FFF7000000
00000005FFF5000000
00000007FFF3000000
0008FFFFFFFFFFFA00
000DFFFFFFFFFFFB00
0009FFFFFFFFFFC200
0000000EFFB0000000
0000001FFF90000000
0000003FFF70000000
0000005FFF50000000
0000007FFF30000000
0000008FFF10000000
000000AFFE00000000
000000CFFC00000000
000000EFFB00000000
000001FFF900000000
000003FFF700000000
000005FFF500000000
000007FFF300000000
00000AFFF100000000
00138FFFB000000000
7EFFFFFF4000000000
CFFFFFF60000000000
5DFFD9200000000000
ENDCHAR
STARTCHAR Ohorn
ENCODING 416
SWIDTH 816 0
DWIDTH 23 0
BBX 24 28 1 0
BITMAP
00000000000000000000AE90
00000000000000000003FFF1
00000000000000000008FFE0
0000000000000000016FFFB0
0000000038CEFFFFFFFFFF30
0000003BFFFFFFFFFFFFF700
000006FFFFFFFFFFFFFD5000
00006FFFFA4113AFFFFB0000
0004FFFF50000007FFFF5000
001DFFF600000000BFFFB000
007FFFA0000000005FFFF000
00EFFF20000000001FFFF300
05FFFC00000000000DFFF400
09FFF800000000000CFFF500
0DFFF400000000000CFFF400
0FFFF100000000000DFFF400
2FFFF000000000000EFFF200
3FFFE000000000002FFFE000
3FFFE000000000006FFFA000
2FFFF000000000009FFF6000
0FFFF20000000001EFFE1000
0CFFF70000000008FFF80000
08FFFD000000003FFFE10000
01EFFF90000004EFFF500000
007FFFFB41149FFFF8000000
0009FFFFFFFFFFFF70000000
00007EFFFFFFFFC300000000
0000017BEFEC940000000000
ENDCHAR
STARTCHAR ohorn
ENCODING 417
SWIDTH 451 0
DWIDTH 13 0
BBX 17 17 0 0
BITMAP
000000000001730000
000000000009FE0000
00000000000EFE0000
00000000008FFB0000
00005BEFFFFFF50000
000AFFFFFFFF800000
009FFFFFFFF7000000
04FFFA2DFFFB000000
09FFE10DFFFE125810
0DFF9009FFFFFFFF50
0FFF7002EFFFFFFF40
1FFF70004FFFEDA600
0EFFA0007FFB000000
0AFFF615EFF5000000
03FFFFFFFFB0000000
007FFFFFFC10000000
0004BEFC7000000000
ENDCHAR
STARTCHAR Uhorn
ENCODING 431
SWIDTH 890 0
DWIDTH 25 0
BBX 29 28 0 0
BITMAP
0000000000000000000000002DE500
0000000000000000000000007FFB00
000000000000000000000000CFFA00
00000000000000000000002AFFF700
00004ADFD60000000001CFFFFFE100
002BFFFFFF6000000006FFFFFF6000
02EFFFFFFFD000000009FFFFE60000
1DFFA33FFFF10000000BFFF8100000
9FF7000EFFF10000000EFFF3000000
EF90000FFFF00000001FFFF1000000
CB00002FFFE00000003FFFD0000000
0000004FFFC00000006FFFB0000000
0000007FFF900000009FFF90000000
000000BFFF60000000DFFF60000000
000000EFFF30000002FFFF40000000
000002FFFE00000006FFFF10000000
000005FFFB0000000AFFFE00000000
000008FFF80000001FFFFC00000000
00000CFFF50000006FFFFA00000000
00000EFFF1000000DFFFF800000000
00003FFFD0000005FDFFF600000000
00005FFFA000001DF9FFF400000000
00006FFF9000009F99FFF300003D50
00007FFFA00007FE2AFFF50003EF70
00005FFFF413AFF609FFFC216EFF30
00001EFFFFFFFF9005FFFFFFFFF500
000006FFFFFFF80000BFFFFFFD4000
0000004BEFD930000007CEEC710000
ENDCHAR
STARTCHAR uhorn
ENCODING 432
SWIDTH 512 0
DWIDTH 14 0
BBX 17 17 1 0
BITMAP
000000000000272000
000000000000BFB000
000000000001FFC000
00000000001AFF8000
00AED0005EFFFE2000
06FFD000DFFFE50000
0BFFA003FFF7200000
1FFF6008FFC0000000
3FFF300DFF90000000
6FFF004FFF60000000
8FFD00BFFF20000130
9FFB04FFFE00002DD0
AFFC2DFFFD0001CFD0
9FFFFFCFFF415DFF70
7FFFFF5FFFFFFFF800
1EFFF90BFFFFFE6000
04DE9001AEEC710000
ENDCHAR
STARTCHAR uni01C4
ENCODING 452
SWIDTH 1531 0
DWIDTH 43 0
BBX 45 33 2 0
BITMAP
000000000000000000000000000003ED20008EB0000000
000000000000000000000000000006FF9004FFD0000000
000000000000000000000000000002FFE11DFF50000000
0000000000000000000000000000009FF58FF900000000
0000000000000000000000000000002FFDFFC000000000
00000000000000000000000000000008FFFE2000000000
00000000000000000000000000000000AEC30000000000
0000000000000000000000000000000000000000000000
0000000000000000000000000000000000000000000000
000027ADEFEDB720000000000026ACEFFEDCBA85200000
001BFFFFFFFFFFF9100000002AFFFFFFFFFFFFFFFC2000
008FFFFFFFFFFFFFD2000003EFFFFFFFFFFFFFFFFF6000
007FD8531125BFFFFD10001DFFFA521011249FFFFE3000
00010000000005EFFFA0006FFF4000000000CFFF910000
000034100000005FFFF3009FFC0000000007FFFD100000
000AFFD00000000BFFF9009FFB000000002EFFF4000000
002FFFD000000005FFFD008FFE10000000AFFFA0000000
005FFF9000000002FFFF002FFF50000005FFFE20000000
009FFF5000000000FFFF2005C91000001EFFF600000000
00DFFF1000000000FFFF2000000000009FFFB000000000
01FFFD0000000001FFFF100000000005FFFE2000000000
04FFFA0000000002FFFF00000000001EFFF60000000000
07FFF70000000005FFFC0000000000BFFFB00000000000
0AFFF40000000008FFF90000000007FFFE200000000000
0DFFF2000000000EFFF4000000003FFFF6000000000000
1FFFE0000000006FFFD000000001DFFFA0000000000000
3FFFC000000001EFFF600000000BFFFD10000000001820
5FFFA00000001CFFFC000029DFFFFFF82000000001CF70
7FFF90000004DFFFD20003EFFFFFFFFFFD9621127EFF50
8FFF711237BFFFFD30000BFFFFFFFFFFFFFFFFFFFFFD10
AFFFFFFFFFFFFFA100000DFFFFFFC8EFFFFFFFFFFFD200
9FFFFFFFFFFFB400000008FFFFFC1005CFFFFFFFFC2000
18BDEFFECA7200000000007DFD700000038CEFDB600000
ENDCHAR
STARTCHAR uni01C5
ENCODING 453
SWIDTH 1191 0
DWIDTH 33 0
BBX 34 24 2 0
BITMAP
000027ADEFEDB72000000000AE90004DE2
001BFFFFFFFFFFF910000001FFF000DFF3
008FFFFFFFFFFFFFD2000000DFF206FFB0
007FD8531125BFFFFD100000AFF40DFF20
00010000000005EFFFA000006FF66FF800
000034100000005FFFF300002FF9DFE100
000AFFD00000000BFFF900000DFFFF5000
002FFFD000000005FFFD000009FFFB0000
005FFF9000000002FFFF000002CEA10000
009FFF5000000000FFFF20000000000000
00DFFF1000000000FFFF20000000000000
01FFFD0000000001FFFF17FFFFFFFFF900
04FFFA0000000002FFFF0DFFFFFFFFFE00
07FFF70000000005FFFC08FFFFFFFFFA00
0AFFF40000000008FFF9000006EFFF9100
0DFFF2000000000EFFF40000AFFFC30000
1FFFE0000000006FFFD0000BFFFA000000
3FFFC000000001EFFF6000AFFF90000000
5FFFA00000001CFFFC0007FFF800000000
7FFF90000004DFFFD2003FFFA000000000
8FFF711237BFFFFD3000AFFE1000000000
AFFFFFFFFFFFFFA10000EFFFFFFFFFFA00
9FFFFFFFFFFFB4000001FFFFFFFFFFFE00
18BDEFFECA7200000000AFFFFFFFFFF900
ENDCHAR
STARTCHAR uni01C6
ENCODING 454
SWIDTH 895 0
DWIDTH 25 0
BBX 28 24 1 0
BITMAP
00000000000100006EB0001CE500
0000000001CFE300CFF300AFF700
0000000006FFF500AFF602FFE100
0000000008FFF2007FF80AFF6000
000000000BFFE0003FF92FFD0000
000000000DFFB0000EFB9FF40000
000000000FFF80000BFEFFA00000
000000002FFF500006FFFE200000
000000005FFF200001DFE5000000
000000007FFE0000001310000000
000000009FFB0000000000000000
00004AEEEFF806FFFFFFFFFF8000
0009FFFFFFF50BFFFFFFFFFFC000
00AFFFFFFFF207FFFFFFFFFF9000
06FFFD55FFE0000003AFFFE70000
1EFFD108FFC000008FFFD7100000
7FFF400BFF90001CFFF810000000
CFFC000EFF7000CFFE4000000031
EFF9003FFF4005FFF600000005F9
FFF8008FFF302DFFF40000007FF9
EFFC15FFFF54DFFFFC41137DFFE3
AFFFFFFDFFFFFFFFFFFFFFFFFE30
3FFFFFA2EFFFE56FFFFFFFFFB200
04CFD8003CEA20028CEFEC830000
ENDCHAR
ENDFONT
